<svg width="436" height="608" viewBox="0 0 436 608" fill="none" xmlns="http://www.w3.org/2000/svg">
<path d="M6.675 1.42666C4.94167 2.35999 2.675 4.62666 1.74167 6.35999C0.408333 9.02666 0.00833333 70.36 0.00833333 302.76C0.00833333 620.76 -0.525 600.36 6.94167 605.56C9.60833 607.427 31.6083 607.693 218.142 607.693C423.075 607.693 426.408 607.693 429.608 605.027C431.475 603.693 433.608 600.76 434.542 598.76C435.608 595.96 436.008 519.693 435.742 300.76L435.342 6.49333L432.275 3.42666L429.208 0.359994L219.608 0.0933277C53.2083 -0.173339 9.34167 0.0933277 6.675 1.42666ZM430.275 9.02666C431.608 11.6933 431.875 70.4933 431.608 304.493C431.342 589.827 431.342 596.76 428.808 599.56L426.275 602.36H218.008H9.74167L7.20833 599.56C4.675 596.76 4.675 589.96 4.675 303.027C4.675 55.8267 4.94167 9.02666 6.54167 7.29333C8.14167 5.15999 24.275 5.02666 218.408 5.29333L428.542 5.69333L430.275 9.02666Z" fill="#4F4E4E"/>
<path d="M211.608 49.0267C197.741 51.4267 185.608 61.6933 180.541 75.2933C179.208 78.76 178.141 81.8267 178.008 82.0933C177.741 82.2267 176.275 81.8267 174.408 81.0267C171.608 79.6933 166.675 81.4267 135.208 94.36C115.475 102.627 98.5413 110.227 97.4746 111.427C94.9413 114.627 96.2746 167.827 99.2079 179.027C106.275 205.56 125.741 228.627 152.675 242.093C168.941 250.227 174.808 249.96 193.475 240.093C217.208 227.827 237.208 203.56 242.808 180.36C243.608 176.627 244.541 173.427 244.808 173.16C245.075 172.893 247.875 174.093 251.208 175.693L257.341 178.627L268.675 172.493C301.341 155.16 326.808 130.36 334.141 108.76C337.341 99.4267 337.208 85.16 334.008 75.6933C330.808 65.96 319.475 54.4933 310.141 51.2933C301.875 48.4933 289.075 48.36 280.941 51.16C272.408 54.0933 263.741 62.0933 260.008 70.6267L256.941 77.6933L254.941 71.8267C249.741 56.2267 230.141 45.96 211.608 49.0267ZM207.075 99.16L241.341 113.427V139.56C241.341 170.227 239.741 179.56 232.141 195.027C223.208 213.027 206.675 228.76 186.541 238.36C171.208 245.56 166.408 245.027 147.608 234.093C128.675 223.027 113.608 205.293 105.875 185.027C102.275 175.293 102.141 174.093 101.608 144.227L101.075 113.56L134.941 99.4267C153.475 91.56 169.608 85.16 170.675 85.16C171.741 85.0267 188.141 91.4267 207.075 99.16Z" fill="#4F4E4E"/>
<path d="M54.2749 283.16C53.7416 283.694 53.7416 284.627 54.1416 285.16C54.5416 285.827 85.0749 286.36 122.142 286.36C180.942 286.36 189.342 286.094 189.342 284.36C189.342 282.627 180.942 282.36 122.275 282.36C85.3416 282.36 54.6749 282.76 54.2749 283.16Z" fill="#4F4E4E"/>
<path d="M205.342 284.36C205.342 286.094 215.475 286.36 288.008 286.36C360.542 286.36 370.675 286.094 370.675 284.36C370.675 282.627 360.542 282.36 288.008 282.36C215.475 282.36 205.342 282.627 205.342 284.36Z" fill="#4F4E4E"/>
<path d="M54.2748 328.493C51.6081 331.16 58.8081 331.693 97.4748 331.693C134.408 331.693 140.008 331.427 140.008 329.693C140.008 327.96 134.408 327.693 97.6081 327.693C74.2748 327.693 54.6748 328.093 54.2748 328.493Z" fill="#4F4E4E"/>
<path d="M156.009 329.693C156.009 331.427 162.142 331.693 208.409 331.427C242.142 331.16 260.675 330.493 260.675 329.693C260.675 328.893 242.142 328.227 208.409 327.96C162.142 327.693 156.009 327.96 156.009 329.693Z" fill="#4F4E4E"/>
<path d="M276.009 329.693C276.009 331.427 282.142 331.693 323.342 331.693C364.542 331.693 370.675 331.427 370.675 329.693C370.675 327.96 364.542 327.693 323.342 327.693C282.142 327.693 276.009 327.96 276.009 329.693Z" fill="#4F4E4E"/>
<path d="M54.8079 373.426C54.0079 374.493 53.7412 375.693 54.2745 376.093C54.6745 376.626 90.1412 377.026 132.941 377.026C206.408 377.026 210.808 376.893 210.408 374.626C210.008 372.493 205.075 372.36 133.208 371.96C70.0079 371.693 56.1412 371.96 54.8079 373.426Z" fill="#4F4E4E"/>
<path d="M228.142 372.893C222.275 376.626 229.342 377.026 298.675 377.026C368.009 377.026 375.075 376.626 369.209 372.893C366.809 371.426 230.542 371.426 228.142 372.893Z" fill="#4F4E4E"/>
<path d="M102.675 408.36C101.342 409.96 96.6751 410.36 77.2085 410.36H53.3418V433.693V457.026H78.0085H102.675V436.226C102.675 417.426 102.942 415.16 105.342 412.093C106.808 410.226 108.008 408.093 108.008 407.56C108.008 405.693 104.408 406.226 102.675 408.36ZM91.4751 421.96C88.1418 426.226 83.6085 431.826 81.4751 434.36L77.3418 439.026L70.1418 431.026C64.1418 424.493 62.6751 423.426 62.0085 425.293C61.3418 427.026 63.2085 430.093 68.6751 436.36C72.9418 441.16 77.0751 445.026 77.8751 445.026C78.6751 444.893 82.6751 440.76 86.6751 435.56C90.6751 430.36 95.0751 424.893 96.2751 423.293C98.5418 420.493 98.6751 421.026 98.6751 436.626V453.026H78.0085H57.3418V433.693V414.36H77.4751H97.4751L91.4751 421.96Z" fill="#4F4E4E"/>
<path d="M118.009 433.026C117.609 433.693 118.009 434.76 119.075 435.026C122.275 436.36 147.342 435.16 147.342 433.693C147.342 431.826 119.209 431.16 118.009 433.026Z" fill="#4F4E4E"/>
<path d="M162.275 432.493C159.609 435.16 167.209 435.693 209.475 435.693C250.009 435.693 256.009 435.427 256.009 433.693C256.009 431.96 250.009 431.693 209.609 431.693C184.009 431.693 162.675 432.093 162.275 432.493Z" fill="#4F4E4E"/>
<path d="M270.675 433.693C270.675 435.427 276.008 435.693 310.675 435.693C345.341 435.693 350.675 435.427 350.675 433.693C350.675 431.96 345.341 431.693 310.675 431.693C276.008 431.693 270.675 431.96 270.675 433.693Z" fill="#4F4E4E"/>
<path d="M102.675 483.693C101.342 486.226 99.8751 486.36 77.3418 486.36H53.3418V509.693V533.026L77.7418 532.76L102.008 532.36L102.408 511.826C102.675 493.693 103.075 490.893 105.475 487.56C108.008 483.96 108.008 481.026 105.342 481.026C104.675 481.026 103.475 482.226 102.675 483.693ZM87.7418 502.36C82.5418 508.893 77.7418 514.36 77.3418 514.36C76.9418 514.36 73.6085 511.026 70.1418 507.026C63.7418 499.56 61.3418 498.093 61.3418 501.56C61.3418 503.826 75.6085 521.026 77.3418 521.026C78.0085 521.026 82.2751 516.36 86.8085 510.626C91.3418 505.026 95.8751 499.426 96.9418 498.36C98.4085 496.76 98.6751 499.026 98.6751 512.76V529.026H78.0085H57.3418V509.693V490.36H77.3418H97.3418L87.7418 502.36Z" fill="#4F4E4E"/>
<path d="M118.275 507.16C115.875 509.694 120.542 510.36 138.808 510.36C154.275 510.36 158.808 509.96 158.408 508.627C158.008 507.427 152.408 506.894 138.542 506.627C127.875 506.494 118.808 506.627 118.275 507.16Z" fill="#4F4E4E"/>
<path d="M172.942 507.294C172.409 507.694 172.009 508.627 172.009 509.294C172.009 510.894 295.875 509.96 296.409 508.36C296.675 506.894 174.409 505.694 172.942 507.294Z" fill="#4F4E4E"/>
<rect x="156.009" y="110.693" width="31" height="106" rx="10" fill="#D9D9D9"/>
<rect x="118.009" y="150.693" width="107" height="26" rx="10" fill="#D9D9D9"/>
</svg>
