<svg width="136" height="362" viewBox="0 0 136 362" fill="none" xmlns="http://www.w3.org/2000/svg">
<path d="M93.1264 171.365L91.6194 346.188C91.6194 346.188 82.9534 354.101 69.9544 346.188L63.5924 201.508L57.5214 201.13L50.4824 346.188C50.4824 346.188 39.3844 354.101 28.8184 346.188L30.2054 171.365H93.1264Z" fill="#4B4B60"/>
<path d="M79.5386 202.781L79.5786 204.281L79.5286 204.282L79.5386 202.781ZM79.6586 207.268L79.7266 210.255L79.5006 210.257L79.5086 207.269L79.6586 207.268ZM79.7936 213.242L79.8616 216.229L79.4856 216.233L79.4926 213.245L79.7936 213.242ZM79.9286 219.216L79.9906 222.203L79.4756 222.208L79.4786 219.22L79.9286 219.216ZM80.0436 225.19L80.0966 228.177L79.4906 228.183L79.4836 225.196L80.0436 225.19ZM80.1496 231.165L80.2026 234.152L79.5046 234.159L79.4976 231.171L80.1496 231.165ZM80.2546 237.139L80.3076 240.126L79.5196 240.134L79.5116 237.146L80.2546 237.139ZM80.3606 243.113L80.4016 246.1L79.5456 246.109L79.5266 243.122L80.3606 243.113ZM80.4386 249.088L80.4766 252.075L79.5906 252.084L79.5686 249.096L80.4386 249.088ZM80.5136 255.062L80.5516 258.05L79.6356 258.059L79.6126 255.071L80.5136 255.062ZM80.5886 261.037L80.6266 264.024L79.6806 264.034L79.6576 261.046L80.5886 261.037ZM80.6646 267.012L80.7016 269.999L79.7256 270.009L79.7026 267.021L80.6646 267.012ZM79.7476 272.998L80.7396 272.988L80.7706 275.975L79.7786 275.985L79.7476 272.998ZM80.7926 278.961L80.8146 281.949L79.8516 281.958L79.8146 278.971L80.7926 278.961ZM80.8376 284.936L80.8596 287.923L79.9266 287.933L79.8896 284.946L80.8376 284.936ZM80.8826 290.911L80.9046 293.898L80.0026 293.907L79.9646 290.92L80.8826 290.911ZM80.9266 296.886L80.9496 299.873L80.0776 299.882L80.0396 296.895L80.9266 296.886ZM80.9716 302.861L80.9926 305.848L80.1546 305.857L80.1146 302.869L80.9716 302.861ZM80.9996 308.836L81.0066 311.824L80.2606 311.831L80.2076 308.844L80.9996 308.836ZM81.0136 314.811L81.0206 317.799L80.3666 317.805L80.3136 314.818L81.0136 314.811ZM81.0276 320.786L81.0346 323.774L80.4716 323.78L80.4186 320.792L81.0276 320.786ZM81.0416 326.762L81.0396 329.749L80.5866 329.754L80.5246 326.767L81.0416 326.762ZM81.0326 332.737L81.0246 335.725L80.7216 335.728L80.6546 332.741L81.0326 332.737ZM81.0176 338.713L81.0086 341.7L80.8576 341.702L80.7896 338.715L81.0176 338.713ZM80.9886 344.688L80.9786 346.188L80.9376 344.689L80.9886 344.688Z" fill="#0A0B3F"/>
<path d="M93.6255 183.139H30.6475V176.546H93.6255V183.139Z" fill="#1B1B1E"/>
<path d="M82.3887 74.9689L77.8207 72.7009L52.1007 72.5229L41.8857 74.6499V176.546H80.2397L82.3887 74.9689Z" fill="#2AEC37"/>
<path d="M71.9385 62.4868L72.4405 65.7738L66.6875 78.5278H63.2985L57.4805 65.7738L58.1495 62.9128L71.9385 62.4868Z" fill="#F6C18A"/>
<path d="M64.6804 64.6438C75.6052 64.6438 84.4614 50.7902 84.4614 33.7008C84.4614 16.6115 75.6052 2.75781 64.6804 2.75781C53.7557 2.75781 44.8994 16.6115 44.8994 33.7008C44.8994 50.7902 53.7557 64.6438 64.6804 64.6438Z" fill="#F6C18A"/>
<path d="M88.0497 37.1593C88.6199 34.3892 87.9236 31.905 86.4944 31.6108C85.0652 31.3167 83.4444 33.3239 82.8742 36.094C82.304 38.8642 83.0004 41.3483 84.4295 41.6425C85.8587 41.9367 87.4795 39.9295 88.0497 37.1593Z" fill="#F6C18A"/>
<path d="M78.1028 15.1921C78.1028 15.1921 60.0098 15.4541 60.0178 9.54106C60.0178 9.54106 46.3128 7.02507 48.0078 36.0461C48.0078 36.0461 38.8238 32.4301 40.2378 18.0181C40.2378 18.0181 44.8998 -4.58794 73.0168 1.77006C73.0168 1.77006 90.7818 6.69607 84.4428 32.4201C84.4428 32.4201 79.2928 20.9981 78.1028 15.1921Z" fill="#595857"/>
<path d="M80.0855 31.582C78.9155 31.412 77.8305 31.159 76.7435 31.067C75.6629 30.8881 74.5534 31.0691 73.5855 31.582C73.9022 31.0479 74.4057 30.6503 74.9985 30.466C75.5847 30.2766 76.2046 30.2152 76.8165 30.286C78.0068 30.3989 79.1403 30.8484 80.0845 31.582H80.0855ZM62.0485 31.582C60.8782 31.2599 59.6825 31.0381 58.4745 30.919C57.8941 30.884 57.3115 30.9135 56.7375 31.007C56.1439 31.1292 55.5671 31.3222 55.0195 31.582C55.4176 31.0571 55.9545 30.6539 56.5695 30.418C57.1956 30.1934 57.8606 30.0978 58.5245 30.137C59.8241 30.2267 61.06 30.7335 62.0485 31.582Z" fill="#020202"/>
<path d="M76.4777 39.9887C77.2189 39.9887 77.8197 38.8977 77.8197 37.5517C77.8197 36.2058 77.2189 35.1147 76.4777 35.1147C75.7366 35.1147 75.1357 36.2058 75.1357 37.5517C75.1357 38.8977 75.7366 39.9887 76.4777 39.9887Z" fill="#020202"/>
<path d="M58.5334 39.9887C59.2746 39.9887 59.8754 38.8977 59.8754 37.5517C59.8754 36.2058 59.2746 35.1147 58.5334 35.1147C57.7922 35.1147 57.1914 36.2058 57.1914 37.5517C57.1914 38.8977 57.7922 39.9887 58.5334 39.9887Z" fill="#020202"/>
<path d="M45.8643 43.2696C69.8593 37.7906 83.4953 43.2696 83.4943 43.2696C80.9203 55.6796 73.4713 64.6436 64.6803 64.6436C55.8893 64.6436 48.4403 55.6796 45.8643 43.2696Z" fill="#949698"/>
<path d="M51.3153 42.1745C49.7021 40.5908 48.1943 38.9031 46.8013 37.1225C45.3808 35.3636 44.0783 33.5126 42.9023 31.5815C44.5168 33.1645 46.0248 34.8525 47.4163 36.6345C48.8354 38.3942 50.1378 40.2449 51.3153 42.1745Z" fill="#15529B"/>
<path d="M78.7072 73.1228L71.3642 85.2878L64.9092 78.2238L67.3652 74.6758L77.8202 72.6758L78.7072 73.1228Z" fill="#3CA04D"/>
<path d="M50.9824 72.7557L52.9154 72.3677L62.5554 74.6757L65.0114 78.2237L58.5554 85.2877L50.9824 72.7557Z" fill="#3CA04D"/>
<path d="M62.3315 83.7177L57.5215 147.628L63.1165 153.186L69.6645 147.817L68.4285 82.9897L62.3315 83.7177Z" fill="#C0E2C6"/>
<path d="M68.4424 83.7617L65.0114 86.9048L62.2764 84.4527L62.3314 83.7177L68.4284 82.9897L68.4424 83.7617Z" fill="#A2CCA9"/>
<path d="M24.3735 86.4946C24.0092 86.0655 23.5048 85.779 22.9497 85.6858C22.3945 85.5927 21.8243 85.6988 21.3398 85.9854C20.8553 86.2721 20.4878 86.7208 20.3022 87.2522C20.1166 87.7837 20.1248 88.3636 20.3255 88.8896C23.5355 97.2156 28.0985 112.265 29.4315 133.008C30.5557 151.481 28.8298 170.018 24.3145 187.967L11.7275 238.714L53.9425 240.974L50.9275 135.007C50.9275 135.007 35.5285 99.9226 24.3735 86.4946ZM102.519 84.5206C102.519 84.5206 93.9565 102.27 93.3315 135.941C93.0529 153.816 95.1171 171.651 99.4715 188.991L111.804 238.714L69.5895 240.974L72.6035 135.007C72.6035 135.007 92.8365 82.8966 102.519 84.5206Z" fill="#F4F4F4"/>
<path d="M82.3887 74.9688C82.3887 74.9688 102.519 78.5288 118.559 101.097L121.009 76.6537H135.326V126.152C135.326 126.152 128.936 148.005 97.2787 103.828L82.3887 74.9688Z" fill="#F4F4F4"/>
<path d="M127.706 72.6497C127.55 71.4789 127.082 70.3715 126.351 69.4436C125.62 68.5158 124.653 67.8015 123.552 67.3757C123.552 67.3757 129.768 65.3977 130.239 62.8537C130.361 62.4641 130.339 62.0433 130.177 61.6686C130.014 61.294 129.722 60.9904 129.354 60.8137C128.967 60.6321 128.54 60.5545 128.114 60.5883C127.688 60.6222 127.278 60.7663 126.925 61.0067L119.595 65.7737C119.595 68.979 120.464 72.1244 122.111 74.8747L123.175 76.6537H132.312C138.717 69.4477 134.384 60.5937 134.384 60.5937C133.159 58.0497 131.087 58.9917 131.087 58.9917C130.733 58.4742 130.197 58.1092 129.586 57.9696C128.974 57.83 128.333 57.9261 127.79 58.2387C126.943 56.2607 124.494 57.5787 124.494 57.5787C125.059 42.2257 121.95 46.5587 121.95 46.5587L120.82 59.7457L119.595 65.7737" fill="#77787A"/>
<path d="M127.706 72.6495C127.521 71.4946 127.019 70.4133 126.258 69.5255C125.5 68.6668 124.545 68.0048 123.475 67.5965C123.429 67.5799 123.39 67.5497 123.363 67.5101C123.335 67.4705 123.32 67.4233 123.32 67.375C123.32 67.3267 123.335 67.2796 123.363 67.24C123.39 67.2004 123.429 67.1702 123.475 67.1535L123.48 67.1515C124.786 66.6901 126.047 66.11 127.248 65.4185C127.837 65.084 128.392 64.6925 128.905 64.2495C129.401 63.8667 129.751 63.3258 129.898 62.7165C129.972 62.4438 129.959 62.1544 129.861 61.8894C129.762 61.6244 129.583 61.3971 129.348 61.2395C129.095 61.0876 128.811 60.9945 128.518 60.9671C128.224 60.9397 127.928 60.9789 127.652 61.0815C127.355 61.1984 127.076 61.3531 126.819 61.5415L125.933 62.1095L124.16 63.2445L120.616 65.5145L120.173 65.7975L119.951 65.9395L119.841 66.0105L119.785 66.0465L119.778 66.0505C119.742 66.1125 120.062 65.5285 119.928 65.7805V65.8285C119.923 66.1725 119.926 66.5165 119.94 66.8615C119.969 67.5513 120.038 68.2388 120.148 68.9205C120.373 70.2897 120.752 71.6291 121.277 72.9135C121.842 74.1935 122.475 75.442 123.175 76.6535C122.361 75.5028 121.628 74.2969 120.981 73.0445C120.36 71.7645 119.906 70.4105 119.628 69.0155C119.485 68.3167 119.383 67.6102 119.323 66.8995C119.293 66.5445 119.275 66.1875 119.265 65.8295V65.7965L119.264 65.7795C119.13 66.0255 119.446 65.4355 119.417 65.4945L119.424 65.4905L119.478 65.4535L119.588 65.3815L119.808 65.2365L120.247 64.9465L123.759 62.6265L125.515 61.4665L126.393 60.8865C126.702 60.6592 127.042 60.478 127.403 60.3485C127.789 60.2133 128.201 60.167 128.608 60.2131C129.015 60.2591 129.406 60.3964 129.753 60.6145C130.121 60.8486 130.398 61.2014 130.539 61.6145C130.66 62.0079 130.683 62.4253 130.605 62.8295C130.426 63.5978 129.987 64.2806 129.362 64.7615C128.809 65.233 128.207 65.6421 127.565 65.9815C126.303 66.6402 124.984 67.1815 123.623 67.5985L123.628 67.1535C124.756 67.6181 125.739 68.378 126.472 69.3535C126.838 69.8281 127.128 70.3563 127.333 70.9195C127.537 71.476 127.663 72.0583 127.706 72.6495Z" fill="#989898"/>
<path d="M91.6194 346.188L100.487 350.828C102.488 351.886 104.791 352.224 107.01 351.786C111.564 350.866 119.503 350.301 119.971 357.397H70.6154C70.6154 357.397 68.7314 347.884 69.9554 346.188H91.6194Z" fill="#2F2A26"/>
<path d="M119.971 361.072H70.6143V357.398H119.971V361.072Z" fill="#1B1B1E"/>
<path d="M28.8188 346.188L19.9508 350.828C17.9505 351.886 15.6477 352.224 13.4278 351.786C8.8738 350.866 0.934797 350.301 0.466797 357.397H49.8238C49.8238 357.397 51.7078 347.884 50.4838 346.188H28.8188Z" fill="#2F2A26"/>
<path d="M0.466797 357.397H49.8238V361.071H0.466797V357.397Z" fill="#1B1B1E"/>
<path d="M56.2969 140.47C56.2969 140.47 60.2539 139.34 67.9769 133.405L72.7269 131.557C72.7269 131.557 71.2739 136.985 68.6369 138.492L65.9989 139.999L56.2969 140.47Z" fill="#15529B"/>
<path d="M43.4508 42.1867C44.9919 41.9573 45.889 39.4066 45.4547 36.4895C45.0205 33.5725 43.4192 31.3937 41.8781 31.6232C40.3371 31.8526 39.44 34.4033 39.8742 37.3204C40.3085 40.2374 41.9098 42.4162 43.4508 42.1867Z" fill="#F6C18A"/>
<path d="M52.1006 72.5229L57.4806 65.7739L65.0116 76.6539L58.5556 83.7179L52.1006 72.5229Z" fill="#2AEC37"/>
<path d="M77.8202 72.6759L72.4402 65.7739L64.9092 76.6539L71.3642 83.7179L77.8202 72.6759Z" fill="#2AEC37"/>
<path d="M69.6648 81.8578L65.0118 86.1198L60.2568 81.8578L65.0118 76.6538L69.6648 81.8578Z" fill="#C0E2C6"/>
<path d="M82.389 74.9688L99.975 91.8188L91.144 91.1738L95.664 101.704L72.604 135.007C72.604 135.007 72.256 120.559 82.389 74.9688Z" fill="#CECECE"/>
<path d="M72.4033 65.5C80.7713 67.4 86.6973 71.661 90.0493 78.192C97.1063 91.929 91.0693 112.306 88.1343 120.462C87.8026 121.405 87.4464 122.339 87.0663 123.264C86.8863 123.734 86.7763 123.994 86.7603 124.017L88.1973 124.645C88.2363 124.567 88.3223 124.355 88.4563 124.033C88.7063 123.436 89.0993 122.447 89.5863 121.144C92.6083 112.903 98.9113 92.023 91.4463 77.478C87.8203 70.406 81.2263 65.821 72.1523 63.875L72.4033 65.5Z" fill="#020C17"/>
<path d="M86.2834 132.446C89.67 132.446 92.4154 129.7 92.4154 126.314C92.4154 122.927 89.67 120.182 86.2834 120.182C82.8968 120.182 80.1514 122.927 80.1514 126.314C80.1514 129.7 82.8968 132.446 86.2834 132.446Z" fill="#9CEFAA"/>
<path d="M86.2839 129.469C88.0264 129.469 89.4389 128.056 89.4389 126.314C89.4389 124.571 88.0264 123.159 86.2839 123.159C84.5414 123.159 83.1289 124.571 83.1289 126.314C83.1289 128.056 84.5414 129.469 86.2839 129.469Z" fill="#167FFC"/>
<path d="M59.2168 168.728H96.3298L112.908 105.43L75.2298 102.738L59.2168 168.728Z" fill="#EFBB84"/>
<path d="M55.3073 140.47L76.0503 139.525C76.6398 139.491 77.2289 139.596 77.7701 139.832C78.3113 140.068 78.7896 140.428 79.1662 140.883C79.5428 141.337 79.8073 141.874 79.9383 142.45C80.0693 143.025 80.0631 143.624 79.9203 144.197C78.7383 148.541 72.6303 153.48 54.0273 151.007L55.3073 140.47Z" fill="#77787A"/>
<path d="M29.3369 131.685L50.9509 135.805L51.3249 148.938C42.6879 148.574 35.6049 148.03 29.7889 147.378C29.9045 142.142 29.7536 136.904 29.3369 131.684V131.685Z" fill="#CECECE"/>
<path d="M29.541 134.905L51.086 140.551L51.459 153.654C42.706 153.287 35.586 151.564 29.719 150.903C29.942 144.823 29.829 140.269 29.541 134.905Z" fill="#CECECE"/>
<path d="M41.8854 74.6499L34.1654 76.1099C29.5529 76.9317 25.1857 78.7852 21.3903 81.5321C17.5949 84.279 14.4694 87.8482 12.2474 91.9729C11.7921 92.8449 11.3767 93.7409 11.0014 94.6609C5.8654 107.274 -1.66861 124.22 0.329395 138.219C0.46567 139.197 0.821652 140.132 1.37065 140.953C1.91964 141.775 2.64741 142.461 3.4994 142.961C8.1664 145.661 20.6594 149.798 53.9424 151.396L55.4494 139.339L20.2204 130.109L26.2494 113.342L35.4694 101.662L41.8854 74.6499Z" fill="#F4F4F4"/>
<path d="M41.8854 74.6499L27.5674 90.9249H36.4224L31.1474 101.098L50.9274 135.008C50.9274 135.008 53.5654 120.241 41.8854 74.6509V74.6499Z" fill="#CECECE"/>
<path d="M57.4906 65.7349C54.9936 66.5279 45.4726 70.0989 45.1196 78.6239L43.5576 78.5609C43.9886 67.9169 56.7126 64.3539 57.8826 64.0469L57.4906 65.7349Z" fill="#020D19"/>
<path d="M31.4208 117.266C30.9408 117.265 30.463 117.199 30.0008 117.07C29.8061 117.009 29.6426 116.875 29.5449 116.696C29.4473 116.517 29.4233 116.307 29.4779 116.11C29.5325 115.913 29.6614 115.746 29.8374 115.643C30.0135 115.54 30.2227 115.509 30.4208 115.558C32.8948 116.246 35.3758 114.241 37.5408 111.351C36.3447 108.105 35.476 104.749 34.9478 101.331C34.8638 100.616 33.0948 84.7906 38.9518 79.6796C39.8475 78.9228 40.9207 78.4061 42.0708 78.1778C43.2209 77.9495 44.4101 78.0173 45.5268 78.3746C45.8823 78.414 46.2252 78.529 46.5325 78.7118C46.8399 78.8946 47.1045 79.1411 47.3088 79.4346C49.3838 82.1426 48.6368 89.0696 45.0888 100.025C43.6395 104.084 41.7059 107.953 39.3298 111.55C40.3798 113.917 41.3648 114.905 42.0358 115.314C42.1822 115.426 42.3499 115.507 42.5287 115.553C42.7074 115.598 42.8936 115.607 43.0758 115.579C43.27 115.516 43.4806 115.53 43.6648 115.617C43.8491 115.705 43.9932 115.859 44.0678 116.049C44.1414 116.234 44.1397 116.441 44.0631 116.626C43.9866 116.81 43.8412 116.958 43.6578 117.037C43.283 117.159 42.8857 117.198 42.4943 117.149C42.1029 117.1 41.7271 116.965 41.3938 116.755C39.9939 115.837 38.9019 114.52 38.2598 112.975C36.2658 115.44 33.9398 117.265 31.4208 117.266ZM43.2818 79.6486C42.0696 79.6249 40.8927 80.0579 39.9848 80.8616C34.7468 85.4316 36.4838 100.949 36.5008 101.106C36.9708 104.051 37.6832 106.953 38.6308 109.782C40.6575 106.555 42.3238 103.115 43.5998 99.5246C48.1128 85.5936 46.8698 81.5646 46.1268 80.4786C45.7748 79.9646 45.4288 79.9396 45.4138 79.9386C45.347 79.9414 45.2801 79.9333 45.2158 79.9146C44.5849 79.745 43.9351 79.6556 43.2818 79.6486Z" fill="#011304"/>
<path d="M44.6343 117.774C45.5903 117.774 46.3653 116.999 46.3653 116.043C46.3653 115.087 45.5903 114.312 44.6343 114.312C43.6783 114.312 42.9033 115.087 42.9033 116.043C42.9033 116.999 43.6783 117.774 44.6343 117.774Z" fill="#15529B"/>
<path d="M29.8706 117.576C30.8266 117.576 31.6016 116.801 31.6016 115.845C31.6016 114.889 30.8266 114.114 29.8706 114.114C28.9146 114.114 28.1396 114.889 28.1396 115.845C28.1396 116.801 28.9146 117.576 29.8706 117.576Z" fill="#15529B"/>
<path d="M75.6925 44.2036C74.2806 45.0018 72.7714 45.6142 71.2025 46.0256C69.628 46.4566 68.0082 46.7006 66.3765 46.7526C64.7385 46.8111 63.1008 46.6271 61.5165 46.2066C59.9403 45.7953 58.4458 45.1179 57.0975 44.2036C57.8715 44.4546 58.5655 44.8586 59.3515 45.0316L60.4875 45.3816L61.6505 45.6176C63.2011 45.9053 64.7784 46.023 66.3545 45.9686C67.936 45.9171 69.5109 45.7406 71.0645 45.4406C71.8445 45.2916 72.6225 45.1146 73.3905 44.8976C74.1695 44.7126 74.9275 44.4596 75.6925 44.2036ZM74.3505 50.3846C73.127 51.3843 71.7362 52.1596 70.2425 52.6746C68.7367 53.2147 67.1438 53.471 65.5445 53.4306C64.7434 53.4053 63.9462 53.3079 63.1625 53.1396C62.3859 52.9478 61.6312 52.676 60.9105 52.3286C60.1916 51.9933 59.5056 51.5916 58.8615 51.1286C58.2431 50.6455 57.6541 50.1259 57.0975 49.5726C58.3524 50.4679 59.7117 51.2067 61.1455 51.7726C62.5545 52.3269 64.0517 52.6229 65.5655 52.6466C67.0837 52.6838 68.5993 52.4999 70.0645 52.1006C70.8059 51.9025 71.5335 51.656 72.2425 51.3626C72.967 51.0858 73.6713 50.759 74.3505 50.3846ZM73.1255 56.4486C70.7471 58.1668 67.9127 59.1412 64.9805 59.2486C63.4998 59.2897 62.027 59.0192 60.6575 58.4546C59.3045 57.8984 58.0894 57.053 57.0975 55.9776C57.6873 56.3779 58.2993 56.7445 58.9305 57.0756L59.8705 57.5486L60.8635 57.8886C62.1894 58.3069 63.5758 58.5013 64.9655 58.4636C66.3645 58.4217 67.7542 58.2225 69.1085 57.8696C69.7958 57.7 70.4726 57.4907 71.1355 57.2426C71.8124 57.0132 72.4767 56.7482 73.1255 56.4486ZM100.097 236.17L98.9255 236.308C98.9153 236.31 98.9046 236.31 98.8943 236.308C98.8839 236.306 98.8741 236.302 98.8654 236.296C98.8568 236.29 98.8495 236.282 98.8441 236.273C98.8386 236.264 98.8352 236.254 98.8339 236.244C98.8326 236.233 98.8336 236.223 98.8367 236.212C98.8398 236.202 98.845 236.193 98.8519 236.185C98.8589 236.177 98.8674 236.171 98.877 236.166C98.8866 236.162 98.897 236.16 98.9075 236.16H98.9175L100.097 236.17ZM96.5935 236.55L94.2595 236.75C94.1894 236.756 94.1197 236.733 94.0659 236.688C94.0121 236.643 93.9785 236.578 93.9725 236.508C93.9666 236.437 93.9887 236.368 94.0341 236.314C94.0795 236.26 94.1444 236.227 94.2145 236.221H94.2305L96.5725 236.168C96.6206 236.169 96.6663 236.189 96.7007 236.222C96.7351 236.256 96.7556 236.301 96.7583 236.349C96.7609 236.397 96.7454 236.444 96.715 236.481C96.6845 236.519 96.6411 236.543 96.5935 236.55ZM91.9255 236.943L89.5885 237.092C89.4962 237.094 89.4066 237.061 89.3384 236.998C89.2702 236.936 89.2288 236.85 89.2228 236.758C89.2169 236.666 89.2468 236.575 89.3065 236.504C89.3661 236.434 89.4507 236.389 89.5425 236.38H89.5505L91.8895 236.278C91.9773 236.274 92.063 236.304 92.1281 236.363C92.1932 236.422 92.2324 236.505 92.2371 236.592C92.2419 236.68 92.2118 236.766 92.1534 236.832C92.0951 236.897 92.0132 236.937 91.9255 236.943ZM87.2515 237.241C86.4725 237.295 85.6935 237.339 84.9135 237.367C84.8157 237.367 84.7214 237.33 84.6502 237.263C84.579 237.196 84.5363 237.104 84.531 237.006C84.5257 236.908 84.5583 236.812 84.6219 236.738C84.6854 236.664 84.7752 236.617 84.8725 236.607C85.6511 236.552 86.4306 236.51 87.2105 236.482C87.3112 236.476 87.4098 236.511 87.4847 236.579C87.5597 236.646 87.6047 236.74 87.61 236.841C87.6154 236.942 87.5805 237.04 87.513 237.115C87.4456 237.19 87.3512 237.235 87.2505 237.241H87.2515ZM82.5745 237.469L80.2345 237.571C80.1908 237.573 80.1471 237.567 80.1058 237.552C80.0645 237.537 80.0265 237.515 79.9939 237.485C79.9614 237.456 79.9349 237.421 79.9161 237.381C79.8972 237.342 79.8863 237.299 79.884 237.255C79.8817 237.211 79.8881 237.168 79.9027 237.126C79.9173 237.085 79.9399 237.047 79.9692 237.015C79.9985 236.982 80.0339 236.956 80.0734 236.937C80.113 236.918 80.1558 236.907 80.1995 236.905L82.5355 236.755C82.5824 236.752 82.6294 236.758 82.6739 236.773C82.7184 236.788 82.7594 236.812 82.7947 236.843C82.83 236.874 82.8588 236.912 82.8796 236.954C82.9003 236.996 82.9125 237.042 82.9155 237.089C82.9186 237.136 82.9123 237.183 82.8972 237.227C82.882 237.271 82.8583 237.312 82.8272 237.348C82.7962 237.383 82.7586 237.412 82.7164 237.433C82.6742 237.453 82.6284 237.466 82.5815 237.469H82.5745ZM77.8935 237.629L75.5515 237.681C75.5033 237.679 75.4575 237.659 75.423 237.625C75.3886 237.591 75.3682 237.546 75.3657 237.498C75.3632 237.45 75.3788 237.402 75.4095 237.365C75.4402 237.328 75.4837 237.303 75.5315 237.297L77.8645 237.097C77.8994 237.094 77.9345 237.098 77.9678 237.108C78.0012 237.119 78.0321 237.136 78.0589 237.158C78.0856 237.181 78.1076 237.209 78.1237 237.24C78.1398 237.271 78.1496 237.305 78.1525 237.34C78.1555 237.374 78.1516 237.41 78.1409 237.443C78.1303 237.476 78.1132 237.507 78.0907 237.534C78.0681 237.561 78.0405 237.583 78.0094 237.599C77.9783 237.615 77.9444 237.625 77.9095 237.628L77.8935 237.629ZM73.2065 237.689L72.0265 237.678L73.1985 237.54C73.2183 237.537 73.2382 237.543 73.2539 237.555C73.2695 237.567 73.2797 237.585 73.282 237.605C73.2844 237.625 73.2789 237.645 73.2666 237.66C73.2543 237.676 73.2363 237.686 73.2165 237.689H73.2065ZM51.3955 237.895L50.2155 237.887C50.205 237.888 50.1944 237.887 50.1844 237.883C50.1743 237.88 50.1651 237.874 50.1573 237.867C50.1495 237.86 50.1433 237.851 50.1391 237.842C50.1349 237.832 50.1328 237.822 50.133 237.811C50.1331 237.8 50.1355 237.79 50.1399 237.78C50.1444 237.771 50.1508 237.762 50.1588 237.755C50.1668 237.748 50.1762 237.743 50.1863 237.74C50.1964 237.737 50.207 237.736 50.2175 237.738H50.2255L51.3955 237.895ZM47.8725 237.842L45.5325 237.754C45.4977 237.752 45.4635 237.744 45.4319 237.73C45.4002 237.715 45.3718 237.694 45.3481 237.669C45.3244 237.643 45.306 237.613 45.2939 237.581C45.2818 237.548 45.2762 237.513 45.2775 237.479C45.2789 237.444 45.287 237.41 45.3015 237.378C45.3161 237.346 45.3367 237.318 45.3622 237.294C45.3878 237.27 45.4177 237.252 45.4504 237.24C45.483 237.228 45.5177 237.222 45.5525 237.224L45.5685 237.225L47.8985 237.46C47.9464 237.467 47.9899 237.491 48.0203 237.529C48.0507 237.567 48.0658 237.614 48.0625 237.663C48.0592 237.711 48.0378 237.756 48.0026 237.789C47.9674 237.823 47.9209 237.841 47.8725 237.842ZM43.1915 237.66L40.8535 237.522C40.8053 237.521 40.7576 237.511 40.7135 237.491C40.6694 237.472 40.6297 237.443 40.5968 237.408C40.5639 237.373 40.5385 237.331 40.5222 237.285C40.5058 237.24 40.4989 237.192 40.5017 237.144C40.5045 237.095 40.5171 237.048 40.5387 237.005C40.5603 236.962 40.5904 236.924 40.6272 236.892C40.664 236.861 40.7067 236.838 40.7529 236.823C40.799 236.809 40.8475 236.805 40.8955 236.81H40.9025L43.2375 236.996C43.3234 237.005 43.4024 237.047 43.4579 237.113C43.5134 237.179 43.5411 237.264 43.5351 237.35C43.5291 237.436 43.49 237.516 43.4259 237.574C43.3618 237.632 43.2778 237.663 43.1915 237.66ZM38.5155 237.385C37.7364 237.343 36.9579 237.29 36.1805 237.223C36.0815 237.213 35.99 237.166 35.9256 237.09C35.8611 237.014 35.8288 236.916 35.8356 236.817C35.8424 236.718 35.8877 236.625 35.9619 236.559C36.0361 236.493 36.1332 236.458 36.2325 236.463C37.0121 236.504 37.7908 236.558 38.5685 236.625C38.6692 236.631 38.763 236.678 38.8293 236.754C38.8956 236.83 38.9289 236.929 38.922 237.03C38.9151 237.131 38.8685 237.225 38.7925 237.291C38.7165 237.357 38.6172 237.391 38.5165 237.384L38.5155 237.385ZM33.8455 237.038L31.5115 236.852C31.4234 236.845 31.3413 236.804 31.2833 236.738C31.2254 236.671 31.1963 236.584 31.2025 236.496C31.2088 236.407 31.2498 236.325 31.3165 236.267C31.3833 236.209 31.4704 236.18 31.5585 236.187L33.8955 236.325C33.9901 236.33 34.0786 236.373 34.1415 236.444C34.2044 236.515 34.2366 236.608 34.231 236.702C34.2255 236.797 34.1826 236.885 34.1118 236.948C34.041 237.011 33.9481 237.043 33.8535 237.038H33.8455ZM29.1805 236.624L26.8505 236.389C26.8004 236.384 26.7541 236.36 26.7215 236.322C26.6888 236.283 26.6725 236.234 26.6758 236.183C26.6792 236.133 26.7021 236.086 26.7396 236.053C26.7771 236.019 26.8262 236.001 26.8765 236.004L29.2175 236.093C29.2525 236.094 29.2868 236.102 29.3186 236.117C29.3503 236.131 29.3789 236.152 29.4027 236.178C29.4265 236.203 29.445 236.233 29.4571 236.266C29.4693 236.299 29.4749 236.334 29.4735 236.369C29.4722 236.404 29.464 236.438 29.4495 236.47C29.4349 236.501 29.4142 236.53 29.3886 236.554C29.3629 236.578 29.3329 236.596 29.3001 236.608C29.2673 236.62 29.2325 236.626 29.1975 236.625L29.1805 236.624ZM24.5225 236.11L23.3525 235.954L24.5325 235.96C24.5524 235.96 24.5715 235.968 24.5856 235.982C24.5996 235.996 24.6075 236.015 24.6075 236.035C24.6075 236.054 24.5996 236.074 24.5856 236.088C24.5715 236.102 24.5524 236.11 24.5325 236.11H24.5225ZM53.2355 140.311C53.2919 140.839 53.3196 141.37 53.3185 141.901C53.318 141.937 53.3097 141.974 53.2942 142.007C53.2787 142.041 53.2564 142.071 53.2287 142.095C53.201 142.119 53.1685 142.137 53.1333 142.148C53.0981 142.159 53.061 142.163 53.0244 142.159C52.9878 142.154 52.9525 142.143 52.9207 142.124C52.8889 142.105 52.8614 142.08 52.84 142.05C52.8185 142.02 52.8035 141.986 52.7961 141.95C52.7886 141.914 52.7887 141.877 52.7965 141.841C52.9156 141.323 53.0615 140.812 53.2355 140.311ZM53.2525 143.473C53.209 143.994 53.1514 144.514 53.0795 145.033C53.0681 145.133 53.0174 145.224 52.9384 145.287C52.8595 145.35 52.7588 145.379 52.6585 145.368C52.5583 145.356 52.4667 145.305 52.4038 145.226C52.341 145.148 52.3121 145.047 52.3235 144.947C52.3655 144.425 52.4355 143.907 52.5065 143.388C52.5227 143.293 52.5746 143.208 52.6514 143.15C52.7282 143.093 52.8243 143.067 52.9197 143.077C53.0152 143.088 53.1029 143.135 53.1648 143.209C53.2267 143.282 53.2581 143.377 53.2525 143.473ZM52.8095 146.583C52.7009 147.101 52.5654 147.613 52.4035 148.117C52.3989 148.129 52.3901 148.14 52.3786 148.147C52.367 148.154 52.3534 148.157 52.34 148.156C52.3266 148.154 52.3141 148.148 52.3045 148.138C52.295 148.129 52.289 148.116 52.2875 148.103C52.2437 147.575 52.227 147.046 52.2375 146.518C52.2368 146.478 52.244 146.44 52.2588 146.403C52.2736 146.367 52.2956 146.334 52.3234 146.307C52.3513 146.279 52.3844 146.257 52.4209 146.243C52.4574 146.229 52.4964 146.222 52.5355 146.223C52.5746 146.225 52.6131 146.234 52.6486 146.25C52.6841 146.267 52.7159 146.29 52.742 146.32C52.7681 146.349 52.788 146.383 52.8004 146.42C52.8129 146.457 52.8177 146.497 52.8145 146.536C52.8141 146.551 52.8125 146.567 52.8095 146.583ZM132.5 79.8146C131.977 79.9196 131.453 80.0016 130.93 80.0566C130.865 80.0632 130.801 80.0441 130.751 80.0034C130.701 79.9627 130.669 79.9038 130.663 79.8396C130.656 79.7754 130.675 79.7112 130.716 79.6612C130.756 79.6111 130.815 79.5792 130.88 79.5726C130.896 79.571 130.913 79.571 130.93 79.5726C131.453 79.6266 131.977 79.7086 132.5 79.8146ZM129.36 80.1726C128.837 80.2016 128.314 80.2016 127.79 80.2036C127.738 80.2038 127.688 80.1939 127.64 80.1745C127.593 80.1551 127.55 80.1265 127.513 80.0904C127.477 80.0544 127.448 80.0115 127.428 79.9642C127.409 79.917 127.398 79.8663 127.398 79.8151C127.398 79.7639 127.408 79.7131 127.427 79.6658C127.447 79.6184 127.475 79.5752 127.511 79.5389C127.547 79.5025 127.59 79.4737 127.637 79.4539C127.685 79.4341 127.735 79.4238 127.787 79.4236H127.79C128.314 79.4266 128.837 79.4266 129.36 79.4556C129.451 79.4605 129.538 79.5003 129.601 79.567C129.664 79.6337 129.7 79.7222 129.7 79.8141C129.7 79.9061 129.664 79.9945 129.601 80.0612C129.538 80.1279 129.451 80.1678 129.36 80.1726ZM126.22 80.1546C125.696 80.1253 125.173 80.0786 124.65 80.0146C124.601 80.0086 124.556 79.9849 124.523 79.948C124.49 79.911 124.472 79.8634 124.472 79.8141C124.472 79.7648 124.49 79.7172 124.523 79.6803C124.556 79.6433 124.601 79.6196 124.65 79.6136C125.173 79.5503 125.696 79.5036 126.22 79.4736C126.264 79.4711 126.309 79.4773 126.351 79.4921C126.394 79.5068 126.433 79.5297 126.466 79.5596C126.499 79.5894 126.527 79.6255 126.546 79.6658C126.566 79.7061 126.577 79.7499 126.58 79.7946C126.582 79.8393 126.576 79.8841 126.561 79.9264C126.546 79.9687 126.523 80.0077 126.494 80.0411C126.464 80.0745 126.428 80.1018 126.387 80.1212C126.347 80.1407 126.303 80.1521 126.259 80.1546C126.246 80.1553 126.233 80.1553 126.22 80.1546Z" fill="#3D3D3D"/>
<path d="M85.4619 35.115C85.6709 35.2852 85.8385 35.5007 85.9521 35.7451C86.0658 35.9895 86.1225 36.2565 86.1179 36.526C86.1099 36.7977 86.0494 37.0653 85.9399 37.314C85.8308 37.5566 85.6672 37.7709 85.4619 37.94C85.6006 37.4806 85.6776 37.0047 85.6909 36.525C85.6907 36.0457 85.614 35.5696 85.4619 35.115ZM42.6649 34.479C42.4619 35.2064 42.3569 35.9578 42.3529 36.713C42.3474 37.0795 42.3946 37.4449 42.4929 37.798C42.5932 38.1643 42.7306 38.5195 42.9029 38.858C42.5904 38.6034 42.3435 38.2777 42.1829 37.908C42.0234 37.5313 41.9363 37.1279 41.9259 36.719C41.9195 35.9114 42.1792 35.1242 42.6649 34.479Z" fill="#E8B37C"/>
<path d="M53.9424 200.081C55.549 199.574 57.1113 198.936 58.6134 198.173C60.0933 197.424 61.4897 196.52 62.7794 195.477C64.0719 194.45 65.2116 193.243 66.1644 191.895C67.1303 190.521 67.9337 189.04 68.5584 187.481C68.2928 189.191 67.7022 190.834 66.8184 192.321L66.4944 192.89L66.1034 193.412C65.8344 193.755 65.5904 194.121 65.2994 194.445C64.7154 195.094 64.0836 195.698 63.4094 196.252C62.055 197.343 60.5475 198.228 58.9354 198.88C57.3441 199.539 55.6593 199.944 53.9424 200.081Z" fill="#0A0B3F"/>
</svg>
