<svg width="777" height="111" viewBox="0 0 777 111" fill="none" xmlns="http://www.w3.org/2000/svg">
<path d="M341.309 20H341.098C332.7 20 325.273 23.8334 321.001 29.4901C316.729 23.8334 309.302 20 300.905 20H300.694C294.391 20.0518 288.367 22.2471 283.931 26.1089C279.494 29.9706 277.003 35.1868 277 40.6237C277 47.3753 280.428 56.9552 287.112 64.8381C299.846 79.8586 321.001 93 321.001 93C321.001 93 342.156 79.861 354.888 64.8381C361.575 56.9552 365 47.3753 365 40.6237C364.997 35.1872 362.506 29.9714 358.07 26.1097C353.634 22.248 347.611 20.0524 341.309 20ZM338.29 65.9937C337.333 65.9906 336.4 65.738 335.613 65.2692C334.826 64.8004 334.222 64.1373 333.88 63.3669H328.859C328.528 63.3651 328.207 63.2743 327.939 63.1072C327.671 62.9401 327.47 62.7049 327.365 62.4346L325.822 58.4264L320.942 73.1362C320.847 73.4193 320.648 73.6682 320.375 73.8455C320.102 74.0228 319.77 74.1189 319.428 74.1194H319.33C318.973 74.1045 318.633 73.9846 318.367 73.7795C318.101 73.5745 317.924 73.2968 317.866 72.9929L312.837 46.8995L309.162 62.34C309.077 62.6333 308.882 62.8938 308.606 63.0799C308.33 63.2661 307.989 63.3671 307.639 63.3669H300.567C300.355 63.3746 300.143 63.3453 299.945 63.2806C299.746 63.216 299.565 63.1174 299.412 62.9907C299.258 62.864 299.137 62.7119 299.053 62.5436C298.97 62.3752 298.927 62.194 298.927 62.011C298.927 61.8279 298.97 61.6468 299.053 61.4784C299.137 61.3101 299.258 61.158 299.412 61.0313C299.565 60.9046 299.746 60.806 299.945 60.7413C300.143 60.6767 300.355 60.6474 300.567 60.6551H306.401L311.607 39.8954C311.693 39.5885 311.899 39.3167 312.191 39.1265C312.483 38.9363 312.843 38.8396 313.208 38.8527C313.574 38.8659 313.923 38.9883 314.196 39.1988C314.468 39.4094 314.648 39.6951 314.703 40.0071L319.839 66.6249L324.212 53.4641C324.304 53.1869 324.496 52.9426 324.761 52.7676C325.027 52.5925 325.35 52.4962 325.684 52.493H325.715C326.046 52.4931 326.368 52.5833 326.636 52.7507C326.904 52.9181 327.104 53.1542 327.207 53.4253L329.996 60.6624H333.818C334.089 59.9502 334.584 59.3167 335.247 58.8317C335.909 58.3467 336.715 58.0291 337.573 57.9139C338.432 57.7987 339.311 57.8905 340.113 58.1791C340.916 58.4676 341.61 58.9418 342.119 59.5491C342.629 60.1565 342.934 60.8735 343.001 61.6211C343.068 62.3686 342.894 63.1175 342.499 63.7852C342.103 64.4529 341.502 65.0134 340.761 65.4048C340.019 65.7963 339.167 66.0034 338.298 66.0034L338.29 65.9937Z" fill="#14D606"/>
<path d="M375.068 93V23.1818H402.614C407.909 23.1818 412.42 24.1932 416.148 26.2159C419.875 28.2159 422.716 31 424.67 34.5682C426.648 38.1136 427.636 42.2045 427.636 46.8409C427.636 51.4773 426.636 55.5682 424.636 59.1136C422.636 62.6591 419.739 65.4205 415.943 67.3977C412.17 69.375 407.602 70.3636 402.239 70.3636H384.682V58.5341H399.852C402.693 58.5341 405.034 58.0455 406.875 57.0682C408.739 56.0682 410.125 54.6932 411.034 52.9432C411.966 51.1705 412.432 49.1364 412.432 46.8409C412.432 44.5227 411.966 42.5 411.034 40.7727C410.125 39.0227 408.739 37.6705 406.875 36.7159C405.011 35.7386 402.648 35.25 399.784 35.25H389.83V93H375.068ZM434.565 35.3523V23.1818H491.906V35.3523H470.531V93H455.94V35.3523H434.565ZM516.111 23.1818V93H501.349V23.1818H516.111ZM528.256 23.1818H546.46L565.688 70.0909H566.506L585.733 23.1818H603.938V93H589.619V47.5568H589.04L570.972 92.6591H561.222L543.153 47.3864H542.574V93H528.256V23.1818ZM630.861 23.1818V93H616.099V23.1818H630.861ZM642.256 93V84.2386L677.097 35.3523H642.188V23.1818H695.642V31.9432L660.767 80.8295H695.71V93H642.256ZM707.037 93V23.1818H754.082V35.3523H721.798V51.9886H751.662V64.1591H721.798V80.8295H754.219V93H707.037Z" fill="black"/>
<path d="M63.9545 45H57.5455C57.0682 42.6136 56.2045 40.4091 54.9545 38.3864C53.7273 36.3409 52.1818 34.5568 50.3182 33.0341C48.4545 31.5114 46.3409 30.3295 43.9773 29.4886C41.6136 28.6477 39.0568 28.2273 36.3068 28.2273C31.8977 28.2273 27.875 29.375 24.2386 31.6705C20.625 33.9659 17.7273 37.3409 15.5455 41.7955C13.3864 46.2273 12.3068 51.6591 12.3068 58.0909C12.3068 64.5682 13.3864 70.0227 15.5455 74.4545C17.7273 78.8864 20.625 82.25 24.2386 84.5455C27.875 86.8182 31.8977 87.9545 36.3068 87.9545C39.0568 87.9545 41.6136 87.5341 43.9773 86.6932C46.3409 85.8523 48.4545 84.6818 50.3182 83.1818C52.1818 81.6591 53.7273 79.875 54.9545 77.8295C56.2045 75.7841 57.0682 73.5682 57.5455 71.1818H63.9545C63.3864 74.3864 62.3182 77.375 60.75 80.1477C59.2045 82.8977 57.2273 85.3068 54.8182 87.375C52.4318 89.4432 49.6818 91.0568 46.5682 92.2159C43.4545 93.375 40.0341 93.9545 36.3068 93.9545C30.4432 93.9545 25.2386 92.4886 20.6932 89.5568C16.1477 86.6023 12.5795 82.4432 9.98864 77.0795C7.42045 71.7159 6.13636 65.3864 6.13636 58.0909C6.13636 50.7955 7.42045 44.4659 9.98864 39.1023C12.5795 33.7386 16.1477 29.5909 20.6932 26.6591C25.2386 23.7045 30.4432 22.2273 36.3068 22.2273C40.0341 22.2273 43.4545 22.8068 46.5682 23.9659C49.6818 25.1023 52.4318 26.7159 54.8182 28.8068C57.2273 30.875 59.2045 33.2841 60.75 36.0341C62.3182 38.7841 63.3864 41.7727 63.9545 45ZM79.0312 93H72.3494L97.7472 23.1818H104.565L129.963 93H123.281L101.395 31.4659H100.918L79.0312 93ZM83.8381 66.2386H118.474V71.9659H83.8381V66.2386ZM141.929 93V23.1818H164.463C169.418 23.1818 173.554 24.0795 176.872 25.875C180.213 27.6477 182.724 30.1136 184.406 33.2727C186.111 36.4091 186.963 40.0114 186.963 44.0795C186.963 48.1477 186.111 51.7386 184.406 54.8523C182.724 57.9659 180.224 60.3977 176.906 62.1477C173.588 63.8977 169.474 64.7727 164.565 64.7727H145.372V58.9432H164.395C168.031 58.9432 171.054 58.3409 173.463 57.1364C175.895 55.9318 177.702 54.2159 178.884 51.9886C180.088 49.7614 180.69 47.125 180.69 44.0795C180.69 41.0341 180.088 38.375 178.884 36.1023C177.679 33.8068 175.861 32.0341 173.429 30.7841C171.02 29.5341 167.974 28.9091 164.293 28.9091H148.304V93H141.929ZM172.713 61.5L189.895 93H182.531L165.52 61.5H172.713ZM202.491 93V23.1818H242.991V28.9091H208.866V55.1932H240.844V60.9205H208.866V87.2727H243.673V93H202.491Z" fill="black" fill-opacity="0.62"/>
</svg>
