<svg width="599" height="720" viewBox="0 0 599 720" fill="none" xmlns="http://www.w3.org/2000/svg">
<path opacity="0.1" d="M119 719.771C172.815 719.771 216.44 712.764 216.44 704.121C216.44 695.478 172.815 688.471 119 688.471C65.1853 688.471 21.5599 695.478 21.5599 704.121C21.5599 712.764 65.1853 719.771 119 719.771Z" fill="#181818"/>
<path d="M213.22 317.141C213.22 317.141 209.28 316.591 209.28 310.851C209.28 305.111 206.46 294.391 206.46 294.391C206.46 294.341 204.02 275.721 200.65 272.761C197.28 269.801 192.95 252.421 192.95 252.421C192.95 252.421 192.21 242.991 190.7 240.961C189.19 238.931 187.15 233.961 184.14 226.871C181.13 219.781 168.58 214.871 168.58 214.871C168.58 214.871 145.89 201.711 139.46 197.421C138.876 197.069 138.329 196.656 137.83 196.191C136.71 194.721 131.83 194.691 131.83 194.691C131.32 191.471 130.83 187.771 130.67 184.421C130.67 184.061 130.67 183.701 130.62 183.341C137.79 179.103 143.19 172.421 145.83 164.521C145.95 164.141 146.05 163.741 146.16 163.361C146.59 163.22 146.985 162.99 147.321 162.687C147.657 162.384 147.925 162.014 148.11 161.601C148.69 160.311 148.7 158.801 149.42 157.601C150.26 156.181 151.86 155.421 153.12 154.351C156.3 151.651 157.12 147.101 156.97 142.961C156.87 139.611 156.33 136.231 156.54 132.901L156.6 132.061C156.66 131.561 156.73 131.061 156.82 130.581C157.31 128.101 158.38 125.761 158.98 123.301C159.58 120.841 159.64 118.071 158.24 115.951C156.19 112.841 151.92 112.221 148.17 111.901C143.92 111.541 140.12 112.011 137.4 108.481C136.127 106.636 134.695 104.906 133.12 103.311C132.56 102.791 127.12 99.4711 127.12 99.2511C121.811 96.792 115.792 96.3304 110.17 97.9511C107.35 98.7711 104.69 100.111 101.83 100.781C95.66 102.241 88.56 100.661 83.32 104.191C80.4 106.191 78.65 109.371 77.01 112.471C75.6767 115.024 74.3233 117.574 72.95 120.121C70.74 124.311 68.49 128.571 67.56 133.211C67.3644 134.221 67.2441 135.244 67.2 136.271V136.321C67.2 136.691 67.2 137.061 67.2 137.431V137.901C67.2 138.251 67.2 138.591 67.26 138.901C67.32 139.211 67.31 139.311 67.34 139.521C67.37 139.731 67.42 140.201 67.48 140.521C67.54 140.841 67.66 141.401 67.78 141.841C67.83 142.031 67.9 142.211 67.96 142.391C68.06 142.731 68.18 143.061 68.31 143.391C68.38 143.561 68.45 143.741 68.53 143.911C68.68 144.261 68.86 144.601 69.04 144.911C69.12 145.051 69.18 145.181 69.26 145.311C69.539 145.776 69.8462 146.224 70.18 146.651C72.32 149.321 75.47 151.021 77.8 153.521C77.8 153.621 77.8 153.721 77.8 153.811C77.8 154.091 77.8 154.361 77.8 154.641C77.9236 160.217 79.4076 165.678 82.123 170.549C84.8383 175.42 88.7027 179.554 93.38 182.591C93.38 182.971 93.43 183.361 93.45 183.741C93.645 186.709 93.6082 189.688 93.34 192.651C92.9328 192.172 92.4231 191.79 91.8484 191.533C91.2738 191.277 90.6489 191.153 90.02 191.171C89.5903 191.15 89.1598 191.187 88.74 191.281L88.65 191.211V191.301C86.45 191.841 83.74 194.131 81.15 200.641C81.15 200.641 73.27 209.521 67.27 209.151C61.27 208.781 46.08 218.391 46.08 218.391C46.08 218.391 31.26 228.011 28.08 237.811C26.3025 243.368 24.1715 248.806 21.7 254.091L3.38 291.841L0 321.791C0 321.791 1.87 335.111 1.5 337.141C1.13 339.171 9.19 357.481 9.19 357.481C9.19 357.481 35.82 404.271 46.7 406.671L47.48 406.121C47.9455 406.364 48.4392 406.549 48.95 406.671L51.19 405.091C51.3245 406.852 51.2675 408.622 51.02 410.371C49.52 414.991 51.58 445.141 54.2 451.051C56.82 456.961 55.89 534.451 55.89 534.451L55.52 541.291C55.52 541.291 55.52 541.511 55.61 541.891L55.52 543.511L55.79 543.651C56.0704 545.821 55.9791 548.022 55.52 550.161C54.58 553.161 54.2 561.641 54.2 561.641C54.2 561.641 46.71 609.521 50.26 619.141C53.81 628.761 56.83 639.301 56.83 639.301C56.83 639.301 60.58 651.301 57.01 653.351C53.44 655.401 43.29 658.841 45.38 663.841C47.28 668.461 54.49 680.841 55.56 682.651L55.47 683.601L54 699.531C54.238 701.634 54.8085 703.687 55.69 705.611C57.3 709.081 60.43 712.681 66.38 712.291C67.38 712.221 68.54 712.101 69.66 711.951C80.55 710.491 93.96 705.631 93.96 705.631C93.2638 705.189 92.6255 704.661 92.06 704.061C91.5247 703.543 91.1006 702.921 90.8135 702.233C90.5264 701.545 90.3823 700.806 90.39 700.061C90.55 697.161 85.12 683.341 83.77 679.941C83.56 679.451 83.45 679.171 83.45 679.171C83.45 679.171 95.83 666.231 93.77 654.761C93.77 654.761 80.07 646.761 84.58 642.371C89.09 637.981 97.15 625.371 97.15 625.371C97.15 625.371 97.52 578.221 97.15 571.181C96.7641 566.295 96.9959 561.379 97.84 556.551C97.99 555.821 98.17 555.111 98.36 554.411C104.597 555.342 110.894 555.82 117.2 555.841C119.5 555.841 121.84 555.841 124.2 555.701C124.2 556.368 124.23 557.088 124.29 557.861C124.81 569.541 125.78 590.021 126.57 597.631C127.69 608.541 133.88 637.941 133.88 637.941C133.88 637.941 122.07 645.521 135.94 664.201C135.94 664.201 135.94 670.971 135.02 671.951C134.038 675.155 133.246 678.414 132.65 681.711C132.07 685.231 131.83 688.791 132.77 690.641C135.02 695.061 148.52 694.701 148.52 694.701L148.85 694.641C151.399 694.378 153.974 694.623 156.427 695.363C158.88 696.103 161.162 697.322 163.14 698.951C168.27 703.071 187.74 701.261 198.28 699.951C202.41 699.431 205.17 698.951 205.17 698.951C205.304 698.484 205.351 697.996 205.31 697.511C205.2 694.921 203.17 689.241 189.41 684.171C189.41 684.171 176.47 675.471 176.65 667.891H176.38H174.88C175.97 667.831 176.67 667.891 176.67 667.891C176.67 667.891 171.6 649.391 173.67 647.891C175.74 646.391 169.54 625.891 169.54 625.891C169.54 625.891 165.99 591.491 165.8 589.081C165.808 587.013 166.121 584.958 166.73 582.981L165.8 564.121C165.8 564.121 165.62 557.851 165.8 555.811C165.77 554.04 165.626 552.273 165.37 550.521C165.28 549.821 165.19 549.091 165.09 548.371C169.94 547.141 173.09 546.001 173.09 546.001L172.53 480.351C176.65 472.351 177.41 454.801 177.39 442.351C177.39 434.351 177.03 428.431 177.03 428.431L182.66 419.241C182.66 419.241 183.96 408.241 181.9 405.831C180.99 404.741 181.4 403.611 182.15 402.681C182.54 402.372 182.951 402.092 183.38 401.841C183.38 401.841 183.32 401.751 183.25 401.621C183.643 401.293 184.061 400.995 184.5 400.731C184.5 400.731 182.5 397.631 184.29 396.321C185.97 397.461 187.47 398.321 188.61 399.021C188.53 399.751 188.45 400.171 188.45 400.171L188.93 399.171C190.03 399.791 190.7 400.171 190.7 400.171C190.7 400.171 199.52 382.601 199.33 380.011C199.14 377.421 205.33 366.511 205.33 366.511C205.33 366.511 206.08 360.781 209.46 358.381C212.84 355.981 212.08 338.591 212.08 338.591C212.08 338.591 213.02 329.531 215.27 325.831C217.52 322.131 213.22 317.141 213.22 317.141ZM44.46 309.431L44.63 313.621C43.63 312.011 42.91 310.851 42.91 310.851L44.46 309.431Z" fill="url(#paint0_linear_1_172)"/>
<path d="M191.18 392.581L189.02 401.781C189.02 401.781 171.72 392.951 168.6 381.731C165.48 370.511 173.82 366.251 173.82 366.251L189.94 373.081L191.18 392.581Z" fill="white"/>
<path opacity="0.1" d="M191.18 392.581L189.02 401.781C189.02 401.781 171.72 392.951 168.6 381.731C165.48 370.511 173.82 366.251 173.82 366.251L189.94 373.081L191.18 392.581Z" fill="black"/>
<path d="M94.0901 705.691C94.0901 705.691 78.0901 711.571 67.0901 712.311C61.2501 712.701 58.1801 709.121 56.6001 705.671C55.7369 703.753 55.1802 701.712 54.9501 699.621L56.3801 683.771L57.1401 675.331L80.5101 669.261L83.8201 679.381L84.1301 680.151C85.4601 683.531 90.7901 697.281 90.6301 700.151C90.6235 700.886 90.7654 701.615 91.0472 702.294C91.329 702.972 91.745 703.587 92.2701 704.101C92.8067 704.706 93.4182 705.241 94.0901 705.691Z" fill="white"/>
<path d="M203.38 697.631C203.42 698.112 203.373 698.597 203.24 699.061C203.24 699.061 169.02 704.771 162.02 699.061C160.046 697.393 157.746 696.156 155.266 695.429C152.786 694.703 150.182 694.502 147.62 694.841C147.62 694.841 134.38 695.201 132.17 690.841C131.25 689.011 131.49 685.461 132.06 681.961C132.641 678.682 133.416 675.439 134.38 672.251L134.91 671.831L138.06 669.301L174.94 668.211H175.22C175.04 675.751 187.74 684.401 187.74 684.401C201.23 689.401 203.22 695.051 203.38 697.631Z" fill="white"/>
<path opacity="0.1" d="M203.38 697.631C203.415 698.113 203.364 698.597 203.23 699.061C203.23 699.061 169.02 704.771 162.02 699.061C160.048 697.394 157.749 696.158 155.271 695.431C152.793 694.705 150.19 694.504 147.63 694.841C147.63 694.841 134.38 695.201 132.18 690.841C131.26 689.001 131.49 685.461 132.06 681.961C137.16 682.471 145.21 683.741 148.37 686.771C153.15 691.381 161.25 695.981 166.22 696.341C170.11 696.591 193.38 697.331 203.38 697.631Z" fill="black"/>
<path opacity="0.1" d="M94.09 705.691C94.09 705.691 78.09 711.571 67.09 712.311C61.25 712.701 58.18 709.121 56.61 705.661C60.68 707.031 66.33 708.471 69.3 707.151C72.82 705.591 85.3 704.581 92.3 704.151C92.8327 704.734 93.4337 705.251 94.09 705.691Z" fill="black"/>
<path d="M117.83 231.841C104.63 226.711 87.65 209.761 91.89 201.841C92.8317 199.843 93.3913 197.686 93.54 195.481C93.8128 192.489 93.8529 189.48 93.66 186.481C93.3627 181.57 92.7717 176.682 91.89 171.841C91.89 171.841 133.1 172.771 130.7 178.841C130 180.621 129.89 183.711 130.08 187.171C130.27 190.631 130.77 194.541 131.29 197.851C132.01 202.391 132.73 205.851 132.73 205.851C132.73 205.851 130.21 209.381 128.73 209.571C127.25 209.761 136.77 239.151 117.83 231.841Z" fill="#CF6F80"/>
<path opacity="0.1" d="M84.1 680.151L83.79 680.491C71.47 665.591 56.57 684.161 56.57 684.161L56.35 683.771L57.11 675.331L80.48 669.261L83.79 679.381L84.1 680.151Z" fill="black"/>
<path opacity="0.1" d="M175.23 669.261C175.23 669.261 166.23 669.071 161.43 673.311C156.63 677.551 133.43 674.231 134.43 673.311C134.726 672.855 134.905 672.333 134.95 671.791L138.1 669.261L174.98 668.171C175.12 668.841 175.23 669.261 175.23 669.261Z" fill="black"/>
<path d="M99.4299 552.251C98.7596 553.908 98.2506 555.626 97.91 557.381C97.076 562.187 96.8442 567.078 97.22 571.941C97.59 578.941 97.22 625.851 97.22 625.851C97.22 625.851 89.3099 638.361 84.8999 642.771C80.4899 647.181 93.8999 655.101 93.8999 655.101C95.8999 666.501 83.7799 679.381 83.7799 679.381C71.4599 664.481 56.5599 683.061 56.5599 683.061C56.5599 683.061 48.46 669.061 46.44 664.061C44.42 659.061 54.3499 655.601 57.8399 653.571C61.3299 651.541 57.67 639.571 57.67 639.571C57.67 639.571 54.72 629.081 51.22 619.511C47.72 609.941 55.08 562.301 55.08 562.301C55.08 562.301 55.4599 553.841 56.3699 550.891C56.8291 548.762 56.9204 546.571 56.64 544.411C56.58 543.681 56.5099 543.071 56.4599 542.661C56.4099 542.251 56.3699 542.061 56.3699 542.061L56.51 541.821L61.51 532.501C61.51 532.501 101.83 546.381 99.4299 552.251Z" fill="#181818"/>
<path d="M175.23 668.161C175.23 668.161 166.23 667.971 161.43 672.161C156.63 676.351 133.43 673.081 134.43 672.161C135.43 671.241 135.35 664.431 135.35 664.431C121.74 645.851 133.35 638.311 133.35 638.311C133.35 638.311 127.27 609.061 126.17 598.211C125.4 590.631 124.45 570.261 123.94 558.631C123.72 553.631 123.59 550.191 123.59 550.191L134.71 547.951L136.14 547.661L162.96 542.281C162.96 542.281 163.7 547.281 164.2 551.371C164.449 553.118 164.59 554.878 164.62 556.641C164.44 558.641 164.62 564.901 164.62 564.901L165.53 583.671C164.935 585.64 164.629 587.685 164.62 589.741C164.8 592.131 168.29 626.351 168.29 626.351C168.29 626.351 174.36 646.771 172.29 648.241C170.22 649.711 175.23 668.161 175.23 668.161Z" fill="#181818"/>
<path opacity="0.1" d="M130.7 178.841C130 180.621 129.89 183.711 130.08 187.171C124.56 190.495 118.214 192.195 111.772 192.074C105.33 191.954 99.052 190.019 93.66 186.491C93.3631 181.577 92.7721 176.685 91.89 171.841C91.89 171.841 133.1 172.751 130.7 178.841Z" fill="black"/>
<path d="M146.63 156.741C146.638 160.345 146.071 163.926 144.95 167.351C142.445 175.025 137.307 181.566 130.446 185.818C123.584 190.07 115.44 191.76 107.453 190.588C99.4665 189.417 92.151 185.459 86.7997 179.416C81.4485 173.372 78.4059 165.631 78.21 157.561C78.21 157.281 78.21 157.021 78.21 156.741C78.1323 152.199 78.9599 147.686 80.6445 143.467C82.3291 139.248 84.837 135.407 88.0218 132.167C91.2067 128.927 95.0048 126.354 99.1945 124.597C103.384 122.841 107.882 121.936 112.425 121.936C116.968 121.936 121.466 122.841 125.655 124.597C129.845 126.354 133.643 128.927 136.828 132.167C140.013 135.407 142.521 139.248 144.205 143.467C145.89 147.686 146.718 152.199 146.64 156.741H146.63Z" fill="#CF6F80"/>
<path opacity="0.1" d="M117.83 231.841C104.63 226.711 87.65 209.761 91.89 201.841C92.8317 199.843 93.3913 197.686 93.54 195.481L111.61 210.331L122.79 219.501L131.29 197.861C132.01 202.401 132.73 205.861 132.73 205.861C132.73 205.861 130.21 209.391 128.73 209.581C127.25 209.771 136.77 239.151 117.83 231.841Z" fill="black"/>
<path d="M164.56 297.471L149.47 550.971L129.79 552.261L78.83 405.271L87.19 230.761L88.95 193.891L111.61 212.501L122.8 221.671L131.55 199.401L147.82 213.581L164.56 297.471Z" fill="#181818"/>
<path opacity="0.1" d="M99.43 552.251C98.7597 553.908 98.2507 555.626 97.91 557.381C83.5899 555.17 69.682 550.825 56.65 544.491L56.38 544.351L56.47 542.741L56.52 541.901L61.52 532.581C61.52 532.581 101.83 546.381 99.43 552.251Z" fill="black"/>
<path opacity="0.1" d="M134.94 557.421C131.279 558.044 127.587 558.464 123.88 558.681C123.66 553.681 123.53 550.241 123.53 550.241L134.65 548.001L134.94 557.421Z" fill="black"/>
<path opacity="0.1" d="M164.14 551.421C157.03 553.271 146.05 555.351 136.22 554.051L136.08 547.711L162.9 542.331C162.9 542.331 163.64 547.281 164.14 551.421Z" fill="black"/>
<path opacity="0.1" d="M136.04 555.211C95.04 562.211 57.49 542.141 57.49 542.141L57.85 535.341C57.85 535.341 58.78 458.251 56.2 452.341C53.62 446.431 51.61 416.461 53.07 411.861C54.53 407.261 47.74 338.281 47.74 338.281L46.64 310.281L6.38 293.971L24.38 256.451C26.8112 251.191 28.9022 245.78 30.64 240.251C33.77 230.511 48.3 220.941 48.3 220.941C48.3 220.941 63.2 211.381 69.09 211.741C74.98 212.101 82.7 203.281 82.7 203.281C88.4 188.751 93.56 195.331 93.56 195.331C93.56 196.021 93.56 195.331 93.28 197.481C91.28 213.431 125.62 263.831 126.11 264.721L129.38 344.381L132.69 445.191L136.04 555.211Z" fill="black"/>
<path d="M134.94 555.211C93.94 562.211 56.38 542.141 56.38 542.141L56.75 535.341C56.75 535.341 57.68 458.251 55.09 452.341C52.5 446.431 50.5 416.461 51.97 411.861C53.44 407.261 46.64 338.281 46.64 338.281L45.53 310.281L5.25 293.911L23.25 256.391C25.6759 251.128 27.7668 245.718 29.51 240.191C32.63 230.451 47.17 220.881 47.17 220.881C47.17 220.881 62.07 211.321 67.95 211.681C73.83 212.041 81.56 203.221 81.56 203.221C87.27 188.691 93.56 195.271 93.56 195.271C93.56 195.961 92.96 196.271 93.28 197.421C97.68 212.891 124.52 263.771 125.01 264.661L128.32 344.321L131.63 445.131L134.94 555.211Z" fill="white"/>
<path opacity="0.1" d="M123.89 266.931C119.48 265.091 96.12 238.421 96.12 238.421V232.351C95.27 230.351 90.22 231.571 86.12 232.971L87.88 196.101L89.88 197.761C94.26 213.221 123.38 266.041 123.89 266.931Z" fill="black"/>
<path d="M125 264.721C120.58 262.881 97.22 236.211 97.22 236.211V230.141C96.37 228.141 91.32 229.361 87.22 230.761L88.99 193.891L90.99 195.551C95.38 211.011 124.51 263.841 125 264.721Z" fill="white"/>
<path opacity="0.1" d="M57.49 397.731C58.04 397.731 86 394.791 86 394.791C86 394.791 102.93 428.081 101.82 436.181C100.71 444.281 98.7 451.451 91.89 450.181C85.08 448.911 55.24 451.181 55.24 451.181L57.49 397.731Z" fill="black"/>
<path d="M56.38 395.521C56.93 395.521 84.89 392.581 84.89 392.581C84.89 392.581 101.81 425.881 100.71 433.971C99.61 442.061 97.58 449.241 90.78 447.971C83.98 446.701 54.13 448.971 54.13 448.971L56.38 395.521Z" fill="white"/>
<path d="M77.45 379.891C77.45 379.891 103.11 393.681 103.66 397.891C104.21 402.101 90.6 396.051 87.66 395.321C85.725 394.855 83.7551 394.547 81.7701 394.401L62.16 394.931L77.45 379.891Z" fill="#CF6F80"/>
<path opacity="0.1" d="M116.73 268.651C118.221 268.651 119.43 267.442 119.43 265.951C119.43 264.46 118.221 263.251 116.73 263.251C115.239 263.251 114.03 264.46 114.03 265.951C114.03 267.442 115.239 268.651 116.73 268.651Z" fill="black"/>
<path d="M116.73 267.551C118.221 267.551 119.43 266.342 119.43 264.851C119.43 263.36 118.221 262.151 116.73 262.151C115.239 262.151 114.03 263.36 114.03 264.851C114.03 266.342 115.239 267.551 116.73 267.551Z" fill="#3F3D56"/>
<path opacity="0.1" d="M121.7 385.531C123.191 385.531 124.4 384.322 124.4 382.831C124.4 381.34 123.191 380.131 121.7 380.131C120.209 380.131 119 381.34 119 382.831C119 384.322 120.209 385.531 121.7 385.531Z" fill="black"/>
<path d="M121.7 384.421C123.191 384.421 124.4 383.212 124.4 381.721C124.4 380.23 123.191 379.021 121.7 379.021C120.209 379.021 119 380.23 119 381.721C119 383.212 120.209 384.421 121.7 384.421Z" fill="#3F3D56"/>
<path opacity="0.1" d="M119.42 327.091C120.911 327.091 122.12 325.882 122.12 324.391C122.12 322.9 120.911 321.691 119.42 321.691C117.929 321.691 116.72 322.9 116.72 324.391C116.72 325.882 117.929 327.091 119.42 327.091Z" fill="black"/>
<path d="M119.42 325.991C120.911 325.991 122.12 324.782 122.12 323.291C122.12 321.8 120.911 320.591 119.42 320.591C117.929 320.591 116.72 321.8 116.72 323.291C116.72 324.782 117.929 325.991 119.42 325.991Z" fill="#3F3D56"/>
<path d="M181.66 393.841C181.66 393.841 183.5 396.601 181.66 397.891C179.82 399.181 181.84 402.301 181.84 402.301C181.84 402.301 177.25 404.991 179.27 407.411C181.29 409.831 180.01 420.761 180.01 420.761L174.49 429.901C174.49 429.901 174.82 435.791 174.84 443.751C174.84 456.171 174.11 473.631 170.07 481.591L170.63 546.901C170.63 546.901 151.3 553.961 135.12 551.811L132.72 447.011C132.72 447.011 136.22 387.581 137.51 376.181C138.265 370.263 138.572 364.296 138.43 358.331C138.43 358.331 137.88 340.491 136.03 332.211C136.03 332.211 134.03 296.341 133.83 286.411C133.74 281.661 133.99 267.801 134.27 254.621C134.58 240.211 134.93 226.621 134.93 226.621L131.28 197.741C131.28 197.741 134.93 197.371 136.03 198.841C136.523 199.301 137.059 199.713 137.63 200.071C143.93 204.331 166.19 217.431 166.19 217.431C166.19 217.431 178.51 222.331 181.46 229.351C184.41 236.371 186.46 241.351 187.89 243.351C189.32 245.351 190.1 254.751 190.1 254.751C190.1 254.751 194.34 272.051 197.65 274.981C200.96 277.911 203.38 296.551 203.38 296.551L174.13 319.551C174.13 319.551 171.56 357.811 171.01 359.291C170.46 360.771 181.66 393.841 181.66 393.841Z" fill="white"/>
<path d="M182.77 393.841C182.77 393.841 184.6 396.601 182.77 397.891C180.94 399.181 182.94 402.301 182.94 402.301C182.94 402.301 178.38 405.021 180.38 407.441C182.38 409.861 181.12 420.791 181.12 420.791L175.6 429.931C175.6 429.931 175.93 435.821 175.96 443.781C175.96 456.201 175.23 473.661 171.19 481.621L171.74 546.931C171.74 546.931 152.38 553.991 136.22 551.841L133.83 447.041C133.83 447.041 137.33 387.611 138.62 376.211C139.376 370.293 139.68 364.326 139.53 358.361C139.53 358.361 138.98 340.521 137.14 332.241C137.14 332.241 135.14 296.371 134.93 286.441C134.84 281.691 135.1 267.831 135.37 254.651C135.68 240.241 136.03 226.651 136.03 226.651L131.21 197.381C131.21 197.381 136.03 197.381 137.14 198.871C137.628 199.337 138.164 199.749 138.74 200.101C145.04 204.361 167.31 217.461 167.31 217.461C167.31 217.461 179.62 222.361 182.57 229.381C185.52 236.401 187.57 241.381 189.01 243.381C190.45 245.381 191.21 254.781 191.21 254.781C191.21 254.781 195.45 272.081 198.76 275.011C202.07 277.941 204.46 296.541 204.46 296.541L175.21 319.541C175.21 319.541 172.64 357.801 172.08 359.281C171.52 360.761 182.77 393.841 182.77 393.841Z" fill="white"/>
<path opacity="0.1" d="M147.74 235.141L150.38 242.841L136.48 256.841C136.79 242.441 137.14 228.841 137.14 228.841L132.32 199.571C132.32 199.571 137.14 199.571 138.25 201.061C138.737 201.526 139.273 201.935 139.85 202.281L151.67 236.381L147.74 235.141Z" fill="black"/>
<path d="M146.63 232.931L149.28 240.631L135.38 254.631C135.69 240.221 136.04 226.631 136.04 226.631L131.21 197.361C131.21 197.361 136.04 197.361 137.14 198.851C137.63 199.314 138.167 199.726 138.74 200.081L150.57 234.171L146.63 232.931Z" fill="white"/>
<path opacity="0.1" d="M146.63 156.741C146.638 160.345 146.071 163.926 144.95 167.351C144.761 167.381 144.568 167.372 144.383 167.326C144.197 167.279 144.023 167.196 143.87 167.081C143.61 158.081 139.18 149.631 133.73 142.441C132.2 140.27 130.345 138.348 128.23 136.741C126.092 135.135 123.432 134.383 120.77 134.631C117.77 135.041 115.12 137.081 112.09 137.341C108.09 137.671 104.51 134.901 100.54 134.761C98.9261 134.777 97.334 135.136 95.8699 135.815C94.4059 136.495 93.1036 137.479 92.05 138.701C89.9643 141.169 88.4148 144.043 87.5 147.141C85.9277 151.84 85.0714 156.748 84.96 161.701C84.91 164.501 84.64 168.011 82.04 169.031C82.2357 166.972 82.0017 164.895 81.3527 162.93C80.7038 160.966 79.654 159.158 78.27 157.621L78.21 157.561C78.21 157.281 78.21 157.021 78.21 156.741C78.1323 152.199 78.9599 147.686 80.6445 143.467C82.3291 139.248 84.837 135.407 88.0218 132.167C91.2067 128.927 95.0048 126.354 99.1945 124.597C103.384 122.841 107.882 121.936 112.425 121.936C116.968 121.936 121.466 122.841 125.655 124.597C129.845 126.354 133.643 128.927 136.828 132.167C140.013 135.407 142.521 139.248 144.205 143.467C145.89 147.686 146.718 152.199 146.64 156.741H146.63Z" fill="black"/>
<path d="M126.59 102.411C121.394 99.9669 115.483 99.5046 109.97 101.111C107.2 101.931 104.59 103.261 101.78 103.931C95.78 105.381 88.78 103.811 83.63 107.321C80.77 109.321 79.05 112.481 77.45 115.551L73.45 123.171C71.27 127.341 69.07 131.581 68.16 136.171C67.25 140.761 67.8 145.901 70.71 149.591C72.83 152.281 75.96 153.971 78.26 156.501C79.6379 158.04 80.6831 159.847 81.3301 161.809C81.9771 163.77 82.212 165.845 82.02 167.901C84.63 166.901 84.88 163.381 84.94 160.581C85.0514 155.628 85.9077 150.72 87.48 146.021C88.3927 142.922 89.9424 140.047 92.03 137.581C93.0845 136.36 94.3869 135.377 95.8508 134.697C97.3146 134.018 98.9063 133.658 100.52 133.641C104.52 133.781 108.11 136.541 112.07 136.211C115.07 135.961 117.73 133.911 120.75 133.511C123.413 133.259 126.074 134.012 128.21 135.621C130.324 137.225 132.176 139.148 133.7 141.321C139.16 148.511 143.59 156.941 143.85 165.961C144.98 166.791 146.61 165.711 147.17 164.431C147.73 163.151 147.75 161.651 148.46 160.431C149.28 159.021 150.85 158.271 152.08 157.211C155.2 154.521 155.98 149.991 155.86 145.881C155.74 141.771 154.94 137.601 155.72 133.561C156.19 131.081 157.25 128.761 157.83 126.311C158.41 123.861 158.48 121.111 157.11 119.001C155.11 115.901 150.9 115.291 147.23 115.001C143.06 114.641 139.33 115.101 136.67 111.591C135.421 109.76 134.016 108.04 132.47 106.451C131.94 105.931 126.59 102.631 126.59 102.411Z" fill="#512E4E"/>
<path opacity="0.1" d="M17.9 313.291L7.45001 293.971L4.14001 323.781C4.14001 323.781 5.98002 337.021 5.61002 339.051C5.24002 341.081 13.15 359.281 13.15 359.281C13.15 359.281 39.28 405.821 49.95 408.221L86 382.461L76.44 370.321C76.44 370.321 73.13 369.031 72.3 370.321C72.3 370.321 54.55 339.781 52.71 337.571C50.87 335.361 51.23 330.951 51.23 330.951C51.23 330.951 48.47 328.011 49.39 325.251C50.31 322.491 44.06 312.921 44.06 312.921L49.76 307.591L17.9 313.291Z" fill="black"/>
<path d="M7.99994 291.771L5.23993 293.971L1.92993 323.781C1.92993 323.781 3.76993 337.021 3.39993 339.051C3.02993 341.081 10.95 359.281 10.95 359.281C10.95 359.281 37.0699 405.821 47.7399 408.221L83.8 382.461L74.2299 370.321C74.2299 370.321 70.9199 369.031 70.0899 370.321C70.0899 370.321 52.3399 339.781 50.4999 337.571C48.6599 335.361 49.0299 330.951 49.0299 330.951C49.0299 330.951 46.2699 328.011 47.1899 325.251C48.1099 322.491 41.8499 312.921 41.8499 312.921L47.55 307.591L7.99994 291.771Z" fill="white"/>
<path opacity="0.1" d="M179.27 408.551C181.27 410.981 180.01 421.891 180.01 421.891L174.49 431.031C174.49 431.031 174.82 436.931 174.84 444.881L165.56 447.781C164.721 448.043 163.832 448.101 162.967 447.949C162.101 447.798 161.285 447.441 160.585 446.91C159.885 446.378 159.323 445.687 158.944 444.894C158.566 444.101 158.383 443.229 158.41 442.351L160.01 390.741L181.66 399.021C179.82 400.301 181.84 403.441 181.84 403.441C181.84 403.441 177.25 406.121 179.27 408.551Z" fill="black"/>
<path d="M180.38 407.441C182.38 409.871 181.12 420.791 181.12 420.791L175.6 429.931C175.6 429.931 175.93 435.821 175.96 443.781L166.51 446.731C165.689 446.986 164.818 447.042 163.971 446.893C163.124 446.743 162.325 446.394 161.64 445.874C160.955 445.353 160.405 444.677 160.034 443.901C159.664 443.124 159.484 442.271 159.51 441.411L161.12 389.641L182.78 397.921C180.93 399.201 182.95 402.331 182.95 402.331C182.95 402.331 178.38 405.021 180.38 407.441Z" fill="white"/>
<path d="M187.55 382.841C187.55 382.841 186.08 392.231 182.4 392.781C178.72 393.331 177.07 407.971 173.4 407.451C169.73 406.931 172.16 393.841 172.29 391.301C172.42 388.761 168.29 378.241 171.38 375.851C174.47 373.461 184.25 375.851 184.25 375.851L187.55 382.841Z" fill="#CF6F80"/>
<path opacity="0.1" d="M195.38 310.531L202.32 296.531C202.32 296.531 205.08 307.201 205.08 312.901C205.08 318.601 208.94 319.161 208.94 319.161C208.94 319.161 213.17 324.161 210.94 327.801C208.71 331.441 207.81 340.501 207.81 340.501C207.81 340.501 208.54 357.791 205.23 360.181C201.92 362.571 201.23 368.281 201.23 368.281C201.23 368.281 195.15 379.131 195.34 381.711C195.53 384.291 186.88 401.761 186.88 401.761C186.88 401.761 191.11 380.051 166.46 370.671C166.46 370.671 166.27 363.301 168.11 361.281C169.95 359.261 172.82 358.341 171.02 348.131C169.22 337.921 170.5 325.721 170.5 323.271C170.5 320.821 176.02 305.541 176.02 305.541L195.38 310.531Z" fill="black"/>
<path d="M198.38 294.531L204.44 296.531C204.44 296.531 207.21 307.201 207.21 312.901C207.21 318.601 211.07 319.161 211.07 319.161C211.07 319.161 215.3 324.161 213.07 327.801C210.84 331.441 209.95 340.501 209.95 340.501C209.95 340.501 210.68 357.791 207.37 360.181C204.06 362.571 203.32 368.281 203.32 368.281C203.32 368.281 197.25 379.131 197.44 381.711C197.63 384.291 188.97 401.761 188.97 401.761C188.97 401.761 193.21 380.051 168.55 370.671C168.55 370.671 168.37 363.301 170.21 361.281C172.05 359.261 174.92 358.341 173.12 348.131C171.32 337.921 172.6 325.721 172.6 323.271C172.6 320.821 178.12 305.541 178.12 305.541L198.38 294.531Z" fill="white"/>
<path opacity="0.1" d="M64.53 657.401C64.53 657.401 74.19 651.331 80.53 655.741C86.87 660.151 64.53 657.401 64.53 657.401Z" fill="black"/>
<path opacity="0.1" d="M139.59 638.631C139.59 638.631 148.14 637.531 155.32 645.261C162.5 652.991 139.59 638.631 139.59 638.631Z" fill="black"/>
<g opacity="0.1">
<path d="M152.1 155.021C150.87 156.081 149.29 156.841 148.47 158.251C147.77 159.461 147.75 160.951 147.19 162.251C146.63 163.551 145 164.611 143.87 163.791C143.61 154.791 139.17 146.341 133.72 139.141C132.196 136.968 130.344 135.045 128.23 133.441C126.09 131.832 123.426 131.079 120.76 131.331C117.76 131.741 115.12 133.781 112.09 134.031C108.09 134.371 104.5 131.601 100.53 131.461C98.9167 131.477 97.3255 131.838 95.8629 132.519C94.4004 133.2 93.1004 134.186 92.0501 135.411C89.9625 137.873 88.4127 140.745 87.5001 143.841C85.9286 148.54 85.0724 153.448 84.9601 158.401C84.9001 161.191 84.6401 164.671 82.0601 165.711C82.1201 166.45 82.1201 167.192 82.0601 167.931C84.6601 166.931 84.9201 163.411 84.9801 160.611C85.0915 155.658 85.9478 150.749 87.5201 146.051C88.4328 142.952 89.9825 140.077 92.0701 137.611C93.1226 136.39 94.4233 135.407 95.8855 134.727C97.3477 134.048 98.9378 133.688 100.55 133.671C104.55 133.811 108.15 136.571 112.11 136.241C115.11 135.991 117.77 133.941 120.78 133.541C123.446 133.289 126.11 134.042 128.25 135.651C130.364 137.255 132.216 139.178 133.74 141.351C139.19 148.541 143.63 156.971 143.89 165.991C145.02 166.821 146.65 165.741 147.21 164.461C147.77 163.181 147.79 161.681 148.49 160.461C149.31 159.051 150.89 158.301 152.12 157.241C155.24 154.551 156.02 150.021 155.9 145.911C155.9 145.781 155.9 145.651 155.9 145.531C155.71 149.091 154.76 152.721 152.1 155.021Z" fill="black"/>
<path d="M78.28 154.311C75.98 151.781 72.8401 150.091 70.7301 147.411C68.9534 145.039 67.9386 142.183 67.8201 139.221C67.5053 142.922 68.5388 146.612 70.7301 149.611C72.8401 152.301 75.98 153.991 78.28 156.521C80.4883 158.996 81.8141 162.133 82.0501 165.441C82.2032 163.428 81.9481 161.404 81.3003 159.492C80.6525 157.579 79.6252 155.817 78.28 154.311Z" fill="black"/>
<path d="M157.85 124.121C157.26 126.571 156.21 128.901 155.73 131.371C155.446 133.022 155.342 134.698 155.42 136.371C155.453 135.418 155.557 134.469 155.73 133.531C156.21 131.051 157.26 128.731 157.85 126.281C158.194 124.93 158.305 123.53 158.18 122.141C158.118 122.808 158.008 123.47 157.85 124.121Z" fill="black"/>
</g>
<path opacity="0.1" d="M476.82 719.678C543.972 719.678 598.41 712.671 598.41 704.028C598.41 695.385 543.972 688.378 476.82 688.378C409.668 688.378 355.23 695.385 355.23 704.028C355.23 712.671 409.668 719.678 476.82 719.678Z" fill="#181818"/>
<path opacity="0.1" d="M492.61 288.538H464.17V316.978H492.61V288.538Z" fill="#181818"/>
<path opacity="0.1" d="M492.61 358.688H464.17V387.128H492.61V358.688Z" fill="#181818"/>
<path opacity="0.1" d="M492.61 428.828H464.17V457.268H492.61V428.828Z" fill="#181818"/>
<path opacity="0.1" d="M492.61 498.978H464.17V527.418H492.61V498.978Z" fill="#181818"/>
<path d="M579.44 408.658C579.44 408.658 562.93 326.518 569.25 316.298C569.25 316.298 569.48 306.798 569.1 294.688C569.1 294.228 569.1 293.768 569.1 293.298C570.212 294.04 571.371 294.708 572.57 295.298C578.393 298.29 585.078 299.153 591.47 297.738L586.47 292.168C585.27 290.838 584.02 289.398 583.76 287.638C583.5 285.878 584.22 284.308 584.84 282.738C589.59 270.738 589.84 255.648 580.69 246.488C572.96 238.788 571.08 228.848 562.69 221.818C556.56 216.668 553.19 209.118 550.01 201.818C547.32 195.648 544.61 189.428 543.07 182.888C541.87 177.778 541.39 172.488 539.74 167.498C538.09 162.508 535 157.658 530.17 155.428C528.45 154.638 526.54 154.188 524.97 153.138C522.91 151.748 521.67 149.488 520.18 147.508C512.61 137.508 487.26 143.398 475.26 147.458C471.998 148.481 468.977 150.154 466.38 152.378L466.49 152.198C466.58 152.048 466.69 151.898 466.79 151.748C465.477 152.81 464.342 154.076 463.43 155.498C461.68 158.268 460.95 161.498 459.49 164.498C457.73 168.048 447.94 177.958 452.15 181.948C452.445 182.216 452.783 182.432 453.15 182.588C454.73 183.246 456.471 183.42 458.15 183.088L457.97 183.518C456.532 187.038 455.795 190.806 455.8 194.608C455.8 211.038 469.35 224.358 486.08 224.358C489.225 224.361 492.352 223.879 495.35 222.928C495.42 223.308 495.48 223.688 495.55 224.068C495.55 224.218 495.6 224.368 495.62 224.518L495.09 225.258C495.064 225.213 495.033 225.169 495 225.128L479.3 247.068C476.9 248.758 463.08 258.758 462.3 266.258C461.48 274.468 460.66 284.078 460.66 284.078L460.55 286.138C459.864 286.711 459.061 287.129 458.198 287.362C457.335 287.595 456.432 287.638 455.55 287.488C450.65 286.688 450.65 305.488 450.65 305.488C450.65 305.488 447.39 308.488 445.15 305.888C442.91 303.288 436.99 312.098 436.99 312.098L399.89 313.698L399.04 313.748L397.04 307.558C396.825 306.905 396.361 306.364 395.748 306.051C395.136 305.738 394.425 305.68 393.77 305.888C393.615 305.939 393.465 306.003 393.32 306.078L393.18 306.158L392.92 306.338L392.79 306.458C392.718 306.523 392.652 306.593 392.59 306.668L392.47 306.808L392.41 306.868C392.179 307.187 392.026 307.556 391.964 307.945C391.901 308.334 391.931 308.733 392.05 309.108L393.77 314.418C386.61 315.858 379.29 319.918 385.26 331.098L355 325.508L364.79 333.728L415.33 344.158C414.66 345.358 415.1 347.098 417.19 349.548C426.19 360.118 442.59 362.988 449.19 363.728C450.933 367.627 453.11 371.317 455.68 374.728L455.11 385.258C455.11 385.258 438.4 465.518 435.34 469.588C436.885 467.838 438.299 465.976 439.57 464.018C434.72 480.508 427.94 503.078 426.16 506.458C423.3 511.858 420.65 533.708 423.91 535.108C424.91 535.538 427.77 535.328 431.85 535.018V536.828L431.67 605.418C431.67 605.418 432.49 647.488 430.24 651.498C427.99 655.508 427.39 663.918 427.39 663.918C427.39 663.918 418.39 680.508 411.26 687.178C411.211 687.23 411.158 687.277 411.1 687.318L410.88 685.758C410.88 685.758 402.31 696.578 383.35 695.968C383.35 695.968 371.94 703.388 388.86 703.788C405.78 704.188 427.39 703.188 427.39 703.188C427.39 703.188 442.48 680.188 455.12 683.188V700.618H458.99V682.908C460.785 681.727 462.321 680.193 463.505 678.4C464.69 676.607 465.497 674.593 465.88 672.478C466.211 670.299 465.969 668.071 465.176 666.014C464.383 663.957 463.068 662.142 461.36 660.748C460.593 660.054 459.977 659.209 459.552 658.266C459.127 657.323 458.902 656.303 458.89 655.268L458.75 655.388C458.75 655.038 458.66 654.678 458.62 654.308C457.51 645.308 456.12 626.738 461.03 612.998C467.76 594.158 469.8 567.918 464.9 552.298C463.319 547.305 462.02 542.227 461.01 537.088C460.89 536.438 460.78 535.818 460.68 535.238C464.029 535.691 467.346 536.359 470.61 537.238C481.96 540.368 506.79 540.948 527.99 540.778C528.04 541.358 528.1 541.968 528.17 542.578C528.548 546.818 529.338 551.011 530.53 555.098C533.19 563.098 534.41 598.368 534.41 598.368C534.41 598.368 537.84 627.368 535.97 639.168C534.97 645.728 533.97 652.318 533.4 658.938V659.068C533.4 659.068 527.78 675.068 523.67 683.758C523.57 683.978 523.46 684.198 523.36 684.408C522.264 684.508 521.186 684.747 520.15 685.118C520.15 685.118 514.64 696.118 509.15 697.938C503.66 699.758 505.48 705.748 517.91 703.548C530.34 701.348 549.11 699.548 549.11 699.548L549.92 688.328L553.74 683.548L552.74 694.738L556.81 693.938L556.27 680.328L562.52 672.508C562.52 672.508 570.07 665.788 558.85 652.568V652.858C558.73 652.668 558.62 652.468 558.49 652.278V652.218C556.63 649.338 555.15 643.968 557.86 634.438C562.76 617.218 565.61 601.588 565.61 601.588C565.61 601.588 576.55 559.718 563.4 539.908H563.98C562.632 537.121 561.68 534.159 561.15 531.108C561.083 530.748 561.023 530.378 560.97 529.998C570.7 529.438 580.25 527.678 588.04 523.878C588.01 523.838 583.32 424.478 579.44 408.658ZM455.91 339.358V339.558L453.91 339.658L455.91 339.358ZM449.05 340.308C448.721 340.381 448.413 340.528 448.15 340.738C447.29 341.955 446.75 343.368 446.58 344.848L443.46 344.148C443.46 344.148 441.27 343.678 438.12 343.148L436.63 341.648C440.73 341.308 444.99 340.808 449.05 340.308Z" fill="url(#paint1_linear_1_172)"/>
<path d="M552.28 680.468L551.09 694.638L555.08 693.838L554.48 678.468L552.28 680.468Z" fill="#1D2366"/>
<path d="M461.25 613.188C456.44 626.888 457.8 645.378 458.88 654.358C459.28 657.678 459.65 659.698 459.65 659.698C459.65 659.698 452.46 676.078 451.86 676.698C451.26 677.318 430.7 689.868 430.7 689.868L416.33 698.258C416.33 698.258 401.75 691.868 408.74 689.668C410.168 689.095 411.455 688.218 412.51 687.098C419.51 680.448 428.3 663.918 428.3 663.918C428.3 663.918 428.9 655.528 431.1 651.538C433.3 647.548 432.5 605.618 432.5 605.618L432.67 537.268V528.358L460.02 528.558C460.193 531.583 460.587 534.591 461.2 537.558C462.182 542.68 463.454 547.741 465.01 552.718C469.83 568.308 467.83 594.418 461.25 613.188Z" fill="#FFB0B1"/>
<path opacity="0.1" d="M459.65 659.698C459.65 659.698 452.46 676.078 451.86 676.698C451.26 677.318 430.7 689.868 430.7 689.868L416.33 698.258C416.33 698.258 401.75 691.868 408.74 689.668C410.168 689.095 411.455 688.218 412.51 687.098L413.13 691.468L417.92 691.268L458.92 654.378C459.28 657.678 459.65 659.698 459.65 659.698Z" fill="black"/>
<path d="M459.15 655.308L417.92 692.448L413.13 692.648L412.13 685.648C412.13 685.648 403.75 696.428 385.13 695.828C385.13 695.828 373.95 703.218 390.52 703.618C407.09 704.018 428.25 703.018 428.25 703.018C428.25 703.018 443.03 680.018 455.4 683.018V700.388H459.2V682.858C460.967 681.669 462.475 680.135 463.633 678.347C464.791 676.56 465.576 674.557 465.94 672.458C466.269 670.297 466.036 668.087 465.264 666.041C464.491 663.996 463.206 662.183 461.53 660.778C460.782 660.077 460.185 659.23 459.775 658.289C459.366 657.348 459.153 656.334 459.15 655.308Z" fill="#1D2366"/>
<path d="M556.08 634.548C553.42 644.048 554.87 649.398 556.69 652.268V652.328C559.024 655.872 560.648 659.835 561.47 663.998L561.63 664.898L542.87 692.248L532.69 696.248C532.69 696.248 516.32 690.658 519.31 689.058C520.06 688.668 521.23 686.588 522.57 683.718C526.57 675.068 532.09 659.108 532.09 659.108V658.978C532.67 652.388 533.59 645.818 534.61 639.278C536.44 627.508 533.08 598.618 533.08 598.618C533.08 598.618 531.88 563.488 529.28 555.498C528.106 551.436 527.326 547.27 526.95 543.058C526.41 538.058 526.29 533.938 526.29 533.938C526.29 533.938 537.07 518.938 556.83 535.138C558.41 536.43 559.801 537.939 560.96 539.618C574.61 559.038 563.62 601.818 563.62 601.818C563.62 601.818 560.87 617.378 556.08 634.548Z" fill="#FFB0B1"/>
<path opacity="0.1" d="M561.66 664.898L542.9 692.248L532.72 696.248C532.72 696.248 516.35 690.658 519.34 689.058C520.09 688.668 521.26 686.588 522.6 683.718C529.53 683.658 533.12 690.258 533.12 690.258L541.9 688.858C541.9 688.858 553.48 666.098 556.08 664.708C558.68 663.318 556.48 654.318 556.48 654.318V652.028C556.55 652.108 556.61 652.198 556.69 652.278V652.338C559.024 655.882 560.648 659.845 561.47 664.008L561.66 664.898Z" fill="black"/>
<path d="M533.72 690.848C533.72 690.848 528.72 681.668 519.14 685.058C519.14 685.058 513.75 696.058 508.36 697.838C502.97 699.618 504.77 705.618 516.95 703.428C529.13 701.238 547.49 699.428 547.49 699.428L548.29 688.238L560.67 672.468C560.67 672.468 568.05 665.778 557.07 652.608V654.898C557.07 654.898 559.27 663.898 556.67 665.288C554.07 666.678 542.53 689.448 542.53 689.448L533.72 690.848Z" fill="#1D2366"/>
<path opacity="0.1" d="M460.05 528.538C460.223 531.563 460.617 534.571 461.23 537.538C449.97 535.888 439.52 536.708 432.67 537.248V528.338L460.05 528.538Z" fill="black"/>
<path opacity="0.1" d="M562.07 542.108C562.07 542.108 546.07 542.888 526.99 543.048C526.45 538.048 526.33 533.928 526.33 533.928C526.33 533.928 537.11 518.928 556.87 535.128C558.45 536.42 559.84 537.928 561 539.608C561.31 540.461 561.667 541.295 562.07 542.108Z" fill="black"/>
<path d="M562.07 540.308C562.07 540.308 491.99 543.698 470.63 537.708C449.27 531.718 428.1 536.908 424.91 535.518C421.72 534.128 424.31 512.358 427.11 506.968C429.91 501.578 445.27 447.068 445.27 447.068L460.05 370.008L475.62 365.718L476.72 365.408L503.85 357.928L523.73 352.438C523.73 352.438 563.26 506.768 559.87 518.148C558.639 522.506 558.44 527.09 559.29 531.538C559.808 534.576 560.743 537.527 562.07 540.308Z" fill="#1D2366"/>
<path d="M408.53 317.308C408.53 317.308 394.53 332.308 405.13 340.668C415.73 349.028 422.7 341.468 422.7 341.468L408.53 317.308Z" fill="#C7DAF5"/>
<path opacity="0.1" d="M408.53 317.308C408.53 317.308 394.53 332.308 405.13 340.668C415.73 349.028 422.7 341.468 422.7 341.468L408.53 317.308Z" fill="black"/>
<path d="M521.64 218.688C521.64 218.688 520 220.248 517.53 222.548C514.01 225.838 508.8 230.648 504.18 234.678C497.78 240.248 492.5 244.338 494.39 240.848C496.28 237.358 495.92 231.278 494.98 225.588C494.91 225.208 494.85 224.828 494.78 224.458C494.002 220.279 492.97 216.152 491.69 212.098C491.69 212.098 502.03 198.738 507.75 193.468C509.88 191.468 511.37 190.648 511.46 192.038C511.56 193.908 512.96 198.038 514.7 202.418C514.75 202.558 514.8 202.688 514.86 202.828C516.02 205.828 517.33 208.908 518.48 211.568C520.24 215.648 521.64 218.688 521.64 218.688Z" fill="#FFB0B1"/>
<path opacity="0.1" d="M514.86 202.828C513.888 208.055 511.531 212.924 508.034 216.928C504.537 220.932 500.028 223.923 494.98 225.588C494.185 221.023 493.086 216.517 491.69 212.098C491.69 212.098 511.16 186.948 511.46 192.038C511.53 193.968 513.05 198.248 514.86 202.828Z" fill="black"/>
<path opacity="0.1" d="M493.04 232.308L495.56 228.758C495.56 228.758 497.23 238.938 503.37 234.448C509.51 229.958 509.81 268.238 509.81 268.238L503.22 366.768L455.6 363.918L456.95 316.308L462.34 292.308L475.67 257.418L483.6 245.888L493.04 232.308Z" fill="black"/>
<path d="M509.81 268.848L503.81 357.938L503.18 367.378L476.63 365.788L475.63 365.728L455.63 364.528L456.98 316.908L462.37 292.908L475.7 258.018L483.63 246.488L493.07 232.858L495.59 229.318C495.59 229.318 497.26 239.498 503.4 235.008L503.53 234.918C509.53 231.118 509.81 268.848 509.81 268.848Z" fill="#1D2366"/>
<path d="M463.04 284.568C463.04 284.568 460.65 289.568 455.85 288.758C451.05 287.948 451.06 306.758 451.06 306.758C451.06 306.758 447.87 309.758 445.67 307.158C443.47 304.558 437.67 313.348 437.67 313.348L401.33 314.948C401.33 314.948 417.5 322.338 414.33 344.698C414.33 344.698 469.23 341.298 471.03 336.108C472.83 330.918 463.04 284.568 463.04 284.568Z" fill="white"/>
<path opacity="0.03" d="M463.04 284.568C463.04 284.568 460.65 289.568 455.85 288.758C451.05 287.948 451.06 306.758 451.06 306.758C451.06 306.758 447.87 309.758 445.67 307.158C443.47 304.558 437.67 313.348 437.67 313.348L401.33 314.948C401.33 314.948 417.5 322.338 414.33 344.698C414.33 344.698 469.23 341.298 471.03 336.108C472.83 330.918 463.04 284.568 463.04 284.568Z" fill="black"/>
<path d="M357.43 326.698L367.01 334.878L445.87 351.448L436.09 341.468L357.43 326.698Z" fill="white"/>
<path d="M493.19 235.458C491.88 237.458 488.13 247.698 485 256.638C482.39 264.088 480.21 270.638 480.21 270.638C480.21 270.638 475.12 303.778 472.52 309.768C469.92 315.758 471.33 339.118 471.33 339.118L461.64 396.808C461.64 396.808 457.25 426.558 450.47 444.328C443.78 461.818 436.33 470.018 436.1 470.278C439.1 466.218 455.45 386.278 455.45 386.278L460.85 285.458C460.85 285.458 461.64 275.878 462.44 267.688C463.24 259.498 479.44 248.318 479.44 248.318L495.06 226.108C496.63 228.208 495.58 231.868 493.19 235.458Z" fill="white"/>
<path d="M452.46 365.028C452.46 365.028 429.46 364.028 418.32 350.648C407.18 337.268 444.07 345.308 444.07 345.308L453.66 347.508L452.46 365.028Z" fill="#FFB0B1"/>
<path opacity="0.1" d="M559.87 518.158C558.639 522.516 558.44 527.1 559.29 531.548C534.2 533.328 507.36 526.548 507.36 526.548C502.36 531.148 489.19 537.928 489.19 537.928L482.01 448.928C477.42 436.928 475.62 374.058 475.62 374.058C475.62 374.058 476.03 370.768 476.62 365.838C476.62 365.718 476.62 365.588 476.67 365.468C478.46 351.698 482.01 325.848 483.75 322.358C486.15 317.558 476.37 304.788 476.37 304.788L480.82 266.838L481.36 262.258C490.74 258.068 497.93 244.688 497.93 244.688L503.45 235.018C509.45 231.168 509.76 268.898 509.76 268.898L503.76 357.988L523.64 352.498C523.64 352.498 563.26 506.778 559.87 518.158Z" fill="black"/>
<path d="M585.62 524.308C558.27 537.888 508.56 525.308 508.56 525.308C503.56 529.908 490.39 536.688 490.39 536.688L483.2 447.688C478.62 435.688 476.82 372.818 476.82 372.818C476.82 372.818 482.6 325.908 485 321.118C485.7 319.718 485.36 317.638 484.53 315.398C480.449 304.736 478.949 293.261 480.15 281.908L482.07 265.598L482.6 261.028C491.99 256.828 499.18 243.448 499.18 243.448L504.18 234.688L513.38 218.548L517.74 210.908L518.48 211.578L524.13 216.698C524.13 216.698 526.53 218.698 530.13 221.698C537.96 228.298 551.49 239.918 558.47 247.028C564.61 253.288 566.55 277.638 567.11 295.968C567.48 308.038 567.26 317.498 567.26 317.498C561.07 327.688 577.26 409.498 577.26 409.498C581.03 425.308 585.62 524.308 585.62 524.308Z" fill="white"/>
<path opacity="0.03" d="M533.12 243.248C533.12 243.248 514.35 278.978 516.53 292.558C518.71 306.138 524.91 321.508 521.92 325.098C520.893 326.458 519.565 327.562 518.04 328.324C516.515 329.085 514.835 329.484 513.13 329.488C510.13 329.688 502.13 335.278 502.13 335.878C502.13 336.478 494.74 336.478 488.13 339.278C481.52 342.078 471.76 343.668 471.76 343.668C471.76 343.668 452.76 343.068 450.99 344.868C449.22 346.668 447.4 357.438 451.19 366.028C454.98 374.618 459.19 381.028 462.37 382.198C465.55 383.368 485.73 376.608 502.1 375.008C518.47 373.408 536.24 360.438 536.24 360.438C536.24 360.438 555.81 353.438 559.24 341.668C562.67 329.898 555.05 265.208 555.05 265.208C555.05 265.208 549.29 235.058 533.12 243.248Z" fill="black"/>
<path opacity="0.03" d="M530.72 240.248C530.72 240.248 511.95 275.988 514.15 289.558C516.35 303.128 522.53 318.508 519.53 322.108C518.506 323.47 517.18 324.575 515.657 325.337C514.133 326.099 512.453 326.496 510.75 326.498C507.75 326.698 499.75 332.288 499.75 332.888C499.75 333.488 492.36 333.488 485.75 336.278C479.14 339.068 469.38 340.668 469.38 340.668C469.38 340.668 450.38 340.068 448.62 341.868C446.86 343.668 445.02 354.448 448.82 363.028C452.62 371.608 456.82 378.028 460 379.198C463.18 380.368 483.36 373.608 499.73 372.018C516.1 370.428 533.87 357.438 533.87 357.438C533.87 357.438 553.43 350.438 556.82 338.678C560.21 326.918 552.63 262.208 552.63 262.208C552.63 262.208 546.89 232.068 530.72 240.248Z" fill="black"/>
<path d="M532.53 241.448C532.53 241.448 513.76 277.188 515.96 290.758C518.16 304.328 524.34 319.708 521.35 323.298C520.326 324.663 518.999 325.771 517.474 326.535C515.948 327.298 514.266 327.697 512.56 327.698C509.56 327.898 501.56 333.488 501.56 334.078C501.56 334.668 494.18 334.678 487.56 337.478C480.94 340.278 471.19 341.868 471.19 341.868C471.19 341.868 452.19 341.268 450.42 343.068C448.65 344.868 446.83 355.648 450.62 364.228C454.41 372.808 458.62 379.228 461.8 380.398C464.98 381.568 485.16 374.808 501.53 373.208C517.9 371.608 535.67 358.638 535.67 358.638C535.67 358.638 555.24 351.638 558.67 339.868C562.1 328.098 554.53 263.408 554.53 263.408C554.53 263.408 548.69 233.308 532.53 241.448Z" fill="white"/>
<path opacity="0.1" d="M532.12 337.308C532.12 337.308 517.12 334.308 522.34 339.308C527.56 344.308 527.53 348.688 533.92 348.488C540.31 348.288 532.12 337.308 532.12 337.308Z" fill="black"/>
<path opacity="0.1" d="M557.47 444.888C557.47 444.888 550.69 449.478 563.66 460.058C576.63 470.638 557.47 444.888 557.47 444.888Z" fill="black"/>
<path opacity="0.1" d="M544.53 482.618C544.53 483.218 542.13 504.618 551.11 509.968C560.09 515.318 544.53 482.618 544.53 482.618Z" fill="black"/>
<path d="M401.95 314.898C394.71 315.148 379.07 317.358 387.18 332.488C394.35 345.878 406.4 336.928 413.18 330.138C411.526 323.808 407.507 318.353 401.95 314.898Z" fill="#FFB0B1"/>
<path opacity="0.1" d="M530.13 222.308C522.45 227.558 516.01 231.988 514.75 232.908C511.31 235.458 504.75 250.428 500.52 258.068C497.15 264.218 486.2 265.798 482.07 266.188L482.6 261.618C491.99 257.418 499.18 244.038 499.18 244.038L517.74 211.498L524.13 217.308C524.13 217.308 526.53 219.308 530.13 222.308Z" fill="black"/>
<path d="M530.13 221.708C522.45 226.958 516.01 231.388 514.75 232.318C511.31 234.858 504.75 249.828 500.52 257.468C497.15 263.618 486.2 265.198 482.07 265.588L482.6 261.018C491.99 256.818 499.18 243.438 499.18 243.438L517.74 210.898L524.13 216.688C524.13 216.688 526.53 218.668 530.13 221.708Z" fill="#DCE7FF"/>
<path d="M515.35 196.228C515.354 202.231 513.534 208.093 510.13 213.038C506.11 218.884 500.128 223.096 493.268 224.909C486.409 226.722 479.126 226.015 472.743 222.918C466.36 219.821 461.298 214.539 458.476 208.029C455.655 201.519 455.26 194.213 457.364 187.437C459.468 180.661 463.932 174.864 469.944 171.098C475.957 167.331 483.121 165.845 490.136 166.908C497.151 167.972 503.552 171.515 508.178 176.894C512.804 182.274 515.349 189.133 515.35 196.228Z" fill="#FFB0B1"/>
<path opacity="0.1" d="M567.11 295.978C563.049 293.48 559.742 289.927 557.54 285.698C555.87 282.398 554.76 278.588 551.91 276.248C549.34 274.148 545.91 273.638 542.71 272.698C532.19 269.588 523.37 259.988 523.04 249.028C522.88 243.868 524.49 238.718 523.76 233.608C523.345 230.716 522.195 227.979 520.42 225.658C519.539 224.548 518.572 223.509 517.53 222.548C516.13 221.228 514.66 219.948 513.38 218.548C512.574 217.681 511.869 216.725 511.28 215.698C510.804 214.858 510.419 213.97 510.13 213.048C508.13 206.928 509.95 199.668 507.75 193.478L507.63 193.138C506.8 190.938 505.11 188.738 502.76 188.568C500.41 188.398 498.4 190.348 496.16 191.218C491.47 193.038 486.41 189.938 482.5 186.778C478.59 183.618 474.18 180.008 469.21 180.708C465.92 181.178 463.32 183.418 460.29 184.578C459.606 184.843 458.9 185.047 458.18 185.188C460.744 178.793 465.456 173.491 471.504 170.192C477.553 166.894 484.562 165.805 491.327 167.112C498.091 168.42 504.19 172.042 508.573 177.357C512.957 182.672 515.354 189.348 515.35 196.238C515.353 198.319 515.135 200.394 514.7 202.428C514.75 202.568 514.8 202.698 514.86 202.838C516.02 205.838 517.33 208.918 518.48 211.578L524.13 216.698C524.13 216.698 526.53 218.698 530.13 221.698C537.96 228.298 551.49 239.918 558.47 247.028C564.61 253.308 566.53 277.648 567.11 295.978Z" fill="black"/>
<path d="M459.94 166.308C461.37 163.398 462.08 160.138 463.79 157.378C466.3 153.378 470.68 150.818 475.18 149.268C486.93 145.218 511.76 139.338 519.18 149.268C520.64 151.268 521.85 153.488 523.87 154.868C525.41 155.918 527.27 156.368 528.96 157.158C533.69 159.378 536.71 164.218 538.32 169.158C539.93 174.098 540.41 179.398 541.59 184.488C543.1 191.018 545.75 197.208 548.39 203.358C551.5 210.618 554.8 218.148 560.8 223.278C568.99 230.278 570.8 240.188 578.4 247.868C587.4 256.988 587.11 272.038 582.47 283.988C581.86 285.558 581.17 287.198 581.41 288.868C581.65 290.538 582.89 292.058 584.06 293.388L588.98 298.938C577.34 301.748 564.17 295.668 558.75 284.998C557.08 281.698 555.97 277.898 553.11 275.548C550.55 273.448 547.11 272.948 543.92 272.008C533.4 268.888 524.58 259.278 524.25 248.318C524.09 243.168 525.7 238.018 524.97 232.918C524.564 230.007 523.41 227.25 521.62 224.918C518.87 221.328 514.72 218.918 512.48 214.918C508.69 208.228 511.57 199.538 508.84 192.358C508 190.158 506.32 187.958 503.97 187.788C501.62 187.618 499.61 189.568 497.36 190.438C492.68 192.258 487.62 189.168 483.71 185.998C479.8 182.828 475.39 179.228 470.41 179.938C467.12 180.398 464.53 182.638 461.5 183.808C459.26 184.668 454.72 185.438 452.76 183.548C448.62 179.738 458.21 169.868 459.94 166.308Z" fill="#591D4B"/>
<path opacity="0.1" d="M561.53 281.698C559.85 278.398 558.75 274.598 555.89 272.258C553.33 270.158 549.89 269.648 546.69 268.708C536.18 265.598 527.36 255.988 527.02 245.028C526.86 239.878 528.47 234.718 527.75 229.618C527.331 226.726 526.178 223.988 524.4 221.668C521.64 218.078 517.49 215.668 515.26 211.668C511.47 204.988 514.35 196.298 511.61 189.108C510.78 186.918 509.09 184.718 506.75 184.538C504.41 184.358 502.38 186.328 500.14 187.198C495.46 189.018 490.39 185.918 486.49 182.758C482.59 179.598 478.16 175.988 473.19 176.688C469.9 177.158 467.3 179.398 464.28 180.558C462.04 181.418 457.49 182.198 455.53 180.308C451.41 176.308 461 166.458 462.72 162.918C464.15 159.998 464.86 156.748 466.58 153.988C466.67 153.838 466.77 153.688 466.87 153.538C465.583 154.604 464.473 155.866 463.58 157.278C461.87 160.038 461.16 163.278 459.73 166.208C458 169.748 448.41 179.628 452.54 183.598C454.54 185.498 459.04 184.718 461.28 183.858C464.28 182.688 466.9 180.448 470.19 179.988C475.19 179.278 479.59 182.888 483.49 186.048C487.39 189.208 492.49 192.308 497.15 190.488C499.39 189.618 501.35 187.658 503.75 187.838C506.15 188.018 507.75 190.208 508.62 192.408C511.35 199.588 508.47 208.278 512.26 214.968C514.5 218.898 518.65 221.358 521.4 224.968C523.19 227.3 524.344 230.057 524.75 232.968C525.48 238.068 523.87 243.218 524.03 248.368C524.36 259.368 533.18 268.938 543.7 272.058C546.87 272.998 550.33 273.498 552.89 275.598C555.76 277.948 556.89 281.748 558.53 285.048C563.95 295.718 577.12 301.798 588.76 298.988L586.44 296.368C576.35 296.518 566.14 290.778 561.53 281.698Z" fill="black"/>
<path opacity="0.1" d="M492.59 236.058C491.28 238.058 487.53 248.298 484.4 257.238C481.47 256.098 478.81 248.828 478.81 248.828L494.43 226.608C496.03 228.808 494.98 232.458 492.59 236.058Z" fill="black"/>
<path d="M493.19 235.458C491.88 237.458 488.13 247.698 485 256.638C482.07 255.508 479.41 248.228 479.41 248.228L495.03 226.018C496.63 228.208 495.58 231.868 493.19 235.458Z" fill="#DCE7FF"/>
<path d="M402.37 337.618L393.71 310.308C393.607 309.989 393.569 309.652 393.597 309.317C393.625 308.982 393.719 308.657 393.873 308.358C394.027 308.06 394.239 307.795 394.496 307.579C394.753 307.363 395.05 307.199 395.37 307.098C396.015 306.897 396.712 306.959 397.312 307.269C397.911 307.58 398.363 308.115 398.57 308.758L407.23 336.038L406.37 341.748L402.37 337.618Z" fill="#BE8B87"/>
<path opacity="0.1" d="M394.53 307.908C395.176 307.704 395.876 307.764 396.478 308.075C397.08 308.386 397.533 308.923 397.74 309.568L406.4 336.848L405.75 341.128L406.38 341.788L407.24 336.078L398.53 308.798C398.323 308.156 397.871 307.62 397.272 307.31C396.672 306.999 395.975 306.937 395.33 307.138C394.788 307.314 394.32 307.666 394 308.138C394.17 308.047 394.347 307.97 394.53 307.908Z" fill="white"/>
<path d="M402.37 337.618L407.23 336.078L406.52 340.758L406.37 341.788L404.95 340.308L402.37 337.618Z" fill="#EFC8C4"/>
<path d="M404.95 340.308C405.035 340.201 405.14 340.113 405.26 340.048C405.33 340.004 405.412 339.98 405.495 339.98C405.578 339.98 405.66 340.004 405.73 340.048C405.798 340.131 405.855 340.221 405.9 340.318C405.966 340.429 406.056 340.523 406.163 340.594C406.271 340.665 406.393 340.711 406.52 340.728L406.37 341.728L404.95 340.308Z" fill="#727A9C"/>
<path d="M393.66 320.008C393.66 320.008 411.03 319.908 406.94 327.298C402.85 334.688 396.46 335.578 396.46 335.578L393.66 320.008Z" fill="#FFB0B1"/>
<path d="M376.103 0H375.489C351.056 0 329.448 11.8516 317.019 29.3399C304.59 11.8516 282.982 0 258.549 0H257.935C239.598 0.160179 222.072 6.94732 209.164 18.8865C196.256 30.8257 189.01 46.9521 189 63.7612C189 84.6347 198.973 114.252 218.419 138.623C255.47 185.061 317.019 225.69 317.019 225.69C317.019 225.69 378.568 185.069 415.61 138.623C435.065 114.252 445.03 84.6347 445.03 63.7612C445.02 46.9533 437.775 30.8281 424.869 18.8891C411.963 6.95015 394.438 0.162144 376.103 0ZM367.318 142.196C364.535 142.186 361.821 141.406 359.531 139.956C357.241 138.507 355.483 136.457 354.487 134.075H339.88C338.918 134.069 337.982 133.789 337.202 133.272C336.423 132.755 335.839 132.028 335.532 131.193L331.045 118.801L316.847 164.278C316.571 165.154 315.992 165.923 315.197 166.471C314.403 167.019 313.436 167.316 312.442 167.318H312.155C311.118 167.272 310.129 166.901 309.354 166.267C308.579 165.633 308.065 164.775 307.898 163.835L293.266 83.1636L282.572 130.9C282.327 131.807 281.758 132.612 280.955 133.188C280.152 133.763 279.162 134.076 278.143 134.075H257.566C256.949 134.099 256.334 134.008 255.756 133.808C255.178 133.608 254.651 133.304 254.205 132.912C253.76 132.52 253.405 132.05 253.163 131.53C252.92 131.009 252.795 130.449 252.795 129.883C252.795 129.317 252.92 128.757 253.163 128.236C253.405 127.716 253.76 127.246 254.205 126.854C254.651 126.463 255.178 126.158 255.756 125.958C256.334 125.758 256.949 125.667 257.566 125.691H274.54L289.688 61.5095C289.936 60.5606 290.537 59.7203 291.386 59.1324C292.236 58.5444 293.282 58.2452 294.346 58.286C295.41 58.3268 296.425 58.705 297.218 59.3559C298.011 60.0069 298.533 60.8902 298.694 61.8548L313.637 144.148L326.361 103.459C326.626 102.602 327.187 101.847 327.958 101.306C328.73 100.765 329.672 100.467 330.644 100.457H330.734C331.696 100.457 332.634 100.736 333.413 101.253C334.192 101.771 334.773 102.501 335.074 103.339L343.188 125.714H354.307C355.098 123.512 356.536 121.553 358.465 120.054C360.393 118.554 362.736 117.572 365.234 117.216C367.733 116.86 370.29 117.144 372.624 118.036C374.958 118.928 376.977 120.394 378.46 122.272C379.942 124.15 380.83 126.366 381.024 128.677C381.219 130.988 380.714 133.304 379.564 135.368C378.414 137.433 376.664 139.165 374.507 140.376C372.35 141.586 369.871 142.226 367.342 142.226L367.318 142.196Z" fill="#181818"/>
<defs>
<linearGradient id="paint0_linear_1_172" x1="107.95" y1="712.341" x2="107.95" y2="97.0011" gradientUnits="userSpaceOnUse">
<stop stop-color="#808080" stop-opacity="0.25"/>
<stop offset="0.54" stop-color="#808080" stop-opacity="0.12"/>
<stop offset="1" stop-color="#808080" stop-opacity="0.1"/>
</linearGradient>
<linearGradient id="paint1_linear_1_172" x1="473.2" y1="704.028" x2="473.2" y2="142.028" gradientUnits="userSpaceOnUse">
<stop stop-color="#808080" stop-opacity="0.25"/>
<stop offset="0.54" stop-color="#808080" stop-opacity="0.12"/>
<stop offset="1" stop-color="#808080" stop-opacity="0.1"/>
</linearGradient>
</defs>
</svg>
