<svg width="575" height="790" viewBox="0 0 575 790" fill="none" xmlns="http://www.w3.org/2000/svg">
<g id="mainsvg">
<g id="doctors">
<g id="Group 39">
<path id="Vector" opacity="0.1" d="M119 789.771C172.815 789.771 216.44 782.764 216.44 774.121C216.44 765.478 172.815 758.471 119 758.471C65.1854 758.471 21.5601 765.478 21.5601 774.121C21.5601 782.764 65.1854 789.771 119 789.771Z" fill="#181818"/>
<path id="Vector_2" d="M213.22 387.141C213.22 387.141 209.28 386.591 209.28 380.851C209.28 375.111 206.46 364.391 206.46 364.391C206.46 364.341 204.02 345.721 200.65 342.761C197.28 339.801 192.95 322.421 192.95 322.421C192.95 322.421 192.21 312.991 190.7 310.961C189.19 308.931 187.15 303.961 184.14 296.871C181.13 289.781 168.58 284.871 168.58 284.871C168.58 284.871 145.89 271.711 139.46 267.421C138.876 267.069 138.329 266.656 137.83 266.191C136.71 264.721 131.83 264.691 131.83 264.691C131.32 261.471 130.83 257.771 130.67 254.421C130.67 254.061 130.67 253.701 130.62 253.341C137.79 249.103 143.19 242.421 145.83 234.521C145.95 234.141 146.05 233.741 146.16 233.361C146.59 233.22 146.985 232.99 147.321 232.687C147.657 232.384 147.925 232.014 148.11 231.601C148.69 230.311 148.7 228.801 149.42 227.601C150.26 226.181 151.86 225.421 153.12 224.351C156.3 221.651 157.12 217.101 156.97 212.961C156.87 209.611 156.33 206.231 156.54 202.901L156.6 202.061C156.66 201.561 156.73 201.061 156.82 200.581C157.31 198.101 158.38 195.761 158.98 193.301C159.58 190.841 159.64 188.071 158.24 185.951C156.19 182.841 151.92 182.221 148.17 181.901C143.92 181.541 140.12 182.011 137.4 178.481C136.127 176.636 134.695 174.906 133.12 173.311C132.56 172.791 127.12 169.471 127.12 169.251C121.811 166.792 115.792 166.33 110.17 167.951C107.35 168.771 104.69 170.111 101.83 170.781C95.66 172.241 88.56 170.661 83.32 174.191C80.4 176.191 78.65 179.371 77.01 182.471C75.6767 185.024 74.3233 187.574 72.95 190.121C70.74 194.311 68.49 198.571 67.56 203.211C67.3644 204.221 67.2441 205.244 67.2 206.271V206.321C67.2 206.691 67.2 207.061 67.2 207.431V207.901C67.2 208.251 67.2 208.591 67.26 208.901C67.32 209.211 67.31 209.311 67.34 209.521C67.37 209.731 67.42 210.201 67.48 210.521C67.54 210.841 67.66 211.401 67.78 211.841C67.83 212.031 67.9 212.211 67.96 212.391C68.06 212.731 68.18 213.061 68.31 213.391C68.38 213.561 68.45 213.741 68.53 213.911C68.68 214.261 68.86 214.601 69.04 214.911C69.12 215.051 69.18 215.181 69.26 215.311C69.539 215.776 69.8462 216.224 70.18 216.651C72.32 219.321 75.47 221.021 77.8 223.521C77.8 223.621 77.8 223.721 77.8 223.811C77.8 224.091 77.8 224.361 77.8 224.641C77.9236 230.217 79.4076 235.678 82.123 240.549C84.8383 245.42 88.7027 249.554 93.38 252.591C93.38 252.971 93.43 253.361 93.45 253.741C93.645 256.709 93.6082 259.688 93.34 262.651C92.9328 262.172 92.4231 261.79 91.8484 261.533C91.2738 261.277 90.6489 261.153 90.02 261.171C89.5903 261.15 89.1598 261.187 88.74 261.281L88.65 261.211V261.301C86.45 261.841 83.74 264.131 81.15 270.641C81.15 270.641 73.27 279.521 67.27 279.151C61.27 278.781 46.08 288.391 46.08 288.391C46.08 288.391 31.26 298.011 28.08 307.811C26.3025 313.368 24.1715 318.806 21.7 324.091L3.38 361.841L0 391.791C0 391.791 1.87 405.111 1.5 407.141C1.13 409.171 9.19 427.481 9.19 427.481C9.19 427.481 35.82 474.271 46.7 476.671L47.48 476.121C47.9455 476.364 48.4392 476.549 48.95 476.671L51.19 475.091C51.3245 476.852 51.2675 478.622 51.02 480.371C49.52 484.991 51.58 515.141 54.2 521.051C56.82 526.961 55.89 604.451 55.89 604.451L55.52 611.291C55.52 611.291 55.52 611.511 55.61 611.891L55.52 613.511L55.79 613.651C56.0704 615.821 55.9791 618.022 55.52 620.161C54.58 623.161 54.2 631.641 54.2 631.641C54.2 631.641 46.71 679.521 50.26 689.141C53.81 698.761 56.83 709.301 56.83 709.301C56.83 709.301 60.58 721.301 57.01 723.351C53.44 725.401 43.29 728.841 45.38 733.841C47.28 738.461 54.49 750.841 55.56 752.651L55.47 753.601L54 769.531C54.238 771.634 54.8085 773.687 55.69 775.611C57.3 779.081 60.43 782.681 66.38 782.291C67.38 782.221 68.54 782.101 69.66 781.951C80.55 780.491 93.96 775.631 93.96 775.631C93.2638 775.189 92.6255 774.661 92.06 774.061C91.5247 773.543 91.1006 772.921 90.8135 772.233C90.5264 771.545 90.3823 770.806 90.39 770.061C90.55 767.161 85.12 753.341 83.77 749.941C83.56 749.451 83.45 749.171 83.45 749.171C83.45 749.171 95.83 736.231 93.77 724.761C93.77 724.761 80.07 716.761 84.58 712.371C89.09 707.981 97.15 695.371 97.15 695.371C97.15 695.371 97.52 648.221 97.15 641.181C96.7641 636.295 96.9959 631.379 97.84 626.551C97.99 625.821 98.17 625.111 98.36 624.411C104.597 625.342 110.894 625.82 117.2 625.841C119.5 625.841 121.84 625.841 124.2 625.701C124.2 626.368 124.23 627.088 124.29 627.861C124.81 639.541 125.78 660.021 126.57 667.631C127.69 678.541 133.88 707.941 133.88 707.941C133.88 707.941 122.07 715.521 135.94 734.201C135.94 734.201 135.94 740.971 135.02 741.951C134.038 745.155 133.246 748.414 132.65 751.711C132.07 755.231 131.83 758.791 132.77 760.641C135.02 765.061 148.52 764.701 148.52 764.701L148.85 764.641C151.399 764.378 153.974 764.623 156.427 765.363C158.88 766.103 161.162 767.322 163.14 768.951C168.27 773.071 187.74 771.261 198.28 769.951C202.41 769.431 205.17 768.951 205.17 768.951C205.304 768.484 205.351 767.996 205.31 767.511C205.2 764.921 203.17 759.241 189.41 754.171C189.41 754.171 176.47 745.471 176.65 737.891H176.38H174.88C175.97 737.831 176.67 737.891 176.67 737.891C176.67 737.891 171.6 719.391 173.67 717.891C175.74 716.391 169.54 695.891 169.54 695.891C169.54 695.891 165.99 661.491 165.8 659.081C165.808 657.013 166.121 654.958 166.73 652.981L165.8 634.121C165.8 634.121 165.62 627.851 165.8 625.811C165.77 624.04 165.626 622.273 165.37 620.521C165.28 619.821 165.19 619.091 165.09 618.371C169.94 617.141 173.09 616.001 173.09 616.001L172.53 550.351C176.65 542.351 177.41 524.801 177.39 512.351C177.39 504.351 177.03 498.431 177.03 498.431L182.66 489.241C182.66 489.241 183.96 478.241 181.9 475.831C180.99 474.741 181.4 473.611 182.15 472.681C182.54 472.372 182.951 472.092 183.38 471.841C183.38 471.841 183.32 471.751 183.25 471.621C183.643 471.293 184.061 470.995 184.5 470.731C184.5 470.731 182.5 467.631 184.29 466.321C185.97 467.461 187.47 468.321 188.61 469.021C188.53 469.751 188.45 470.171 188.45 470.171L188.93 469.171C190.03 469.791 190.7 470.171 190.7 470.171C190.7 470.171 199.52 452.601 199.33 450.011C199.14 447.421 205.33 436.511 205.33 436.511C205.33 436.511 206.08 430.781 209.46 428.381C212.84 425.981 212.08 408.591 212.08 408.591C212.08 408.591 213.02 399.531 215.27 395.831C217.52 392.131 213.22 387.141 213.22 387.141ZM44.46 379.431L44.63 383.621C43.63 382.011 42.91 380.851 42.91 380.851L44.46 379.431Z" fill="url(#paint0_linear_181_114)"/>
<path id="Vector_3" d="M191.18 462.581L189.02 471.781C189.02 471.781 171.72 462.951 168.6 451.731C165.48 440.511 173.82 436.251 173.82 436.251L189.94 443.081L191.18 462.581Z" fill="white"/>
<path id="Vector_4" opacity="0.1" d="M191.18 462.581L189.02 471.781C189.02 471.781 171.72 462.951 168.6 451.731C165.48 440.511 173.82 436.251 173.82 436.251L189.94 443.081L191.18 462.581Z" fill="black"/>
<path id="Vector_5" d="M94.0902 775.691C94.0902 775.691 78.0902 781.571 67.0902 782.311C61.2502 782.701 58.1802 779.121 56.6002 775.671C55.7371 773.753 55.1803 771.712 54.9502 769.621L56.3802 753.771L57.1402 745.331L80.5102 739.261L83.8202 749.381L84.1302 750.151C85.4602 753.531 90.7902 767.281 90.6302 770.151C90.6236 770.886 90.7655 771.615 91.0473 772.294C91.3291 772.972 91.7451 773.587 92.2702 774.101C92.8068 774.706 93.4184 775.241 94.0902 775.691Z" fill="white"/>
<path id="Vector_6" d="M203.38 767.631C203.42 768.112 203.373 768.597 203.24 769.061C203.24 769.061 169.02 774.771 162.02 769.061C160.046 767.393 157.746 766.156 155.266 765.429C152.786 764.703 150.182 764.502 147.62 764.841C147.62 764.841 134.38 765.201 132.17 760.841C131.25 759.011 131.49 755.461 132.06 751.961C132.641 748.682 133.416 745.439 134.38 742.251L134.91 741.831L138.06 739.301L174.94 738.211H175.22C175.04 745.751 187.74 754.401 187.74 754.401C201.23 759.401 203.22 765.051 203.38 767.631Z" fill="white"/>
<path id="Vector_7" opacity="0.1" d="M203.38 767.631C203.415 768.113 203.364 768.597 203.23 769.061C203.23 769.061 169.02 774.771 162.02 769.061C160.048 767.394 157.749 766.158 155.271 765.431C152.793 764.705 150.19 764.504 147.63 764.841C147.63 764.841 134.38 765.201 132.18 760.841C131.26 759.001 131.49 755.461 132.06 751.961C137.16 752.471 145.21 753.741 148.37 756.771C153.15 761.381 161.25 765.981 166.22 766.341C170.11 766.591 193.38 767.331 203.38 767.631Z" fill="black"/>
<path id="Vector_8" opacity="0.1" d="M94.0898 775.691C94.0898 775.691 78.0898 781.571 67.0898 782.311C61.2498 782.701 58.1799 779.121 56.6099 775.661C60.6799 777.031 66.3299 778.471 69.2999 777.151C72.8199 775.591 85.2999 774.581 92.2999 774.151C92.8326 774.734 93.4336 775.251 94.0898 775.691Z" fill="black"/>
<path id="Vector_9" d="M117.83 301.841C104.63 296.711 87.6499 279.761 91.8899 271.841C92.8316 269.843 93.3912 267.686 93.5399 265.481C93.8127 262.489 93.8528 259.48 93.6599 256.481C93.3626 251.57 92.7716 246.682 91.8899 241.841C91.8899 241.841 133.1 242.771 130.7 248.841C130 250.621 129.89 253.711 130.08 257.171C130.27 260.631 130.77 264.541 131.29 267.851C132.01 272.391 132.73 275.851 132.73 275.851C132.73 275.851 130.21 279.381 128.73 279.571C127.25 279.761 136.77 309.151 117.83 301.841Z" fill="#CF6F80"/>
<path id="Vector_10" opacity="0.1" d="M84.1001 750.151L83.7901 750.491C71.4701 735.591 56.5701 754.161 56.5701 754.161L56.3501 753.771L57.1101 745.331L80.4801 739.261L83.7901 749.381L84.1001 750.151Z" fill="black"/>
<path id="Vector_11" opacity="0.1" d="M175.23 739.261C175.23 739.261 166.23 739.071 161.43 743.311C156.63 747.551 133.43 744.231 134.43 743.311C134.726 742.855 134.905 742.333 134.95 741.791L138.1 739.261L174.98 738.171C175.12 738.841 175.23 739.261 175.23 739.261Z" fill="black"/>
<path id="Vector_12" d="M99.4298 622.251C98.7595 623.908 98.2505 625.626 97.9098 627.381C97.0759 632.187 96.8441 637.078 97.2198 641.941C97.5898 648.941 97.2198 695.851 97.2198 695.851C97.2198 695.851 89.3098 708.361 84.8998 712.771C80.4898 717.181 93.8998 725.101 93.8998 725.101C95.8998 736.501 83.7798 749.381 83.7798 749.381C71.4598 734.481 56.5598 753.061 56.5598 753.061C56.5598 753.061 48.4598 739.061 46.4398 734.061C44.4198 729.061 54.3498 725.601 57.8398 723.571C61.3298 721.541 57.6698 709.571 57.6698 709.571C57.6698 709.571 54.7198 699.081 51.2198 689.511C47.7198 679.941 55.0798 632.301 55.0798 632.301C55.0798 632.301 55.4598 623.841 56.3698 620.891C56.829 618.762 56.9203 616.571 56.6398 614.411C56.5798 613.681 56.5098 613.071 56.4598 612.661C56.4098 612.251 56.3698 612.061 56.3698 612.061L56.5098 611.821L61.5098 602.501C61.5098 602.501 101.83 616.381 99.4298 622.251Z" fill="#181818"/>
<path id="Vector_13" d="M175.23 738.161C175.23 738.161 166.23 737.971 161.43 742.161C156.63 746.351 133.43 743.081 134.43 742.161C135.43 741.241 135.35 734.431 135.35 734.431C121.74 715.851 133.35 708.311 133.35 708.311C133.35 708.311 127.27 679.061 126.17 668.211C125.4 660.631 124.45 640.261 123.94 628.631C123.72 623.631 123.59 620.191 123.59 620.191L134.71 617.951L136.14 617.661L162.96 612.281C162.96 612.281 163.7 617.281 164.2 621.371C164.449 623.118 164.589 624.878 164.62 626.641C164.44 628.641 164.62 634.901 164.62 634.901L165.53 653.671C164.935 655.64 164.629 657.685 164.62 659.741C164.8 662.131 168.29 696.351 168.29 696.351C168.29 696.351 174.36 716.771 172.29 718.241C170.22 719.711 175.23 738.161 175.23 738.161Z" fill="#181818"/>
<path id="Vector_14" opacity="0.1" d="M130.7 248.841C130 250.621 129.89 253.711 130.08 257.171C124.56 260.495 118.215 262.195 111.772 262.074C105.33 261.954 99.0521 260.019 93.6601 256.491C93.3633 251.577 92.7722 246.685 91.8901 241.841C91.8901 241.841 133.1 242.751 130.7 248.841Z" fill="black"/>
<path id="Vector_15" d="M146.63 226.741C146.638 230.345 146.071 233.926 144.95 237.351C142.445 245.025 137.307 251.566 130.446 255.818C123.584 260.07 115.44 261.76 107.453 260.588C99.4667 259.417 92.1511 255.459 86.7999 249.416C81.4486 243.372 78.4061 235.631 78.2101 227.561C78.2101 227.281 78.2101 227.021 78.2101 226.741C78.1324 222.199 78.96 217.686 80.6446 213.467C82.3292 209.248 84.8371 205.407 88.022 202.167C91.2068 198.927 95.0049 196.354 99.1947 194.597C103.384 192.841 107.882 191.936 112.425 191.936C116.968 191.936 121.466 192.841 125.656 194.597C129.845 196.354 133.643 198.927 136.828 202.167C140.013 205.407 142.521 209.248 144.206 213.467C145.89 217.686 146.718 222.199 146.64 226.741H146.63Z" fill="#CF6F80"/>
<path id="Vector_16" opacity="0.1" d="M117.83 301.841C104.63 296.711 87.6499 279.761 91.8899 271.841C92.8316 269.843 93.3912 267.686 93.5399 265.481L111.61 280.331L122.79 289.501L131.29 267.861C132.01 272.401 132.73 275.861 132.73 275.861C132.73 275.861 130.21 279.391 128.73 279.581C127.25 279.771 136.77 309.151 117.83 301.841Z" fill="black"/>
<path id="Vector_17" d="M164.56 367.471L149.47 620.971L129.79 622.261L78.8301 475.271L87.1901 300.761L88.9501 263.891L111.61 282.501L122.8 291.671L131.55 269.401L147.82 283.581L164.56 367.471Z" fill="#181818"/>
<path id="Vector_18" opacity="0.1" d="M99.4299 622.251C98.7596 623.908 98.2506 625.626 97.9099 627.381C83.5898 625.17 69.6819 620.825 56.6499 614.491L56.3799 614.351L56.4699 612.741L56.5199 611.901L61.5199 602.581C61.5199 602.581 101.83 616.381 99.4299 622.251Z" fill="black"/>
<path id="Vector_19" opacity="0.1" d="M134.94 627.421C131.28 628.044 127.587 628.464 123.88 628.681C123.66 623.681 123.53 620.241 123.53 620.241L134.65 618.001L134.94 627.421Z" fill="black"/>
<path id="Vector_20" opacity="0.1" d="M164.14 621.421C157.03 623.271 146.05 625.351 136.22 624.051L136.08 617.711L162.9 612.331C162.9 612.331 163.64 617.281 164.14 621.421Z" fill="black"/>
<path id="Vector_21" opacity="0.1" d="M136.04 625.211C95.0399 632.211 57.4899 612.141 57.4899 612.141L57.8499 605.341C57.8499 605.341 58.7799 528.251 56.1999 522.341C53.6199 516.431 51.6099 486.461 53.0699 481.861C54.5299 477.261 47.7399 408.281 47.7399 408.281L46.6399 380.281L6.37988 363.971L24.3799 326.451C26.8111 321.191 28.9021 315.78 30.6399 310.251C33.7699 300.511 48.2999 290.941 48.2999 290.941C48.2999 290.941 63.1999 281.381 69.0899 281.741C74.9799 282.101 82.6999 273.281 82.6999 273.281C88.3999 258.751 93.5599 265.331 93.5599 265.331C93.5599 266.021 93.5599 265.331 93.2799 267.481C91.2799 283.431 125.62 333.831 126.11 334.721L129.38 414.381L132.69 515.191L136.04 625.211Z" fill="black"/>
<path id="Vector_22" d="M134.94 625.211C93.94 632.211 56.38 612.141 56.38 612.141L56.75 605.341C56.75 605.341 57.68 528.251 55.09 522.341C52.5 516.431 50.5 486.461 51.97 481.861C53.44 477.261 46.64 408.281 46.64 408.281L45.53 380.281L5.25 363.911L23.25 326.391C25.6759 321.128 27.7668 315.718 29.51 310.191C32.63 300.451 47.17 290.881 47.17 290.881C47.17 290.881 62.07 281.321 67.95 281.681C73.83 282.041 81.56 273.221 81.56 273.221C87.27 258.691 93.56 265.271 93.56 265.271C93.56 265.961 92.96 266.271 93.28 267.421C97.68 282.891 124.52 333.771 125.01 334.661L128.32 414.321L131.63 515.131L134.94 625.211Z" fill="white"/>
<path id="Vector_23" opacity="0.1" d="M123.89 336.931C119.48 335.091 96.1201 308.421 96.1201 308.421V302.351C95.2701 300.351 90.2201 301.571 86.1201 302.971L87.8801 266.101L89.8801 267.761C94.2601 283.221 123.38 336.041 123.89 336.931Z" fill="black"/>
<path id="Vector_24" d="M125 334.721C120.58 332.881 97.2197 306.211 97.2197 306.211V300.141C96.3697 298.141 91.3197 299.361 87.2197 300.761L88.9897 263.891L90.9897 265.551C95.3797 281.011 124.51 333.841 125 334.721Z" fill="white"/>
<path id="Vector_25" opacity="0.1" d="M57.4902 467.731C58.0402 467.731 86.0002 464.791 86.0002 464.791C86.0002 464.791 102.93 498.081 101.82 506.181C100.71 514.281 98.7003 521.451 91.8903 520.181C85.0803 518.911 55.2402 521.181 55.2402 521.181L57.4902 467.731Z" fill="black"/>
<path id="Vector_26" d="M56.3799 465.521C56.9299 465.521 84.8899 462.581 84.8899 462.581C84.8899 462.581 101.81 495.881 100.71 503.971C99.6099 512.061 97.5799 519.241 90.7799 517.971C83.9799 516.701 54.1299 518.971 54.1299 518.971L56.3799 465.521Z" fill="white"/>
<path id="Vector_27" d="M77.4502 449.891C77.4502 449.891 103.11 463.681 103.66 467.891C104.21 472.101 90.6002 466.051 87.6602 465.321C85.7251 464.855 83.7553 464.547 81.7702 464.401L62.1602 464.931L77.4502 449.891Z" fill="#CF6F80"/>
<path id="Vector_28" opacity="0.1" d="M116.73 338.651C118.221 338.651 119.43 337.442 119.43 335.951C119.43 334.46 118.221 333.251 116.73 333.251C115.239 333.251 114.03 334.46 114.03 335.951C114.03 337.442 115.239 338.651 116.73 338.651Z" fill="black"/>
<path id="Vector_29" d="M116.73 337.551C118.221 337.551 119.43 336.342 119.43 334.851C119.43 333.36 118.221 332.151 116.73 332.151C115.239 332.151 114.03 333.36 114.03 334.851C114.03 336.342 115.239 337.551 116.73 337.551Z" fill="#3F3D56"/>
<path id="Vector_30" opacity="0.1" d="M121.7 455.531C123.191 455.531 124.4 454.322 124.4 452.831C124.4 451.34 123.191 450.131 121.7 450.131C120.209 450.131 119 451.34 119 452.831C119 454.322 120.209 455.531 121.7 455.531Z" fill="black"/>
<path id="Vector_31" d="M121.7 454.421C123.191 454.421 124.4 453.212 124.4 451.721C124.4 450.23 123.191 449.021 121.7 449.021C120.209 449.021 119 450.23 119 451.721C119 453.212 120.209 454.421 121.7 454.421Z" fill="#3F3D56"/>
<path id="Vector_32" opacity="0.1" d="M119.42 397.091C120.911 397.091 122.12 395.882 122.12 394.391C122.12 392.9 120.911 391.691 119.42 391.691C117.929 391.691 116.72 392.9 116.72 394.391C116.72 395.882 117.929 397.091 119.42 397.091Z" fill="black"/>
<path id="Vector_33" d="M119.42 395.991C120.911 395.991 122.12 394.782 122.12 393.291C122.12 391.8 120.911 390.591 119.42 390.591C117.929 390.591 116.72 391.8 116.72 393.291C116.72 394.782 117.929 395.991 119.42 395.991Z" fill="#3F3D56"/>
<path id="Vector_34" d="M181.66 463.841C181.66 463.841 183.5 466.601 181.66 467.891C179.82 469.181 181.84 472.301 181.84 472.301C181.84 472.301 177.25 474.991 179.27 477.411C181.29 479.831 180.01 490.761 180.01 490.761L174.49 499.901C174.49 499.901 174.82 505.791 174.84 513.751C174.84 526.171 174.11 543.631 170.07 551.591L170.63 616.901C170.63 616.901 151.3 623.961 135.12 621.811L132.72 517.011C132.72 517.011 136.22 457.581 137.51 446.181C138.265 440.263 138.573 434.296 138.43 428.331C138.43 428.331 137.88 410.491 136.03 402.211C136.03 402.211 134.03 366.341 133.83 356.411C133.74 351.661 133.99 337.801 134.27 324.621C134.58 310.211 134.93 296.621 134.93 296.621L131.28 267.741C131.28 267.741 134.93 267.371 136.03 268.841C136.523 269.301 137.059 269.713 137.63 270.071C143.93 274.331 166.19 287.431 166.19 287.431C166.19 287.431 178.51 292.331 181.46 299.351C184.41 306.371 186.46 311.351 187.89 313.351C189.32 315.351 190.1 324.751 190.1 324.751C190.1 324.751 194.34 342.051 197.65 344.981C200.96 347.911 203.38 366.551 203.38 366.551L174.13 389.551C174.13 389.551 171.56 427.811 171.01 429.291C170.46 430.771 181.66 463.841 181.66 463.841Z" fill="white"/>
<path id="Vector_35" d="M182.77 463.841C182.77 463.841 184.6 466.601 182.77 467.891C180.94 469.181 182.94 472.301 182.94 472.301C182.94 472.301 178.38 475.021 180.38 477.441C182.38 479.861 181.12 490.791 181.12 490.791L175.6 499.931C175.6 499.931 175.93 505.821 175.96 513.781C175.96 526.201 175.23 543.661 171.19 551.621L171.74 616.931C171.74 616.931 152.38 623.991 136.22 621.841L133.83 517.041C133.83 517.041 137.33 457.611 138.62 446.211C139.376 440.293 139.68 434.326 139.53 428.361C139.53 428.361 138.98 410.521 137.14 402.241C137.14 402.241 135.14 366.371 134.93 356.441C134.84 351.691 135.1 337.831 135.37 324.651C135.68 310.241 136.03 296.651 136.03 296.651L131.21 267.381C131.21 267.381 136.03 267.381 137.14 268.871C137.628 269.337 138.164 269.749 138.74 270.101C145.04 274.361 167.31 287.461 167.31 287.461C167.31 287.461 179.62 292.361 182.57 299.381C185.52 306.401 187.57 311.381 189.01 313.381C190.45 315.381 191.21 324.781 191.21 324.781C191.21 324.781 195.45 342.081 198.76 345.011C202.07 347.941 204.46 366.541 204.46 366.541L175.21 389.541C175.21 389.541 172.64 427.801 172.08 429.281C171.52 430.761 182.77 463.841 182.77 463.841Z" fill="white"/>
<path id="Vector_36" opacity="0.1" d="M147.74 305.141L150.38 312.841L136.48 326.841C136.79 312.441 137.14 298.841 137.14 298.841L132.32 269.571C132.32 269.571 137.14 269.571 138.25 271.061C138.737 271.526 139.273 271.935 139.85 272.281L151.67 306.381L147.74 305.141Z" fill="black"/>
<path id="Vector_37" d="M146.63 302.931L149.28 310.631L135.38 324.631C135.69 310.221 136.04 296.631 136.04 296.631L131.21 267.361C131.21 267.361 136.04 267.361 137.14 268.851C137.63 269.314 138.167 269.726 138.74 270.081L150.57 304.171L146.63 302.931Z" fill="white"/>
<path id="Vector_38" opacity="0.1" d="M146.63 226.741C146.638 230.345 146.071 233.926 144.95 237.351C144.761 237.381 144.568 237.372 144.383 237.326C144.197 237.279 144.023 237.196 143.87 237.081C143.61 228.081 139.18 219.631 133.73 212.441C132.2 210.27 130.345 208.348 128.23 206.741C126.092 205.135 123.433 204.383 120.77 204.631C117.77 205.041 115.12 207.081 112.09 207.341C108.09 207.671 104.51 204.901 100.54 204.761C98.9262 204.777 97.3341 205.136 95.8701 205.815C94.406 206.495 93.1038 207.479 92.0501 208.701C89.9645 211.169 88.415 214.043 87.5001 217.141C85.9278 221.84 85.0715 226.748 84.9601 231.701C84.9101 234.501 84.6401 238.011 82.0401 239.031C82.2358 236.972 82.0018 234.895 81.3528 232.93C80.7039 230.966 79.6542 229.158 78.2701 227.621L78.2101 227.561C78.2101 227.281 78.2101 227.021 78.2101 226.741C78.1324 222.199 78.96 217.686 80.6446 213.467C82.3292 209.248 84.8371 205.407 88.022 202.167C91.2068 198.927 95.0049 196.354 99.1947 194.597C103.384 192.841 107.882 191.936 112.425 191.936C116.968 191.936 121.466 192.841 125.656 194.597C129.845 196.354 133.643 198.927 136.828 202.167C140.013 205.407 142.521 209.248 144.206 213.467C145.89 217.686 146.718 222.199 146.64 226.741H146.63Z" fill="black"/>
<path id="Vector_39" d="M126.59 172.411C121.394 169.967 115.484 169.505 109.97 171.111C107.2 171.931 104.59 173.261 101.78 173.931C95.7802 175.381 88.7803 173.811 83.6303 177.321C80.7703 179.321 79.0503 182.481 77.4503 185.551L73.4503 193.171C71.2703 197.341 69.0703 201.581 68.1603 206.171C67.2503 210.761 67.8002 215.901 70.7102 219.591C72.8302 222.281 75.9603 223.971 78.2603 226.501C79.6381 228.04 80.6833 229.847 81.3304 231.809C81.9774 233.77 82.2122 235.845 82.0203 237.901C84.6303 236.901 84.8803 233.381 84.9403 230.581C85.0517 225.628 85.9079 220.72 87.4803 216.021C88.3929 212.922 89.9427 210.047 92.0302 207.581C93.0847 206.36 94.3872 205.377 95.851 204.697C97.3149 204.018 98.9066 203.658 100.52 203.641C104.52 203.781 108.11 206.541 112.07 206.211C115.07 205.961 117.73 203.911 120.75 203.511C123.413 203.259 126.074 204.012 128.21 205.621C130.324 207.225 132.177 209.148 133.7 211.321C139.16 218.511 143.59 226.941 143.85 235.961C144.98 236.791 146.61 235.711 147.17 234.431C147.73 233.151 147.75 231.651 148.46 230.431C149.28 229.021 150.85 228.271 152.08 227.211C155.2 224.521 155.98 219.991 155.86 215.881C155.74 211.771 154.94 207.601 155.72 203.561C156.19 201.081 157.25 198.761 157.83 196.311C158.41 193.861 158.48 191.111 157.11 189.001C155.11 185.901 150.9 185.291 147.23 185.001C143.06 184.641 139.33 185.101 136.67 181.591C135.422 179.76 134.016 178.04 132.47 176.451C131.94 175.931 126.59 172.631 126.59 172.411Z" fill="#512E4E"/>
<path id="Vector_40" opacity="0.1" d="M17.9001 383.291L7.45013 363.971L4.14014 393.781C4.14014 393.781 5.98014 407.021 5.61014 409.051C5.24014 411.081 13.1501 429.281 13.1501 429.281C13.1501 429.281 39.2801 475.821 49.9501 478.221L86.0001 452.461L76.4401 440.321C76.4401 440.321 73.1301 439.031 72.3001 440.321C72.3001 440.321 54.5501 409.781 52.7101 407.571C50.8701 405.361 51.2301 400.951 51.2301 400.951C51.2301 400.951 48.4701 398.011 49.3901 395.251C50.3101 392.491 44.0601 382.921 44.0601 382.921L49.7601 377.591L17.9001 383.291Z" fill="black"/>
<path id="Vector_41" d="M7.99969 361.771L5.23969 363.971L1.92969 393.781C1.92969 393.781 3.76969 407.021 3.39969 409.051C3.02969 411.081 10.9497 429.281 10.9497 429.281C10.9497 429.281 37.0697 475.821 47.7397 478.221L83.7997 452.461L74.2297 440.321C74.2297 440.321 70.9197 439.031 70.0897 440.321C70.0897 440.321 52.3397 409.781 50.4997 407.571C48.6597 405.361 49.0297 400.951 49.0297 400.951C49.0297 400.951 46.2697 398.011 47.1897 395.251C48.1097 392.491 41.8497 382.921 41.8497 382.921L47.5497 377.591L7.99969 361.771Z" fill="white"/>
<path id="Vector_42" opacity="0.1" d="M179.27 478.551C181.27 480.981 180.01 491.891 180.01 491.891L174.49 501.031C174.49 501.031 174.82 506.931 174.84 514.881L165.56 517.781C164.721 518.043 163.832 518.101 162.967 517.949C162.101 517.798 161.284 517.441 160.585 516.91C159.885 516.378 159.323 515.687 158.944 514.894C158.566 514.101 158.383 513.229 158.41 512.351L160.01 460.741L181.66 469.021C179.82 470.301 181.84 473.441 181.84 473.441C181.84 473.441 177.25 476.121 179.27 478.551Z" fill="black"/>
<path id="Vector_43" d="M180.38 477.441C182.38 479.871 181.12 490.791 181.12 490.791L175.6 499.931C175.6 499.931 175.93 505.821 175.96 513.781L166.51 516.731C165.689 516.986 164.818 517.042 163.971 516.893C163.124 516.743 162.325 516.394 161.64 515.874C160.956 515.353 160.405 514.677 160.035 513.901C159.664 513.124 159.484 512.271 159.51 511.411L161.12 459.641L182.78 467.921C180.93 469.201 182.95 472.331 182.95 472.331C182.95 472.331 178.38 475.021 180.38 477.441Z" fill="white"/>
<path id="Vector_44" d="M187.55 452.841C187.55 452.841 186.08 462.231 182.4 462.781C178.72 463.331 177.07 477.971 173.4 477.451C169.73 476.931 172.16 463.841 172.29 461.301C172.42 458.761 168.29 448.241 171.38 445.851C174.47 443.461 184.25 445.851 184.25 445.851L187.55 452.841Z" fill="#CF6F80"/>
<path id="Vector_45" opacity="0.1" d="M195.38 380.531L202.32 366.531C202.32 366.531 205.08 377.201 205.08 382.901C205.08 388.601 208.94 389.161 208.94 389.161C208.94 389.161 213.17 394.161 210.94 397.801C208.71 401.441 207.81 410.501 207.81 410.501C207.81 410.501 208.54 427.791 205.23 430.181C201.92 432.571 201.23 438.281 201.23 438.281C201.23 438.281 195.15 449.131 195.34 451.711C195.53 454.291 186.88 471.761 186.88 471.761C186.88 471.761 191.11 450.051 166.46 440.671C166.46 440.671 166.27 433.301 168.11 431.281C169.95 429.261 172.82 428.341 171.02 418.131C169.22 407.921 170.5 395.721 170.5 393.271C170.5 390.821 176.02 375.541 176.02 375.541L195.38 380.531Z" fill="black"/>
<path id="Vector_46" d="M198.38 364.531L204.44 366.531C204.44 366.531 207.21 377.201 207.21 382.901C207.21 388.601 211.07 389.161 211.07 389.161C211.07 389.161 215.3 394.161 213.07 397.801C210.84 401.441 209.95 410.501 209.95 410.501C209.95 410.501 210.68 427.791 207.37 430.181C204.06 432.571 203.32 438.281 203.32 438.281C203.32 438.281 197.25 449.131 197.44 451.711C197.63 454.291 188.97 471.761 188.97 471.761C188.97 471.761 193.21 450.051 168.55 440.671C168.55 440.671 168.37 433.301 170.21 431.281C172.05 429.261 174.92 428.341 173.12 418.131C171.32 407.921 172.6 395.721 172.6 393.271C172.6 390.821 178.12 375.541 178.12 375.541L198.38 364.531Z" fill="white"/>
<path id="Vector_47" opacity="0.1" d="M64.5303 727.401C64.5303 727.401 74.1903 721.331 80.5303 725.741C86.8703 730.151 64.5303 727.401 64.5303 727.401Z" fill="black"/>
<path id="Vector_48" opacity="0.1" d="M139.59 708.631C139.59 708.631 148.14 707.531 155.32 715.261C162.5 722.991 139.59 708.631 139.59 708.631Z" fill="black"/>
<g id="Group" opacity="0.1">
<path id="Vector_49" d="M152.1 225.021C150.87 226.081 149.29 226.841 148.47 228.251C147.77 229.461 147.75 230.951 147.19 232.251C146.63 233.551 145 234.611 143.87 233.791C143.61 224.791 139.17 216.341 133.72 209.141C132.196 206.968 130.344 205.045 128.23 203.441C126.09 201.832 123.426 201.079 120.76 201.331C117.76 201.741 115.12 203.781 112.09 204.031C108.09 204.371 104.5 201.601 100.53 201.461C98.9167 201.477 97.3255 201.838 95.8629 202.519C94.4004 203.2 93.1004 204.186 92.0501 205.411C89.9625 207.873 88.4127 210.745 87.5001 213.841C85.9286 218.54 85.0724 223.448 84.9601 228.401C84.9001 231.191 84.6401 234.671 82.0601 235.711C82.1201 236.45 82.1201 237.192 82.0601 237.931C84.6601 236.931 84.9201 233.411 84.9801 230.611C85.0915 225.658 85.9478 220.749 87.5201 216.051C88.4328 212.952 89.9825 210.077 92.0701 207.611C93.1226 206.39 94.4233 205.407 95.8855 204.727C97.3477 204.048 98.9378 203.688 100.55 203.671C104.55 203.811 108.15 206.571 112.11 206.241C115.11 205.991 117.77 203.941 120.78 203.541C123.446 203.289 126.11 204.042 128.25 205.651C130.364 207.255 132.216 209.178 133.74 211.351C139.19 218.541 143.63 226.971 143.89 235.991C145.02 236.821 146.65 235.741 147.21 234.461C147.77 233.181 147.79 231.681 148.49 230.461C149.31 229.051 150.89 228.301 152.12 227.241C155.24 224.551 156.02 220.021 155.9 215.911C155.9 215.781 155.9 215.651 155.9 215.531C155.71 219.091 154.76 222.721 152.1 225.021Z" fill="black"/>
<path id="Vector_50" d="M78.28 224.311C75.98 221.781 72.8401 220.091 70.7301 217.411C68.9534 215.039 67.9386 212.183 67.8201 209.221C67.5053 212.922 68.5388 216.612 70.7301 219.611C72.8401 222.301 75.98 223.991 78.28 226.521C80.4883 228.996 81.8141 232.133 82.0501 235.441C82.2032 233.428 81.9481 231.404 81.3003 229.492C80.6525 227.579 79.6252 225.817 78.28 224.311Z" fill="black"/>
<path id="Vector_51" d="M157.85 194.121C157.26 196.571 156.21 198.901 155.73 201.371C155.446 203.022 155.342 204.698 155.42 206.371C155.454 205.418 155.557 204.469 155.73 203.531C156.21 201.051 157.26 198.731 157.85 196.281C158.194 194.93 158.306 193.53 158.18 192.141C158.118 192.808 158.008 193.47 157.85 194.121Z" fill="black"/>
</g>
</g>
<g id="Group 40">
<path id="Vector_52" opacity="0.1" d="M452.82 789.678C519.972 789.678 574.41 782.671 574.41 774.028C574.41 765.385 519.972 758.378 452.82 758.378C385.668 758.378 331.23 765.385 331.23 774.028C331.23 782.671 385.668 789.678 452.82 789.678Z" fill="#181818"/>
<path id="Vector_53" opacity="0.1" d="M468.61 358.538H440.17V386.978H468.61V358.538Z" fill="#181818"/>
<path id="Vector_54" opacity="0.1" d="M468.61 428.688H440.17V457.128H468.61V428.688Z" fill="#181818"/>
<path id="Vector_55" opacity="0.1" d="M468.61 498.828H440.17V527.268H468.61V498.828Z" fill="#181818"/>
<path id="Vector_56" opacity="0.1" d="M468.61 568.978H440.17V597.418H468.61V568.978Z" fill="#181818"/>
<path id="Vector_57" d="M555.44 478.658C555.44 478.658 538.93 396.518 545.25 386.298C545.25 386.298 545.48 376.798 545.1 364.688C545.1 364.228 545.1 363.768 545.1 363.298C546.212 364.039 547.371 364.708 548.57 365.298C554.393 368.29 561.078 369.153 567.47 367.738L562.47 362.168C561.27 360.838 560.02 359.398 559.76 357.638C559.5 355.878 560.22 354.308 560.84 352.738C565.59 340.738 565.84 325.648 556.69 316.488C548.96 308.788 547.08 298.848 538.69 291.818C532.56 286.668 529.19 279.118 526.01 271.818C523.32 265.648 520.61 259.428 519.07 252.888C517.87 247.778 517.39 242.488 515.74 237.498C514.09 232.508 511 227.658 506.17 225.428C504.45 224.638 502.54 224.188 500.97 223.138C498.91 221.748 497.67 219.488 496.18 217.508C488.61 207.508 463.26 213.398 451.26 217.458C447.998 218.481 444.977 220.154 442.38 222.378L442.49 222.198C442.58 222.048 442.69 221.898 442.79 221.748C441.477 222.81 440.342 224.076 439.43 225.498C437.68 228.268 436.95 231.498 435.49 234.498C433.73 238.048 423.94 247.958 428.15 251.948C428.445 252.216 428.783 252.432 429.15 252.588C430.73 253.246 432.471 253.42 434.15 253.088L433.97 253.518C432.532 257.038 431.795 260.806 431.8 264.608C431.8 281.038 445.35 294.358 462.08 294.358C465.225 294.361 468.352 293.879 471.35 292.928C471.42 293.308 471.48 293.688 471.55 294.068C471.55 294.218 471.6 294.368 471.62 294.518L471.09 295.258C471.064 295.213 471.033 295.169 471 295.128L455.3 317.068C452.9 318.758 439.08 328.758 438.3 336.258C437.48 344.468 436.66 354.078 436.66 354.078L436.55 356.138C435.864 356.711 435.061 357.129 434.198 357.362C433.335 357.595 432.432 357.638 431.55 357.488C426.65 356.688 426.65 375.488 426.65 375.488C426.65 375.488 423.39 378.488 421.15 375.888C418.91 373.288 412.99 382.098 412.99 382.098L375.89 383.698L375.04 383.748L373.04 377.558C372.825 376.905 372.361 376.364 371.748 376.051C371.136 375.738 370.425 375.68 369.77 375.888C369.615 375.939 369.465 376.003 369.32 376.078L369.18 376.158L368.92 376.338L368.79 376.458C368.718 376.523 368.652 376.593 368.59 376.668L368.47 376.808L368.41 376.868C368.179 377.187 368.026 377.556 367.964 377.945C367.901 378.334 367.931 378.733 368.05 379.108L369.77 384.418C362.61 385.858 355.29 389.918 361.26 401.098L331 395.508L340.79 403.728L391.33 414.158C390.66 415.358 391.1 417.098 393.19 419.548C402.19 430.118 418.59 432.988 425.19 433.728C426.933 437.627 429.11 441.317 431.68 444.728L431.11 455.258C431.11 455.258 414.4 535.518 411.34 539.588C412.885 537.838 414.299 535.976 415.57 534.018C410.72 550.508 403.94 573.078 402.16 576.458C399.3 581.858 396.65 603.708 399.91 605.108C400.91 605.538 403.77 605.328 407.85 605.018V606.828L407.67 675.418C407.67 675.418 408.49 717.488 406.24 721.498C403.99 725.508 403.39 733.918 403.39 733.918C403.39 733.918 394.39 750.508 387.26 757.178C387.211 757.23 387.158 757.277 387.1 757.318L386.88 755.758C386.88 755.758 378.31 766.578 359.35 765.968C359.35 765.968 347.94 773.388 364.86 773.788C381.78 774.188 403.39 773.188 403.39 773.188C403.39 773.188 418.48 750.188 431.12 753.188V770.618H434.99V752.908C436.785 751.727 438.321 750.193 439.505 748.4C440.69 746.607 441.497 744.593 441.88 742.478C442.211 740.299 441.969 738.071 441.176 736.014C440.383 733.957 439.068 732.142 437.36 730.748C436.593 730.054 435.977 729.209 435.552 728.266C435.127 727.323 434.902 726.303 434.89 725.268L434.75 725.388C434.75 725.038 434.66 724.678 434.62 724.308C433.51 715.308 432.12 696.738 437.03 682.998C443.76 664.158 445.8 637.918 440.9 622.298C439.319 617.305 438.02 612.227 437.01 607.088C436.89 606.438 436.78 605.818 436.68 605.238C440.029 605.691 443.346 606.359 446.61 607.238C457.96 610.368 482.79 610.948 503.99 610.778C504.04 611.358 504.1 611.968 504.17 612.578C504.548 616.818 505.338 621.011 506.53 625.098C509.19 633.098 510.41 668.368 510.41 668.368C510.41 668.368 513.84 697.368 511.97 709.168C510.97 715.728 509.97 722.318 509.4 728.938V729.068C509.4 729.068 503.78 745.068 499.67 753.758C499.57 753.978 499.46 754.198 499.36 754.408C498.264 754.508 497.186 754.747 496.15 755.118C496.15 755.118 490.64 766.118 485.15 767.938C479.66 769.758 481.48 775.748 493.91 773.548C506.34 771.348 525.11 769.548 525.11 769.548L525.92 758.328L529.74 753.548L528.74 764.738L532.81 763.938L532.27 750.328L538.52 742.508C538.52 742.508 546.07 735.788 534.85 722.568V722.858C534.73 722.668 534.62 722.468 534.49 722.278V722.218C532.63 719.338 531.15 713.968 533.86 704.438C538.76 687.218 541.61 671.588 541.61 671.588C541.61 671.588 552.55 629.718 539.4 609.908H539.98C538.632 607.121 537.68 604.159 537.15 601.108C537.083 600.748 537.023 600.378 536.97 599.998C546.7 599.438 556.25 597.678 564.04 593.878C564.01 593.838 559.32 494.478 555.44 478.658ZM431.91 409.358V409.558L429.91 409.658L431.91 409.358ZM425.05 410.308C424.721 410.381 424.413 410.528 424.15 410.738C423.29 411.955 422.75 413.368 422.58 414.848L419.46 414.148C419.46 414.148 417.27 413.678 414.12 413.148L412.63 411.648C416.73 411.308 420.99 410.808 425.05 410.308Z" fill="url(#paint1_linear_181_114)"/>
<path id="Vector_58" d="M528.28 750.468L527.09 764.638L531.08 763.838L530.48 748.468L528.28 750.468Z" fill="#1D2366"/>
<path id="Vector_59" d="M437.25 683.188C432.44 696.888 433.8 715.378 434.88 724.358C435.28 727.678 435.65 729.698 435.65 729.698C435.65 729.698 428.46 746.078 427.86 746.698C427.26 747.318 406.7 759.868 406.7 759.868L392.33 768.258C392.33 768.258 377.75 761.868 384.74 759.668C386.168 759.095 387.455 758.218 388.51 757.098C395.51 750.448 404.3 733.918 404.3 733.918C404.3 733.918 404.9 725.528 407.1 721.538C409.3 717.548 408.5 675.618 408.5 675.618L408.67 607.268V598.358L436.02 598.558C436.192 601.583 436.587 604.591 437.2 607.558C438.182 612.68 439.454 617.741 441.01 622.718C445.83 638.308 443.83 664.418 437.25 683.188Z" fill="#FFB0B1"/>
<path id="Vector_60" opacity="0.1" d="M435.65 729.698C435.65 729.698 428.46 746.078 427.86 746.698C427.26 747.318 406.7 759.868 406.7 759.868L392.33 768.258C392.33 768.258 377.75 761.868 384.74 759.668C386.168 759.095 387.455 758.218 388.51 757.098L389.13 761.468L393.92 761.268L434.92 724.378C435.28 727.678 435.65 729.698 435.65 729.698Z" fill="black"/>
<path id="Vector_61" d="M435.15 725.308L393.92 762.448L389.13 762.648L388.13 755.648C388.13 755.648 379.75 766.428 361.13 765.828C361.13 765.828 349.95 773.218 366.52 773.618C383.09 774.018 404.25 773.018 404.25 773.018C404.25 773.018 419.03 750.018 431.4 753.018V770.388H435.2V752.858C436.967 751.669 438.475 750.135 439.633 748.347C440.791 746.56 441.576 744.557 441.94 742.458C442.269 740.297 442.036 738.087 441.264 736.041C440.492 733.996 439.206 732.183 437.53 730.778C436.782 730.077 436.185 729.23 435.775 728.289C435.366 727.348 435.153 726.334 435.15 725.308Z" fill="#1D2366"/>
<path id="Vector_62" d="M532.08 704.548C529.42 714.048 530.87 719.398 532.69 722.268V722.328C535.024 725.872 536.648 729.835 537.47 733.998L537.63 734.898L518.87 762.248L508.69 766.248C508.69 766.248 492.32 760.658 495.31 759.058C496.06 758.668 497.23 756.588 498.57 753.718C502.57 745.068 508.09 729.108 508.09 729.108V728.978C508.67 722.388 509.59 715.818 510.61 709.278C512.44 697.508 509.08 668.618 509.08 668.618C509.08 668.618 507.88 633.488 505.28 625.498C504.106 621.436 503.326 617.27 502.95 613.058C502.41 608.058 502.29 603.938 502.29 603.938C502.29 603.938 513.07 588.938 532.83 605.138C534.41 606.43 535.801 607.939 536.96 609.618C550.61 629.038 539.62 671.818 539.62 671.818C539.62 671.818 536.87 687.378 532.08 704.548Z" fill="#FFB0B1"/>
<path id="Vector_63" opacity="0.1" d="M537.66 734.898L518.9 762.248L508.72 766.248C508.72 766.248 492.35 760.658 495.34 759.058C496.09 758.668 497.26 756.588 498.6 753.718C505.53 753.658 509.12 760.258 509.12 760.258L517.9 758.858C517.9 758.858 529.48 736.098 532.08 734.708C534.68 733.318 532.48 724.318 532.48 724.318V722.028C532.55 722.108 532.61 722.198 532.69 722.278V722.338C535.024 725.882 536.648 729.845 537.47 734.008L537.66 734.898Z" fill="black"/>
<path id="Vector_64" d="M509.72 760.848C509.72 760.848 504.72 751.668 495.14 755.058C495.14 755.058 489.75 766.058 484.36 767.838C478.97 769.618 480.77 775.618 492.95 773.428C505.13 771.238 523.49 769.428 523.49 769.428L524.29 758.238L536.67 742.468C536.67 742.468 544.05 735.778 533.07 722.608V724.898C533.07 724.898 535.27 733.898 532.67 735.288C530.07 736.678 518.53 759.448 518.53 759.448L509.72 760.848Z" fill="#1D2366"/>
<path id="Vector_65" opacity="0.1" d="M436.05 598.538C436.222 601.563 436.617 604.571 437.23 607.538C425.97 605.888 415.52 606.708 408.67 607.248V598.338L436.05 598.538Z" fill="black"/>
<path id="Vector_66" opacity="0.1" d="M538.07 612.108C538.07 612.108 522.07 612.888 502.99 613.048C502.45 608.048 502.33 603.928 502.33 603.928C502.33 603.928 513.11 588.928 532.87 605.128C534.45 606.42 535.841 607.928 537 609.608C537.31 610.461 537.667 611.295 538.07 612.108Z" fill="black"/>
<path id="Vector_67" d="M538.07 610.308C538.07 610.308 467.99 613.698 446.63 607.708C425.27 601.718 404.1 606.908 400.91 605.518C397.72 604.128 400.31 582.358 403.11 576.968C405.91 571.578 421.27 517.068 421.27 517.068L436.05 440.008L451.62 435.718L452.72 435.408L479.85 427.928L499.73 422.438C499.73 422.438 539.26 576.768 535.87 588.148C534.639 592.506 534.44 597.09 535.29 601.538C535.808 604.576 536.743 607.527 538.07 610.308Z" fill="#1D2366"/>
<path id="Vector_68" d="M384.53 387.308C384.53 387.308 370.53 402.308 381.13 410.668C391.73 419.028 398.7 411.468 398.7 411.468L384.53 387.308Z" fill="#C7DAF5"/>
<path id="Vector_69" opacity="0.1" d="M384.53 387.308C384.53 387.308 370.53 402.308 381.13 410.668C391.73 419.028 398.7 411.468 398.7 411.468L384.53 387.308Z" fill="black"/>
<path id="Vector_70" d="M497.64 288.688C497.64 288.688 496 290.248 493.53 292.548C490.01 295.838 484.8 300.648 480.18 304.678C473.78 310.248 468.5 314.338 470.39 310.848C472.28 307.358 471.92 301.278 470.98 295.588C470.91 295.208 470.85 294.828 470.78 294.458C470.002 290.279 468.97 286.152 467.69 282.098C467.69 282.098 478.03 268.738 483.75 263.468C485.88 261.468 487.37 260.648 487.46 262.038C487.56 263.908 488.96 268.038 490.7 272.418C490.75 272.558 490.8 272.688 490.86 272.828C492.02 275.828 493.33 278.908 494.48 281.568C496.24 285.648 497.64 288.688 497.64 288.688Z" fill="#FFB0B1"/>
<path id="Vector_71" opacity="0.1" d="M490.86 272.828C489.888 278.055 487.531 282.924 484.034 286.928C480.536 290.932 476.028 293.923 470.98 295.588C470.185 291.023 469.086 286.517 467.69 282.098C467.69 282.098 487.16 256.948 487.46 262.038C487.53 263.968 489.05 268.248 490.86 272.828Z" fill="black"/>
<path id="Vector_72" opacity="0.1" d="M469.04 302.308L471.56 298.758C471.56 298.758 473.23 308.938 479.37 304.448C485.51 299.958 485.81 338.238 485.81 338.238L479.22 436.768L431.6 433.918L432.95 386.308L438.34 362.308L451.67 327.418L459.6 315.888L469.04 302.308Z" fill="black"/>
<path id="Vector_73" d="M485.81 338.848L479.81 427.938L479.18 437.378L452.63 435.788L451.63 435.728L431.63 434.528L432.98 386.908L438.37 362.908L451.7 328.018L459.63 316.488L469.07 302.858L471.59 299.318C471.59 299.318 473.26 309.498 479.4 305.008L479.53 304.918C485.53 301.118 485.81 338.848 485.81 338.848Z" fill="#1D2366"/>
<path id="Vector_74" d="M439.04 354.568C439.04 354.568 436.65 359.568 431.85 358.758C427.05 357.948 427.06 376.758 427.06 376.758C427.06 376.758 423.87 379.758 421.67 377.158C419.47 374.558 413.67 383.348 413.67 383.348L377.33 384.948C377.33 384.948 393.5 392.338 390.33 414.698C390.33 414.698 445.23 411.298 447.03 406.108C448.83 400.918 439.04 354.568 439.04 354.568Z" fill="white"/>
<path id="Vector_75" opacity="0.03" d="M439.04 354.568C439.04 354.568 436.65 359.568 431.85 358.758C427.05 357.948 427.06 376.758 427.06 376.758C427.06 376.758 423.87 379.758 421.67 377.158C419.47 374.558 413.67 383.348 413.67 383.348L377.33 384.948C377.33 384.948 393.5 392.338 390.33 414.698C390.33 414.698 445.23 411.298 447.03 406.108C448.83 400.918 439.04 354.568 439.04 354.568Z" fill="black"/>
<path id="Vector_76" d="M333.43 396.698L343.01 404.878L421.87 421.448L412.09 411.468L333.43 396.698Z" fill="white"/>
<path id="Vector_77" d="M469.19 305.458C467.88 307.458 464.13 317.698 461 326.638C458.39 334.088 456.21 340.638 456.21 340.638C456.21 340.638 451.12 373.778 448.52 379.768C445.92 385.758 447.33 409.118 447.33 409.118L437.64 466.808C437.64 466.808 433.25 496.558 426.47 514.328C419.78 531.818 412.33 540.018 412.1 540.278C415.1 536.218 431.45 456.278 431.45 456.278L436.85 355.458C436.85 355.458 437.64 345.878 438.44 337.688C439.24 329.498 455.44 318.318 455.44 318.318L471.06 296.108C472.63 298.208 471.58 301.868 469.19 305.458Z" fill="white"/>
<path id="Vector_78" d="M428.46 435.028C428.46 435.028 405.46 434.028 394.32 420.648C383.18 407.268 420.07 415.308 420.07 415.308L429.66 417.508L428.46 435.028Z" fill="#FFB0B1"/>
<path id="Vector_79" opacity="0.1" d="M535.87 588.158C534.639 592.516 534.44 597.1 535.29 601.548C510.2 603.328 483.36 596.548 483.36 596.548C478.36 601.148 465.19 607.928 465.19 607.928L458.01 518.928C453.42 506.928 451.62 444.058 451.62 444.058C451.62 444.058 452.03 440.768 452.62 435.838C452.62 435.718 452.62 435.588 452.67 435.468C454.46 421.698 458.01 395.848 459.75 392.358C462.15 387.558 452.37 374.788 452.37 374.788L456.82 336.838L457.36 332.258C466.74 328.068 473.93 314.688 473.93 314.688L479.45 305.018C485.45 301.168 485.76 338.898 485.76 338.898L479.76 427.988L499.64 422.498C499.64 422.498 539.26 576.778 535.87 588.158Z" fill="black"/>
<path id="Vector_80" d="M561.62 594.308C534.27 607.888 484.56 595.308 484.56 595.308C479.56 599.908 466.39 606.688 466.39 606.688L459.2 517.688C454.62 505.688 452.82 442.818 452.82 442.818C452.82 442.818 458.6 395.908 461 391.118C461.7 389.718 461.36 387.638 460.53 385.398C456.45 374.736 454.949 363.261 456.15 351.908L458.07 335.598L458.6 331.028C467.99 326.828 475.18 313.448 475.18 313.448L480.18 304.688L489.38 288.548L493.74 280.908L494.48 281.578L500.13 286.698C500.13 286.698 502.53 288.698 506.13 291.698C513.96 298.298 527.49 309.918 534.47 317.028C540.61 323.288 542.55 347.638 543.11 365.968C543.48 378.038 543.26 387.498 543.26 387.498C537.07 397.688 553.26 479.498 553.26 479.498C557.03 495.308 561.62 594.308 561.62 594.308Z" fill="white"/>
<path id="Vector_81" opacity="0.03" d="M509.12 313.248C509.12 313.248 490.35 348.978 492.53 362.558C494.71 376.138 500.91 391.508 497.92 395.098C496.893 396.458 495.565 397.562 494.04 398.324C492.515 399.085 490.835 399.484 489.13 399.488C486.13 399.688 478.13 405.278 478.13 405.878C478.13 406.478 470.74 406.478 464.13 409.278C457.52 412.078 447.76 413.668 447.76 413.668C447.76 413.668 428.76 413.068 426.99 414.868C425.22 416.668 423.4 427.438 427.19 436.028C430.98 444.618 435.19 451.028 438.37 452.198C441.55 453.368 461.73 446.608 478.1 445.008C494.47 443.408 512.24 430.438 512.24 430.438C512.24 430.438 531.81 423.438 535.24 411.668C538.67 399.898 531.05 335.208 531.05 335.208C531.05 335.208 525.29 305.058 509.12 313.248Z" fill="black"/>
<path id="Vector_82" opacity="0.03" d="M506.72 310.248C506.72 310.248 487.95 345.988 490.15 359.558C492.35 373.128 498.53 388.508 495.53 392.108C494.506 393.47 493.181 394.575 491.657 395.337C490.133 396.099 488.454 396.496 486.75 396.498C483.75 396.698 475.75 402.288 475.75 402.888C475.75 403.488 468.36 403.488 461.75 406.278C455.14 409.068 445.38 410.668 445.38 410.668C445.38 410.668 426.38 410.068 424.62 411.868C422.86 413.668 421.02 424.448 424.82 433.028C428.62 441.608 432.82 448.028 436 449.198C439.18 450.368 459.36 443.608 475.73 442.018C492.1 440.428 509.87 427.438 509.87 427.438C509.87 427.438 529.43 420.438 532.82 408.678C536.21 396.918 528.63 332.208 528.63 332.208C528.63 332.208 522.89 302.068 506.72 310.248Z" fill="black"/>
<path id="Vector_83" d="M508.53 311.448C508.53 311.448 489.76 347.188 491.96 360.758C494.16 374.328 500.34 389.708 497.35 393.298C496.326 394.663 494.999 395.771 493.474 396.535C491.948 397.298 490.266 397.697 488.56 397.698C485.56 397.898 477.56 403.488 477.56 404.078C477.56 404.668 470.18 404.678 463.56 407.478C456.94 410.278 447.19 411.868 447.19 411.868C447.19 411.868 428.19 411.268 426.42 413.068C424.65 414.868 422.83 425.648 426.62 434.228C430.41 442.808 434.62 449.228 437.8 450.398C440.98 451.568 461.16 444.808 477.53 443.208C493.9 441.608 511.67 428.638 511.67 428.638C511.67 428.638 531.24 421.638 534.67 409.868C538.1 398.098 530.53 333.408 530.53 333.408C530.53 333.408 524.69 303.308 508.53 311.448Z" fill="white"/>
<path id="Vector_84" opacity="0.1" d="M508.12 407.308C508.12 407.308 493.12 404.308 498.34 409.308C503.56 414.308 503.53 418.688 509.92 418.488C516.31 418.288 508.12 407.308 508.12 407.308Z" fill="black"/>
<path id="Vector_85" opacity="0.1" d="M533.47 514.888C533.47 514.888 526.69 519.478 539.66 530.058C552.63 540.638 533.47 514.888 533.47 514.888Z" fill="black"/>
<path id="Vector_86" opacity="0.1" d="M520.53 552.618C520.53 553.218 518.13 574.618 527.11 579.968C536.09 585.318 520.53 552.618 520.53 552.618Z" fill="black"/>
<path id="Vector_87" d="M377.95 384.898C370.71 385.148 355.07 387.358 363.18 402.488C370.35 415.878 382.4 406.928 389.18 400.138C387.526 393.808 383.507 388.353 377.95 384.898Z" fill="#FFB0B1"/>
<path id="Vector_88" opacity="0.1" d="M506.13 292.308C498.45 297.558 492.01 301.988 490.75 302.908C487.31 305.458 480.75 320.428 476.52 328.068C473.15 334.218 462.2 335.798 458.07 336.188L458.6 331.618C467.99 327.418 475.18 314.038 475.18 314.038L493.74 281.498L500.13 287.308C500.13 287.308 502.53 289.308 506.13 292.308Z" fill="black"/>
<path id="Vector_89" d="M506.13 291.708C498.45 296.958 492.01 301.388 490.75 302.318C487.31 304.858 480.75 319.828 476.52 327.468C473.15 333.618 462.2 335.198 458.07 335.588L458.6 331.018C467.99 326.818 475.18 313.438 475.18 313.438L493.74 280.898L500.13 286.688C500.13 286.688 502.53 288.668 506.13 291.708Z" fill="#DCE7FF"/>
<path id="Vector_90" d="M491.35 266.228C491.354 272.231 489.534 278.093 486.13 283.038C482.11 288.884 476.128 293.096 469.268 294.909C462.409 296.722 455.127 296.015 448.743 292.918C442.36 289.821 437.298 284.539 434.477 278.029C431.655 271.519 431.26 264.213 433.365 257.437C435.469 250.661 439.932 244.864 445.945 241.098C451.957 237.331 459.121 235.845 466.136 236.908C473.151 237.972 479.552 241.515 484.178 246.894C488.805 252.274 491.349 259.133 491.35 266.228Z" fill="#FFB0B1"/>
<path id="Vector_91" opacity="0.1" d="M543.11 365.978C539.049 363.48 535.742 359.927 533.54 355.698C531.87 352.398 530.76 348.588 527.91 346.248C525.34 344.148 521.91 343.638 518.71 342.698C508.19 339.588 499.37 329.988 499.04 319.028C498.88 313.868 500.49 308.718 499.76 303.608C499.345 300.716 498.195 297.979 496.42 295.658C495.539 294.548 494.573 293.509 493.53 292.548C492.13 291.228 490.66 289.948 489.38 288.548C488.574 287.681 487.869 286.725 487.28 285.698C486.805 284.858 486.419 283.97 486.13 283.048C484.13 276.928 485.95 269.668 483.75 263.478L483.63 263.138C482.8 260.938 481.11 258.738 478.76 258.568C476.41 258.398 474.4 260.348 472.16 261.218C467.47 263.038 462.41 259.938 458.5 256.778C454.59 253.618 450.18 250.008 445.21 250.708C441.92 251.178 439.32 253.418 436.29 254.578C435.606 254.843 434.9 255.047 434.18 255.188C436.744 248.793 441.456 243.491 447.505 240.192C453.553 236.894 460.562 235.805 467.327 237.112C474.091 238.42 480.19 242.042 484.574 247.357C488.958 252.672 491.354 259.348 491.35 266.238C491.354 268.319 491.136 270.394 490.7 272.428C490.75 272.568 490.8 272.698 490.86 272.838C492.02 275.838 493.33 278.918 494.48 281.578L500.13 286.698C500.13 286.698 502.53 288.698 506.13 291.698C513.96 298.298 527.49 309.918 534.47 317.028C540.61 323.308 542.53 347.648 543.11 365.978Z" fill="black"/>
<path id="Vector_92" d="M435.94 236.308C437.37 233.398 438.08 230.138 439.79 227.378C442.3 223.378 446.68 220.818 451.18 219.268C462.93 215.218 487.76 209.338 495.18 219.268C496.64 221.268 497.85 223.488 499.87 224.868C501.41 225.918 503.27 226.368 504.96 227.158C509.69 229.378 512.71 234.218 514.32 239.158C515.93 244.098 516.41 249.398 517.59 254.488C519.1 261.018 521.75 267.208 524.39 273.358C527.5 280.618 530.8 288.148 536.8 293.278C544.99 300.278 546.8 310.188 554.4 317.868C563.4 326.988 563.11 342.038 558.47 353.988C557.86 355.558 557.17 357.198 557.41 358.868C557.65 360.538 558.89 362.058 560.06 363.388L564.98 368.938C553.34 371.748 540.17 365.668 534.75 354.998C533.08 351.698 531.97 347.898 529.11 345.548C526.55 343.448 523.11 342.948 519.92 342.008C509.4 338.888 500.58 329.278 500.25 318.318C500.09 313.168 501.7 308.018 500.97 302.918C500.564 300.007 499.41 297.25 497.62 294.918C494.87 291.328 490.72 288.918 488.48 284.918C484.69 278.228 487.57 269.538 484.84 262.358C484 260.158 482.32 257.958 479.97 257.788C477.62 257.618 475.61 259.568 473.36 260.438C468.68 262.258 463.62 259.168 459.71 255.998C455.8 252.828 451.39 249.228 446.41 249.938C443.12 250.398 440.53 252.638 437.5 253.808C435.26 254.668 430.72 255.438 428.76 253.548C424.62 249.738 434.21 239.868 435.94 236.308Z" fill="#591D4B"/>
<path id="Vector_93" opacity="0.1" d="M537.53 351.698C535.85 348.398 534.75 344.598 531.89 342.258C529.33 340.158 525.89 339.648 522.69 338.708C512.18 335.598 503.36 325.988 503.02 315.028C502.86 309.878 504.47 304.718 503.75 299.618C503.331 296.726 502.178 293.988 500.4 291.668C497.64 288.078 493.49 285.668 491.26 281.668C487.47 274.988 490.35 266.298 487.61 259.108C486.78 256.918 485.09 254.718 482.75 254.538C480.41 254.358 478.38 256.328 476.14 257.198C471.46 259.018 466.39 255.918 462.49 252.758C458.59 249.598 454.16 245.988 449.19 246.688C445.9 247.158 443.3 249.398 440.28 250.558C438.04 251.418 433.49 252.198 431.53 250.308C427.41 246.308 437 236.458 438.72 232.918C440.15 229.998 440.86 226.748 442.58 223.988C442.67 223.838 442.77 223.688 442.87 223.538C441.583 224.604 440.473 225.866 439.58 227.278C437.87 230.038 437.16 233.278 435.73 236.208C434 239.748 424.41 249.628 428.54 253.598C430.54 255.498 435.04 254.718 437.28 253.858C440.28 252.688 442.9 250.448 446.19 249.988C451.19 249.278 455.59 252.888 459.49 256.048C463.39 259.208 468.49 262.308 473.15 260.488C475.39 259.618 477.35 257.658 479.75 257.838C482.15 258.018 483.75 260.208 484.62 262.408C487.35 269.588 484.47 278.278 488.26 284.968C490.5 288.898 494.65 291.358 497.4 294.968C499.19 297.3 500.344 300.057 500.75 302.968C501.48 308.068 499.87 313.218 500.03 318.368C500.36 329.368 509.18 338.938 519.7 342.058C522.87 342.998 526.33 343.498 528.89 345.598C531.76 347.948 532.89 351.748 534.53 355.048C539.95 365.718 553.12 371.798 564.76 368.988L562.44 366.368C552.35 366.518 542.14 360.778 537.53 351.698Z" fill="black"/>
<path id="Vector_94" opacity="0.1" d="M468.59 306.058C467.28 308.058 463.53 318.298 460.4 327.238C457.47 326.098 454.81 318.828 454.81 318.828L470.43 296.608C472.03 298.808 470.98 302.458 468.59 306.058Z" fill="black"/>
<path id="Vector_95" d="M469.19 305.458C467.88 307.458 464.13 317.698 461 326.638C458.07 325.508 455.41 318.228 455.41 318.228L471.03 296.018C472.63 298.208 471.58 301.868 469.19 305.458Z" fill="#DCE7FF"/>
<path id="Vector_96" d="M378.37 407.618L369.71 380.308C369.608 379.989 369.569 379.652 369.597 379.317C369.625 378.982 369.719 378.657 369.873 378.358C370.028 378.06 370.239 377.795 370.496 377.579C370.753 377.363 371.05 377.199 371.37 377.098C372.015 376.897 372.713 376.959 373.312 377.269C373.911 377.58 374.363 378.115 374.57 378.758L383.23 406.038L382.37 411.748L378.37 407.618Z" fill="#BE8B87"/>
<path id="Vector_97" opacity="0.1" d="M370.53 377.908C371.176 377.704 371.876 377.764 372.478 378.075C373.08 378.386 373.533 378.923 373.74 379.568L382.4 406.848L381.75 411.128L382.38 411.788L383.24 406.078L374.53 378.798C374.323 378.156 373.871 377.62 373.272 377.31C372.672 376.999 371.975 376.937 371.33 377.138C370.788 377.314 370.32 377.666 370 378.138C370.17 378.047 370.347 377.97 370.53 377.908Z" fill="white"/>
<path id="Vector_98" d="M378.37 407.618L383.23 406.078L382.52 410.758L382.37 411.788L380.95 410.308L378.37 407.618Z" fill="#EFC8C4"/>
<path id="Vector_99" d="M380.95 410.308C381.035 410.201 381.14 410.113 381.26 410.048C381.331 410.004 381.412 409.98 381.495 409.98C381.578 409.98 381.66 410.004 381.73 410.048C381.798 410.131 381.855 410.221 381.9 410.318C381.966 410.429 382.056 410.523 382.164 410.594C382.271 410.665 382.393 410.711 382.52 410.728L382.37 411.728L380.95 410.308Z" fill="#727A9C"/>
<path id="Vector_100" d="M369.66 390.008C369.66 390.008 387.03 389.908 382.94 397.298C378.85 404.688 372.46 405.578 372.46 405.578L369.66 390.008Z" fill="#FFB0B1"/>
</g>
</g>
<g id="hart">
<path id="Vector_101" d="M328.003 0H327.567C310.199 0 294.838 8.43824 286.003 20.8899C277.167 8.43824 261.807 0 244.439 0H244.002C230.968 0.114047 218.509 4.94645 209.334 13.4471C200.158 21.9477 195.007 33.4296 195 45.3976C195 60.2594 202.089 81.347 215.913 98.6991C242.25 131.763 286.003 160.69 286.003 160.69C286.003 160.69 329.755 131.768 356.087 98.6991C369.916 81.347 377 60.2594 377 45.3976C376.993 33.4305 371.843 21.9494 362.668 13.4489C353.494 4.94847 341.037 0.115446 328.003 0ZM321.758 101.243C319.78 101.236 317.85 100.68 316.223 99.6481C314.595 98.6162 313.345 97.1565 312.637 95.4606H302.254C301.57 95.4567 300.904 95.2569 300.35 94.889C299.796 94.5211 299.381 94.0035 299.163 93.4085L295.973 84.5855L285.881 116.965C285.684 117.588 285.273 118.136 284.708 118.527C284.143 118.917 283.456 119.128 282.749 119.129H282.546C281.808 119.097 281.105 118.833 280.554 118.381C280.003 117.93 279.638 117.319 279.519 116.65L269.118 59.212L261.516 93.2001C261.342 93.8458 260.937 94.4192 260.366 94.8289C259.796 95.2387 259.092 95.461 258.367 95.4606H243.741C243.302 95.4777 242.864 95.4131 242.454 95.2708C242.043 95.1285 241.668 94.9114 241.351 94.6325C241.035 94.3537 240.783 94.0189 240.61 93.6483C240.438 93.2777 240.349 92.8789 240.349 92.476C240.349 92.073 240.438 91.6743 240.61 91.3037C240.783 90.933 241.035 90.5983 241.351 90.3194C241.668 90.0406 242.043 89.8235 242.454 89.6812C242.864 89.5389 243.302 89.4743 243.741 89.4913H255.806L266.574 43.7944C266.751 43.1188 267.178 42.5205 267.782 42.1019C268.386 41.6833 269.129 41.4703 269.886 41.4993C270.642 41.5283 271.363 41.7976 271.927 42.2611C272.491 42.7245 272.862 43.3534 272.977 44.0403L283.599 102.632L292.644 73.6623C292.832 73.0521 293.231 72.5143 293.779 72.129C294.328 71.7438 294.997 71.5318 295.688 71.5247H295.752C296.436 71.5249 297.103 71.7234 297.657 72.0919C298.211 72.4603 298.624 72.98 298.837 73.5768L304.605 89.5074H312.509C313.071 87.9398 314.094 86.5452 315.465 85.4776C316.835 84.41 318.501 83.7108 320.277 83.4573C322.053 83.2038 323.871 83.4058 325.53 84.041C327.189 84.6762 328.625 85.7199 329.678 87.0569C330.732 88.3939 331.363 89.9722 331.501 91.6176C331.64 93.2631 331.281 94.9117 330.463 96.3814C329.645 97.8512 328.402 99.085 326.868 99.9466C325.335 100.808 323.573 101.264 321.775 101.264L321.758 101.243Z" fill="#181818"/>
</g>
</g>
<defs>
<linearGradient id="paint0_linear_181_114" x1="107.95" y1="782.341" x2="107.95" y2="167.001" gradientUnits="userSpaceOnUse">
<stop stop-color="#808080" stop-opacity="0.25"/>
<stop offset="0.54" stop-color="#808080" stop-opacity="0.12"/>
<stop offset="1" stop-color="#808080" stop-opacity="0.1"/>
</linearGradient>
<linearGradient id="paint1_linear_181_114" x1="449.2" y1="774.028" x2="449.2" y2="212.028" gradientUnits="userSpaceOnUse">
<stop stop-color="#808080" stop-opacity="0.25"/>
<stop offset="0.54" stop-color="#808080" stop-opacity="0.12"/>
<stop offset="1" stop-color="#808080" stop-opacity="0.1"/>
</linearGradient>
</defs>
</svg>
