<svg width="670" height="519" viewBox="0 0 670 519" fill="none" xmlns="http://www.w3.org/2000/svg">
<path d="M55.7559 0.877136C52.4225 2.3438 47.2225 8.61047 47.2225 11.1438C47.2225 12.0771 45.2225 14.0772 42.6892 15.5438C35.0892 20.2105 28.9559 28.0771 27.8892 34.3438C26.4225 43.2771 31.6225 97.2772 36.0225 117.944C36.4225 120.344 36.0225 121.01 33.8892 121.01C29.8892 121.01 29.4892 123.677 31.8892 133.144C40.0225 164.21 57.7559 191.677 75.0892 199.81C81.6225 202.877 81.7559 203.144 81.8892 208.744C81.8892 216.077 85.3559 223.544 89.6225 225.41L92.9559 226.877L91.8892 249.01C91.3559 261.144 90.5559 273.944 90.0225 277.544L89.2225 284.077L77.8892 286.344C56.2892 290.744 40.2892 299.01 25.7559 313.277C15.8892 323.01 7.62252 335.81 3.08919 348.344C0.689189 354.877 0.0225224 359.277 0.0225224 372.344C-0.110811 386.344 0.289189 389.01 2.82252 393.81C9.08919 405.544 19.4892 411.144 32.6892 409.944C63.4892 407.144 83.8892 374.877 94.4225 312.344L97.4892 293.677L111.356 293.944C129.889 294.21 143.223 298.21 170.823 311.677L192.423 322.21L192.823 403.277L193.223 484.344L197.623 493.277C203.889 506.21 213.889 513.81 228.289 516.877C236.023 518.477 397.356 518.744 439.223 517.144C460.156 516.477 463.223 515.944 469.089 513.144C477.889 508.744 485.356 501.01 489.756 491.81C493.223 484.477 493.223 483.944 493.623 449.544C494.023 415.144 494.023 414.744 496.956 413.41C501.623 411.277 651.756 297.144 653.223 294.61C654.023 293.41 658.023 289.01 662.289 285.01C670.823 276.877 672.023 272.477 666.956 267.677C662.956 263.944 659.356 264.344 652.556 269.277C649.356 271.677 644.423 274.21 641.623 275.01C638.289 275.944 613.489 293.944 566.023 329.944C527.089 359.544 494.956 383.677 494.556 383.677C494.156 383.677 493.889 362.077 493.889 335.677V287.544L503.223 274.61C520.956 249.81 535.623 220.877 544.823 192.21L549.223 178.61L555.089 177.81C562.823 176.744 573.223 170.877 578.023 164.877C583.756 157.544 586.023 151.01 586.156 141.677C586.289 121.277 570.556 105.144 550.423 105.01C538.956 105.01 530.556 108.344 523.223 115.677C512.423 126.344 509.489 143.01 515.756 156.344C519.356 164.21 528.823 173.41 535.489 175.544L540.289 177.144L537.356 186.744C529.756 211.01 517.356 237.144 502.956 259.277L494.556 272.344L493.889 206.344L493.223 140.344L489.356 132.077C484.956 122.477 476.823 114.21 467.489 109.944C461.889 107.277 458.289 107.01 431.223 106.344C402.556 105.677 401.223 105.544 400.689 103.01C399.756 98.0771 395.223 93.1438 390.156 91.6772C383.756 89.9438 302.823 89.9438 296.689 91.6772C290.823 93.2772 286.289 97.6771 285.223 102.477L284.423 106.21L254.823 106.61C227.089 107.01 224.823 107.144 218.289 110.21C208.956 114.344 199.089 125.01 195.489 134.744C192.556 142.344 192.556 143.677 192.556 227.01C192.556 273.544 192.289 311.677 192.023 311.677C191.756 311.677 183.489 307.81 173.756 303.01C163.889 298.344 151.223 292.877 145.623 291.01C134.956 287.544 113.356 283.677 103.889 283.677H98.4225L99.4892 270.61C100.023 263.544 100.823 250.61 101.356 242.077C102.023 228.477 102.423 226.344 104.556 225.677C108.689 224.344 112.556 216.744 112.556 209.944C112.556 203.944 112.823 203.677 118.289 200.877C136.556 191.677 151.889 169.144 161.356 137.544C165.223 124.344 164.956 121.01 160.289 121.01H157.223L160.823 95.9438C162.823 82.2105 164.956 61.2772 165.356 49.4105C166.289 28.3438 166.156 27.6772 163.223 23.4105C161.623 21.0105 157.489 16.8771 154.156 14.3438C150.823 11.8105 146.823 8.21047 145.223 6.61047C141.089 1.67714 135.489 -0.722823 130.689 0.21051C122.156 1.81051 117.489 9.5438 120.556 16.8771C122.156 20.8771 128.823 25.0105 133.489 25.0105C136.556 25.0105 144.556 20.2105 144.556 18.3438C144.556 15.5438 148.023 17.1438 153.489 22.6105L159.223 28.2105V41.6772C159.223 57.0105 155.889 89.2771 153.623 94.7438C152.823 96.7438 148.823 101.41 144.689 105.144C110.423 135.81 81.3559 134.744 47.7559 101.544L38.9559 92.8771L36.9559 77.9438C36.0225 69.6772 34.9559 55.9438 34.8225 47.1438L34.5559 31.4105L41.2225 25.5438C48.5559 19.0105 49.3559 18.7438 52.5559 21.6772C61.0892 29.4105 77.0892 20.4772 74.4225 9.67715C72.6892 2.74382 62.5559 -2.0562 55.7559 0.877136ZM66.9559 7.94382C67.8892 8.87715 68.5559 10.7438 68.5559 12.3438C68.5559 16.3438 66.0225 18.3438 61.2225 18.3438C56.4225 18.3438 53.8892 16.3438 53.8892 12.3438C53.8892 8.34381 56.4225 6.34381 61.2225 6.34381C63.4892 6.34381 66.0225 7.01048 66.9559 7.94382ZM138.023 7.67715C141.356 9.54382 141.356 15.1438 137.889 17.0105C133.889 19.1438 128.556 18.0771 126.423 15.0105C122.556 9.1438 130.956 3.94382 138.023 7.67715ZM392.423 100.477C396.289 105.277 396.289 115.944 392.556 119.677C390.023 122.21 388.156 122.344 342.956 122.344C288.556 122.344 291.223 123.01 291.223 110.077C291.223 96.3438 288.689 97.0105 343.089 97.0105H389.756L392.423 100.477ZM62.2892 122.21C88.8225 140.21 116.156 137.677 144.023 114.61C151.623 108.477 152.823 107.81 152.156 110.477C151.623 112.21 151.223 115.01 151.223 116.744C151.223 118.61 150.156 120.21 148.556 120.744C146.423 121.544 144.423 125.81 140.423 137.677C128.956 172.077 116.023 186.344 96.2892 186.344C78.6892 186.344 64.4225 169.41 53.2225 135.144C49.7559 124.344 48.2892 121.544 46.1559 121.277C44.2892 121.01 43.0892 119.544 42.6892 116.877C42.2892 114.744 41.4892 111.144 41.0892 108.744L40.2892 104.477L48.0225 111.144C52.4225 114.877 58.8225 119.81 62.2892 122.21ZM284.556 114.344C284.556 118.877 288.289 124.877 292.556 127.01C295.756 128.744 304.023 129.01 342.956 129.01C389.223 129.01 389.489 129.01 394.023 125.944C398.023 123.277 399.223 121.01 401.356 113.277C401.756 111.81 407.623 111.544 430.956 111.944L459.889 112.344L467.089 116.344C470.956 118.477 476.156 122.61 478.689 125.41C487.623 135.944 487.223 129.677 487.223 266.477C487.223 367.144 486.956 390.344 485.489 391.277C484.556 391.81 479.089 398.21 473.356 405.277C458.823 423.544 460.289 429.144 477.756 421.81C482.156 419.944 486.423 418.344 487.356 418.344C488.423 418.344 488.689 427.144 488.289 449.944C487.889 479.544 487.623 482.077 484.823 488.344C480.556 497.544 472.156 505.81 463.489 509.01C456.689 511.544 453.089 511.677 342.156 511.677H227.889L221.223 508.477C212.556 504.477 206.289 498.21 202.023 489.01L198.556 481.677V311.01V140.344L201.756 134.344C205.489 127.144 211.756 120.21 217.223 117.277C226.156 112.61 231.756 111.81 258.289 111.81C283.889 111.677 284.556 111.81 284.556 114.344ZM555.756 125.544C568.689 130.877 570.556 148.61 558.956 155.677C550.156 161.01 537.489 157.544 533.889 148.877C530.023 139.544 533.223 130.477 542.023 126.077C547.489 123.144 549.889 123.144 555.756 125.544ZM47.7559 138.61C55.6225 163.144 68.6892 183.01 80.9559 188.877C89.0892 192.744 105.356 192.744 113.489 188.877C126.023 182.877 140.156 161.277 147.223 137.277C150.023 128.21 150.423 127.677 154.023 127.677C156.156 127.677 157.889 127.944 157.889 128.21C157.889 128.477 156.289 133.41 154.423 139.144C145.089 167.677 130.823 187.944 114.423 195.677L105.889 199.81V208.21C105.889 212.877 105.223 217.144 104.289 218.077C102.156 220.21 92.2892 220.21 90.1559 218.077C89.2225 217.144 88.5559 212.877 88.5559 208.077V199.677L81.2225 196.477C63.6225 188.61 47.8892 165.677 38.6892 134.61L36.6892 127.677H40.5559C44.0225 127.677 44.4225 128.344 47.7559 138.61ZM664.023 273.277C665.489 275.677 656.556 282.61 654.289 280.877C651.756 278.744 652.156 277.144 655.623 274.21C658.956 271.41 662.689 271.01 664.023 273.277ZM648.556 282.877C652.823 288.077 650.956 289.677 573.223 348.744L497.223 406.344L493.623 402.077C491.623 399.677 490.023 397.01 490.023 396.344C490.023 395.544 514.556 376.344 544.689 353.677C574.823 330.877 608.689 305.277 620.156 296.61C640.689 281.144 645.223 279.01 648.556 282.877ZM88.0225 297.277C79.8892 347.544 70.9559 372.744 55.6225 389.277C47.8892 397.41 40.1559 401.01 30.2892 401.01C14.9559 401.01 8.02252 392.21 8.02252 373.01C8.02252 353.277 15.3559 336.877 31.8892 320.21C40.6892 311.277 44.6892 308.344 55.2225 303.277C65.3559 298.344 79.2225 293.944 87.6225 293.144C88.1559 293.01 88.4225 295.01 88.0225 297.277ZM491.089 409.01C491.223 409.41 486.689 411.544 481.223 413.944C475.756 416.21 471.223 417.944 471.223 417.677C471.223 417.41 474.289 413.41 478.023 408.877L484.956 400.744L488.023 404.477C489.756 406.61 491.089 408.61 491.089 409.01Z" fill="#4F4E4E"/>
<path d="M308.156 170.343C286.023 175.943 274.023 197.41 281.223 218.61C286.023 232.61 305.09 250.077 329.223 262.61L342.556 269.41L355.223 262.877C369.623 255.543 386.156 243.543 393.356 235.277C396.023 232.21 400.023 225.943 402.29 221.277C405.756 213.81 406.156 211.81 405.623 203.943C404.29 186.21 393.49 174.077 375.356 170.21C364.69 167.943 355.623 170.477 344.29 178.61C342.423 179.943 341.49 179.81 338.956 177.41C332.423 171.143 318.023 167.943 308.156 170.343ZM329.356 178.21C332.423 179.543 336.556 182.877 338.556 185.543L342.29 190.477L346.29 185.543C359.223 169.943 387.09 173.543 396.823 192.077C401.09 200.21 400.823 211.543 396.29 220.477C389.623 233.143 371.623 248.21 351.09 258.343L342.29 262.743L330.023 256.343C307.356 244.343 290.29 227.943 285.89 213.81C282.956 204.61 286.69 191.01 294.156 184.077C302.69 176.077 318.69 173.41 329.356 178.21Z" fill="#4F4E4E"/>
<path d="M317.756 192.477C317.089 194.61 315.089 200.61 313.623 205.943L310.689 215.543L304.023 215.943C298.289 216.343 297.223 216.743 297.223 219.01C297.223 221.41 298.156 221.677 305.889 221.677H314.556L317.223 213.677C318.823 209.277 320.289 204.743 320.823 203.677C321.223 202.61 324.423 210.61 327.889 221.677C331.356 232.61 335.089 242.61 336.156 243.677C337.889 245.41 338.289 245.41 339.889 243.277C340.823 241.943 342.689 236.61 344.023 231.41C345.889 223.41 346.556 222.21 347.889 224.077C350.956 228.21 353.756 226.61 358.023 218.077L362.156 209.81L364.689 214.743L367.223 219.677H379.223C390.289 219.677 391.223 219.41 391.223 217.01C391.223 214.743 390.156 214.477 381.089 214.077L370.956 213.677L368.023 206.343C366.289 202.21 364.156 199.01 363.089 199.01C362.023 199.01 359.089 203.143 356.423 208.077C351.756 217.01 351.623 217.01 350.156 213.677C347.623 208.21 343.623 209.277 341.889 215.943C337.489 232.877 338.156 233.277 330.689 210.343C325.623 195.01 323.223 189.543 321.623 189.277C320.023 189.01 318.689 190.077 317.756 192.477Z" fill="#4F4E4E"/>
<path d="M292.156 316.61C275.489 317.01 273.756 317.277 274.156 319.41C274.556 321.544 280.289 321.677 358.423 322.077C444.156 322.344 448.289 322.21 444.423 317.544C443.223 315.944 431.356 315.677 376.689 315.944C340.289 316.077 302.289 316.477 292.156 316.61Z" fill="#4F4E4E"/>
<path d="M275.356 336.877C274.289 337.544 273.889 339.01 274.289 340.21C275.089 342.21 278.822 342.344 308.156 342.077C340.156 341.677 341.222 341.544 341.222 339.01C341.222 336.477 340.289 336.344 309.222 336.077C291.622 335.81 276.422 336.21 275.356 336.877Z" fill="#4F4E4E"/>
<path d="M359.489 337.277C358.422 338.344 358.289 339.277 359.356 340.61C360.556 341.944 369.489 342.344 401.756 342.344C443.489 342.344 448.022 341.81 444.422 337.41C442.422 335.01 361.889 334.877 359.489 337.277Z" fill="#4F4E4E"/>
<path d="M274.556 367.677C272.289 371.277 276.822 371.677 318.022 371.677C359.622 371.677 360.556 371.677 360.556 369.01C360.556 366.343 359.622 366.343 318.022 366.343C290.956 366.343 275.089 366.877 274.556 367.677Z" fill="#4F4E4E"/>
<path d="M377.89 369.011C377.89 371.677 378.423 371.677 411.623 371.411C440.423 371.011 445.223 370.744 445.223 369.011C445.223 367.277 440.423 367.011 411.623 366.611C378.423 366.344 377.89 366.344 377.89 369.011Z" fill="#4F4E4E"/>
<path d="M276.156 388.61C274.823 389.01 273.889 390.21 274.156 391.41C274.556 393.544 281.489 393.677 358.423 394.077C444.156 394.344 448.289 394.21 444.423 389.544C443.223 387.944 428.689 387.677 360.689 387.81C315.489 387.944 277.489 388.21 276.156 388.61Z" fill="#4F4E4E"/>
<path d="M424.023 414.21C422.823 415.544 420.423 419.944 418.823 423.81C416.423 429.944 416.023 433.944 415.889 450.61C415.623 471.144 414.823 474.344 409.756 474.344C408.156 474.344 406.689 473.01 405.889 471.01C404.556 467.677 401.356 466.61 399.889 469.01C398.823 470.744 402.823 477.944 405.756 479.677C409.489 481.544 410.289 481.41 415.623 477.81C419.623 475.01 420.689 474.877 422.023 476.477C424.156 479.144 427.623 478.744 431.889 475.41C435.223 472.877 435.623 472.744 436.823 474.744C439.089 479.01 451.889 476.477 450.956 471.944C450.423 469.544 448.423 469.277 444.156 471.01C441.889 471.944 441.756 471.41 442.156 463.544C442.689 452.077 440.023 451.544 434.556 461.944C427.223 475.677 421.623 475.544 428.423 461.81C430.823 457.01 433.623 448.744 434.689 443.41C439.223 422.61 432.556 404.744 424.023 414.21ZM429.623 432.61C428.556 453.944 420.556 470.21 420.556 451.01C420.556 437.277 425.089 419.677 428.689 419.677C429.756 419.677 430.023 423.277 429.623 432.61Z" fill="#4F4E4E"/>
</svg>
