<svg width="543" height="427" viewBox="0 0 543 427" fill="none" xmlns="http://www.w3.org/2000/svg">
<path d="M60.8571 425.715H17.0641L5.32812 348.678H72.5931L60.8571 425.715Z" fill="#9CEFAA"/>
<path d="M73.937 341H3.984C1.7837 341 0 342.784 0 344.984C0 347.184 1.7837 348.968 3.984 348.968H73.937C76.1373 348.968 77.921 347.184 77.921 344.984C77.921 342.784 76.1373 341 73.937 341Z" fill="#242627"/>
<path d="M16.1543 357.26L17.3553 364.723L18.4913 372.195L20.6643 387.153L22.6943 402.132L23.6583 409.628L24.5563 417.133L23.3553 409.671L22.2183 402.199L20.0463 387.24L18.0173 372.262L17.0543 364.765L16.1543 357.26ZM60.8673 357.26L60.0803 364.763L59.2293 372.258L57.4263 387.236L55.4793 402.195L54.4543 409.668L53.3653 417.133L54.1513 409.63L55.0023 402.135L56.8063 387.158L58.7543 372.199L59.7783 364.725L60.8673 357.26ZM38.2363 357.26L38.3883 364.7L38.4763 372.14L38.5493 387.021L38.4773 401.901L38.3893 409.341L38.2363 416.781L38.0843 409.341L37.9963 401.901L37.9243 387.021L37.9973 372.14L38.0853 364.7L38.2363 357.26Z" fill="#383C41"/>
<path d="M13.7529 366.563L20.0549 366.411L26.3569 366.323L38.9599 366.251L51.5639 366.322L57.8659 366.41L64.1679 366.563L57.8659 366.716L51.5639 366.803L38.9599 366.875L26.3569 366.802L20.0549 366.715L13.7529 366.563ZM17.9539 389.719C21.3799 389.589 24.8059 389.529 28.2319 389.479L38.5099 389.406L48.7879 389.478C52.2139 389.528 55.6399 389.588 59.0659 389.718C55.6399 389.848 52.2139 389.908 48.7879 389.959L38.5099 390.031L28.2319 389.958C24.8059 389.908 21.3799 389.848 17.9539 389.718V389.719ZM21.8559 412.776C24.6939 412.647 27.5319 412.586 30.3699 412.536L38.8859 412.464L47.3999 412.536C50.2389 412.586 53.0769 412.646 55.9149 412.776C53.0769 412.906 50.2389 412.966 47.3999 413.016L38.8859 413.088L30.3699 413.016C27.5319 412.966 24.6939 412.906 21.8559 412.776Z" fill="#474B4F"/>
<path d="M273.109 255.352L260.983 406.192C260.983 406.192 269.044 416.276 284.971 408.807L302.961 264.266L308.565 264.826L315.939 407.966C315.939 407.966 327.834 414.409 338.255 407.686L337.141 255.769L273.165 255.303C273.152 255.302 273.138 255.307 273.128 255.316C273.117 255.325 273.111 255.338 273.109 255.352Z" fill="#63A1EA"/>
<path d="M337.142 258.103C337.05 257.324 336.963 256.545 336.882 255.767L273.385 255.305C273.281 256.232 273.172 257.16 273.058 258.088L294.468 262.178C300.697 263.373 307.046 263.828 313.382 263.536C336.08 262.466 337.142 258.103 337.142 258.103Z" fill="#167FFC"/>
<path d="M338.947 146.339L320.822 140.547L306.939 150.43L290.523 140.547L272.045 146.315C269.506 147.108 267.189 148.485 265.278 150.335C261.726 153.77 255.556 160.833 246.116 175.087L260.779 186.575L270.297 175.62C270.297 175.62 278.087 215.825 273.077 255.757L294.467 259.844C300.696 261.039 307.044 261.495 313.38 261.202C336.079 260.132 337.141 255.769 337.141 255.769C332.422 215.805 340.484 175.655 340.484 175.655L349.922 186.673L364.668 175.282C355.334 160.969 349.216 153.865 345.688 150.406C343.79 148.542 341.481 147.149 338.947 146.339ZM329.866 91.153C329.866 77.384 318.51 67 304.502 67C290.494 67 279.136 77.384 279.136 91.153C279.239 97.8127 281.956 104.165 286.702 108.838C291.448 113.511 297.841 116.131 304.501 116.131C311.162 116.131 317.555 113.511 322.301 108.838C327.046 104.165 329.764 97.8127 329.866 91.153Z" fill="#63A1EA"/>
<path d="M326.916 92.5527L329.786 93.1377L329.678 94.9587C329.604 96.2167 329.313 97.4524 328.819 98.6117L327.739 101.153C327.739 101.153 327.139 101.248 326.888 98.8277C326.758 96.7378 326.768 94.6414 326.917 92.5527H326.916ZM282.873 97.0347C280.358 101.935 285.697 109.35 288.182 108.987C290.497 108.649 290.9 101.477 290.935 100.77C291.053 98.3937 291.252 94.3737 289.165 93.4867C287.293 92.6907 284.104 94.6387 282.873 97.0347Z" fill="#595857"/>
<path d="M289.952 94.2332C289.952 94.2332 285.98 101.629 284.053 102.263C284.053 102.263 276.581 109.546 287.003 110.853C287.003 110.853 287.593 129.901 299.586 132.703V137.506C299.586 137.987 299.413 138.452 299.098 138.816C298.783 139.179 298.348 139.417 297.872 139.486L290.522 140.546C290.522 140.546 306.665 163.702 320.822 140.546L315.973 139.539C315.555 139.452 315.175 139.234 314.89 138.916C314.605 138.597 314.43 138.196 314.389 137.771L313.939 133.076C313.939 133.076 328.686 128.034 327.113 111.414C327.113 111.414 336.033 106.95 327.739 101.152C327.739 101.152 327.043 101.682 326.875 97.8142C326.821 96.5702 326.821 94.8712 326.917 92.5522C326.917 92.5522 298.336 80.5422 289.952 94.2332ZM349.922 186.672L357.344 194.329L337.289 220.519C337.289 220.519 340.677 227.787 341.243 230.344C341.266 230.434 341.31 230.516 341.37 230.586C341.431 230.656 341.507 230.71 341.593 230.745C341.678 230.78 341.771 230.794 341.863 230.787C341.955 230.78 342.044 230.752 342.123 230.704C345.001 229.027 355.146 222.142 372.386 200.307C372.386 200.307 379.977 192.353 363.499 176.184L349.922 186.672ZM260.405 186.123L252.982 193.779L273.129 220.089C273.129 220.089 269.649 227.237 269.083 229.795C269.06 229.885 269.016 229.967 268.956 230.037C268.895 230.107 268.819 230.161 268.733 230.196C268.648 230.231 268.555 230.245 268.463 230.238C268.371 230.231 268.282 230.203 268.203 230.155C265.325 228.478 255.181 221.593 237.941 199.758C237.941 199.758 230.35 191.804 246.827 175.635L260.405 186.123Z" fill="#F6C18A"/>
<path d="M268.609 230.249C273.573 238.189 279.569 229.82 279.569 229.82L282.095 230.634C283.8 231.211 285.618 231.37 287.397 231.098C289.175 230.826 290.863 230.13 292.316 229.07C292.508 228.923 292.694 228.769 292.876 228.608C296.218 225.65 294.483 223.148 292.225 221.488C290.236 220.068 287.889 219.234 285.449 219.081C273.958 218.227 272.932 220.296 272.932 220.296C270.961 222.742 269.599 225.621 268.958 228.697L268.609 230.249ZM315.939 407.966V420.198H366.864C367.09 418.898 366.836 417.561 366.148 416.436C365.461 415.311 364.387 414.474 363.128 414.082L353.703 414.943C351.527 415.142 349.345 414.622 347.491 413.463L338.255 407.686L315.939 407.966ZM285.006 407.966V420.198H234.08C233.854 418.898 234.109 417.561 234.796 416.436C235.484 415.311 236.557 414.474 237.816 414.082L246.338 414.86C247.684 414.983 249.041 414.832 250.327 414.415C251.613 413.999 252.802 413.327 253.82 412.439L260.983 406.192L285.006 407.966Z" fill="#2F2A26"/>
<path d="M268.609 230.249C273.573 238.189 279.569 229.82 279.569 229.82L282.095 230.634C283.8 231.211 285.618 231.37 287.397 231.098C289.175 230.826 290.863 230.13 292.316 229.07C292.508 228.923 292.694 228.769 292.876 228.608C296.218 225.65 294.483 223.148 292.225 221.488C290.236 220.068 287.889 219.234 285.449 219.081C273.958 218.227 272.932 220.296 272.932 220.296C270.961 222.742 269.599 225.621 268.958 228.697L268.609 230.249ZM315.939 407.966V420.198H366.864C367.09 418.898 366.836 417.561 366.148 416.436C365.461 415.311 364.387 414.474 363.128 414.082L353.703 414.943C351.527 415.142 349.345 414.622 347.491 413.463L338.255 407.686L315.939 407.966ZM285.006 407.966V420.198H234.08C233.854 418.898 234.109 417.561 234.796 416.436C235.484 415.311 236.557 414.474 237.816 414.082L246.338 414.86C247.684 414.983 249.041 414.832 250.327 414.415C251.613 413.999 252.802 413.327 253.82 412.439L260.983 406.192L285.006 407.966Z" fill="#2F2A26"/>
<path d="M234.08 420.197H285.005V423.932H234.08V420.197ZM315.973 420.197H366.898V423.932H315.973V420.197Z" fill="#1B1B1E"/>
<path d="M289.656 110.854V123.067C289.656 123.067 294.277 138.213 313.94 133.077C313.94 133.077 327.482 129.909 327.17 112.121C327.17 112.121 313.399 110.294 289.657 110.854H289.656Z" fill="#949698"/>
<path d="M289.656 110.853C289.238 110.107 288.798 109.374 288.336 108.654C287.883 107.952 287.391 107.275 286.861 106.629C286.33 105.994 285.743 105.409 285.107 104.879C284.442 104.357 283.725 103.905 282.967 103.529C283.851 103.621 284.703 103.908 285.463 104.369C286.22 104.843 286.898 105.433 287.473 106.117C288.604 107.477 289.357 109.11 289.657 110.853H289.656Z" fill="#63A1EA"/>
<path d="M297.179 101.153C298.181 100.472 299.357 100.093 300.569 100.06C301.179 100.04 301.79 100.113 302.378 100.279C302.965 100.447 303.507 100.746 303.962 101.153C302.857 100.911 301.726 100.812 300.597 100.858C299.481 100.894 298.372 101.041 297.179 101.153ZM317.382 101.153C318.532 100.484 319.846 100.146 321.177 100.178C321.853 100.193 322.521 100.322 323.155 100.559C323.784 100.808 324.336 101.219 324.755 101.751C324.185 101.489 323.588 101.289 322.975 101.156C322.375 101.049 321.768 100.988 321.159 100.976C319.929 100.945 318.693 101.07 317.382 101.153Z" fill="#020202"/>
<path d="M300.127 109.594C300.779 109.594 301.307 108.559 301.307 107.283C301.307 106.006 300.779 104.972 300.127 104.972C299.476 104.972 298.947 106.006 298.947 107.283C298.947 108.559 299.476 109.594 300.127 109.594Z" fill="#020202"/>
<path d="M319.888 109.594C320.54 109.594 321.068 108.559 321.068 107.283C321.068 106.006 320.54 104.972 319.888 104.972C319.236 104.972 318.708 106.006 318.708 107.283C318.708 108.559 319.236 109.594 319.888 109.594Z" fill="#020202"/>
<path d="M299.591 136.488C290.653 138.332 284.328 142.588 280.781 149.156C271.441 166.43 284.082 194.301 284.213 194.581L282.714 195.204C282.174 194.037 269.63 166.383 279.322 148.447C283.124 141.406 290.055 136.854 299.591 134.932V136.488Z" fill="black"/>
<path d="M284.713 202.937C288.248 202.937 291.113 200.216 291.113 196.859C291.113 193.502 288.248 190.781 284.713 190.781C281.179 190.781 278.313 193.502 278.313 196.859C278.313 200.216 281.179 202.937 284.713 202.937Z" fill="#9CEFAA"/>
<path d="M284.713 199.988C286.532 199.988 288.006 198.588 288.006 196.86C288.006 195.133 286.532 193.732 284.713 193.732C282.894 193.732 281.42 195.133 281.42 196.86C281.42 198.588 282.894 199.988 284.713 199.988Z" fill="#167FFC"/>
<path d="M314.214 136.526C316.09 137.047 327.092 140.502 327.478 149.404L329.108 149.341C328.649 138.549 314.763 135.101 314.091 134.939L314.214 136.526Z" fill="black"/>
<path d="M341.773 187.73C339.143 187.73 336.713 185.905 334.629 183.446C333.951 184.972 332.844 186.268 331.443 187.176C331.088 187.403 330.688 187.55 330.271 187.607C329.854 187.664 329.43 187.629 329.027 187.506L329.595 186.014C329.803 186.047 330.015 186.037 330.218 185.986C330.422 185.934 330.613 185.842 330.78 185.714C332.029 184.781 332.983 183.509 333.53 182.049C331.072 178.512 329.061 174.685 327.544 170.653C323.872 159.892 323.068 153.042 325.149 150.277C325.366 149.959 325.65 149.692 325.981 149.495C326.313 149.297 326.683 149.175 327.066 149.135C328.263 148.766 329.534 148.705 330.76 148.959C331.987 149.213 333.129 149.773 334.081 150.587C339.974 155.825 338.161 171.224 338.081 171.877C337.527 175.28 336.622 178.615 335.379 181.83C337.644 184.695 340.248 186.679 342.836 185.994L343.244 187.538C342.764 187.666 342.27 187.73 341.773 187.73ZM327.137 150.727C326.975 150.767 326.823 150.839 326.691 150.94C326.559 151.042 326.449 151.169 326.369 151.315C325.619 152.411 324.38 156.435 329.049 170.121C330.392 173.703 332.14 177.12 334.259 180.305C335.258 177.486 336.009 174.585 336.503 171.635C336.514 171.531 338.29 156.463 333.019 151.78C331.561 150.484 329.711 150.133 327.365 150.705L327.253 150.733L327.137 150.727Z" fill="black"/>
<path d="M327.593 189.078C328.591 189.078 329.399 188.31 329.399 187.362C329.399 186.415 328.591 185.646 327.593 185.646C326.596 185.646 325.787 186.415 325.787 187.362C325.787 188.31 326.596 189.078 327.593 189.078Z" fill="#9CEFAA"/>
<path d="M344.476 188.017C345.473 188.017 346.282 187.249 346.282 186.301C346.282 185.353 345.473 184.585 344.476 184.585C343.478 184.585 342.67 185.353 342.67 186.301C342.67 187.249 343.478 188.017 344.476 188.017Z" fill="#9CEFAA"/>
<path d="M341.621 230.756C336.656 238.696 330.653 230.046 330.653 230.046L328.126 230.859C326.422 231.436 324.604 231.595 322.825 231.323C321.046 231.051 319.359 230.355 317.905 229.295C317.714 229.148 317.527 228.994 317.345 228.834C314.003 225.876 315.738 223.374 317.996 221.714C319.986 220.294 322.333 219.46 324.772 219.307C336.263 218.452 337.289 220.522 337.289 220.522L338.509 222.265C339.752 224.033 340.582 226.057 340.938 228.189L341.621 230.756Z" fill="#77787A"/>
<path d="M297.178 115.355C299.12 115.875 301.071 116.319 303.031 116.687C304.984 117.063 306.957 117.317 308.941 117.448C310.913 117.606 312.897 117.548 314.856 117.275C316.825 116.995 318.722 116.343 320.448 115.355C318.849 116.624 316.969 117.489 314.966 117.879C312.968 118.286 310.923 118.409 308.89 118.245C306.868 118.112 304.863 117.791 302.9 117.285C300.94 116.813 299.025 116.167 297.178 115.355ZM296.781 119.871C298.723 120.392 300.674 120.836 302.634 121.203C304.587 121.579 306.561 121.834 308.545 121.965C310.517 122.123 312.5 122.064 314.459 121.791C316.428 121.511 318.326 120.86 320.052 119.871C318.453 121.14 316.573 122.005 314.569 122.395C312.571 122.802 310.526 122.925 308.493 122.761C306.471 122.628 304.466 122.307 302.504 121.801C300.543 121.329 298.628 120.683 296.781 119.871ZM296.781 125.143C298.723 125.664 300.674 126.108 302.634 126.476C304.587 126.851 306.561 127.105 308.545 127.236C310.517 127.395 312.5 127.337 314.459 127.064C316.428 126.784 318.326 126.133 320.052 125.144C318.453 126.413 316.573 127.278 314.569 127.668C312.571 128.075 310.526 128.198 308.493 128.033C306.471 127.9 304.466 127.579 302.504 127.073C300.543 126.601 298.628 125.955 296.781 125.143Z" fill="#3D3D3D"/>
<path d="M180.126 232.723L178.619 407.546C178.619 407.546 169.953 415.459 156.954 407.546L150.592 262.866L144.521 262.488L137.482 407.546C137.482 407.546 126.384 415.459 115.818 407.546L117.205 232.723H180.126Z" fill="#4B4B60"/>
<path d="M166.539 264.139L166.579 265.639L166.529 265.64L166.539 264.139ZM166.659 268.626L166.727 271.613L166.501 271.615L166.509 268.627L166.659 268.626ZM166.794 274.6L166.862 277.587L166.486 277.591L166.493 274.603L166.794 274.6ZM166.929 280.574L166.991 283.561L166.476 283.566L166.479 280.578L166.929 280.574ZM167.044 286.548L167.097 289.535L166.491 289.541L166.484 286.554L167.044 286.548ZM167.15 292.523L167.203 295.51L166.505 295.517L166.498 292.529L167.15 292.523ZM167.255 298.497L167.308 301.484L166.52 301.492L166.512 298.504L167.255 298.497ZM167.361 304.471L167.402 307.458L166.546 307.467L166.527 304.48L167.361 304.471ZM167.439 310.446L167.477 313.433L166.591 313.442L166.569 310.454L167.439 310.446ZM167.514 316.42L167.552 319.408L166.636 319.417L166.613 316.429L167.514 316.42ZM167.589 322.395L167.627 325.382L166.681 325.392L166.658 322.404L167.589 322.395ZM167.665 328.37L167.702 331.357L166.726 331.367L166.703 328.379L167.665 328.37ZM166.748 334.356L167.74 334.346L167.771 337.333L166.779 337.343L166.748 334.356ZM167.793 340.319L167.815 343.307L166.852 343.316L166.815 340.329L167.793 340.319ZM167.838 346.294L167.86 349.281L166.927 349.291L166.89 346.304L167.838 346.294ZM167.883 352.269L167.905 355.256L167.003 355.265L166.965 352.278L167.883 352.269ZM167.927 358.244L167.95 361.231L167.078 361.24L167.04 358.253L167.927 358.244ZM167.972 364.219L167.993 367.206L167.155 367.215L167.115 364.227L167.972 364.219ZM168 370.194L168.007 373.182L167.261 373.189L167.208 370.202L168 370.194ZM168.014 376.169L168.021 379.157L167.367 379.163L167.314 376.176L168.014 376.169ZM168.028 382.144L168.035 385.132L167.472 385.138L167.419 382.15L168.028 382.144ZM168.042 388.12L168.04 391.107L167.587 391.112L167.525 388.125L168.042 388.12ZM168.033 394.095L168.025 397.083L167.722 397.086L167.655 394.099L168.033 394.095ZM168.018 400.071L168.009 403.058L167.858 403.06L167.79 400.073L168.018 400.071ZM167.989 406.046L167.979 407.546L167.938 406.047L167.989 406.046Z" fill="#0A0B3F"/>
<path d="M180.625 244.496H117.647V237.903H180.625V244.496Z" fill="#1B1B1E"/>
<path d="M169.389 136.327L164.821 134.059L139.101 133.881L128.886 136.008V237.904H167.24L169.389 136.327Z" fill="#2AEC37"/>
<path d="M158.938 123.844L159.44 127.131L153.687 139.885H150.298L144.48 127.131L145.149 124.27L158.938 123.844Z" fill="#F6C18A"/>
<path d="M151.68 126.001C162.605 126.001 171.461 112.148 171.461 95.0582C171.461 77.9689 162.605 64.1152 151.68 64.1152C140.756 64.1152 131.899 77.9689 131.899 95.0582C131.899 112.148 140.756 126.001 151.68 126.001Z" fill="#F6C18A"/>
<path d="M175.05 98.5163C175.62 95.7461 174.924 93.2619 173.494 92.9678C172.065 92.6736 170.444 94.6808 169.874 97.451C169.304 100.221 170 102.705 171.43 102.999C172.859 103.294 174.48 101.286 175.05 98.5163Z" fill="#F6C18A"/>
<path d="M165.103 76.5495C165.103 76.5495 147.01 76.8115 147.018 70.8985C147.018 70.8985 133.313 68.3825 135.008 97.4035C135.008 97.4035 125.824 93.7875 127.238 79.3755C127.238 79.3755 131.9 56.7695 160.017 63.1275C160.017 63.1275 177.782 68.0535 171.443 93.7775C171.443 93.7775 166.293 82.3555 165.103 76.5495Z" fill="#595857"/>
<path d="M167.086 92.9399C165.916 92.7699 164.831 92.5169 163.744 92.4249C162.663 92.2461 161.553 92.427 160.586 92.9399C160.902 92.4059 161.406 92.0082 161.999 91.8239C162.585 91.6345 163.205 91.5731 163.817 91.6439C165.007 91.7568 166.14 92.2063 167.085 92.9399H167.086ZM149.049 92.9399C147.878 92.6178 146.683 92.396 145.475 92.2769C144.894 92.2419 144.311 92.2714 143.738 92.3649C143.144 92.4871 142.567 92.6802 142.02 92.9399C142.418 92.415 142.955 92.0119 143.57 91.7759C144.196 91.5513 144.861 91.4558 145.525 91.4949C146.824 91.5846 148.06 92.0914 149.049 92.9399Z" fill="#020202"/>
<path d="M163.478 101.347C164.219 101.347 164.82 100.256 164.82 98.9097C164.82 97.5637 164.219 96.4727 163.478 96.4727C162.737 96.4727 162.136 97.5637 162.136 98.9097C162.136 100.256 162.737 101.347 163.478 101.347Z" fill="#020202"/>
<path d="M145.533 101.347C146.275 101.347 146.875 100.256 146.875 98.9097C146.875 97.5637 146.275 96.4727 145.533 96.4727C144.792 96.4727 144.191 97.5637 144.191 98.9097C144.191 100.256 144.792 101.347 145.533 101.347Z" fill="#020202"/>
<path d="M132.864 104.627C156.859 99.1475 170.495 104.627 170.494 104.627C167.92 117.037 160.471 126.001 151.68 126.001C142.889 126.001 135.44 117.037 132.864 104.627Z" fill="#949698"/>
<path d="M138.315 103.532C136.702 101.949 135.194 100.261 133.801 98.4805C132.381 96.7215 131.078 94.8705 129.902 92.9395C131.517 94.5224 133.025 96.2104 134.416 97.9925C135.835 99.7522 137.138 101.603 138.315 103.532Z" fill="#15529B"/>
<path d="M165.707 134.48L158.364 146.645L151.909 139.581L154.365 136.033L164.82 134.033L165.707 134.48Z" fill="#3CA04D"/>
<path d="M137.982 134.113L139.915 133.725L149.555 136.033L152.011 139.581L145.555 146.645L137.982 134.113Z" fill="#3CA04D"/>
<path d="M149.331 145.076L144.521 208.986L150.116 214.544L156.664 209.175L155.428 144.348L149.331 145.076Z" fill="#C0E2C6"/>
<path d="M155.442 145.12L152.011 148.263L149.276 145.811L149.331 145.076L155.428 144.348L155.442 145.12Z" fill="#A2CCA9"/>
<path d="M111.374 147.852C111.009 147.423 110.505 147.136 109.95 147.043C109.395 146.95 108.824 147.056 108.34 147.343C107.855 147.629 107.488 148.078 107.302 148.61C107.117 149.141 107.125 149.721 107.326 150.247C110.536 158.573 115.099 173.622 116.432 194.365C117.556 212.839 115.83 231.375 111.315 249.324L98.7275 300.071L140.943 302.331L137.928 196.364C137.928 196.364 122.529 161.28 111.374 147.852ZM189.519 145.878C189.519 145.878 180.957 163.627 180.332 197.298C180.053 215.174 182.117 233.009 186.472 250.348L198.804 300.071L156.59 302.331L159.604 196.364C159.604 196.364 179.837 144.254 189.519 145.878Z" fill="#F4F4F4"/>
<path d="M169.389 136.326C169.389 136.326 189.519 139.886 205.559 162.454L208.009 138.011H222.326V187.509C222.326 187.509 215.936 209.362 184.279 165.185L169.389 136.326Z" fill="#F4F4F4"/>
<path d="M214.706 134.007C214.55 132.836 214.082 131.728 213.351 130.801C212.62 129.873 211.653 129.158 210.552 128.733C210.552 128.733 216.768 126.755 217.239 124.211C217.361 123.821 217.339 123.4 217.177 123.026C217.014 122.651 216.722 122.347 216.354 122.171C215.967 121.989 215.54 121.911 215.114 121.945C214.688 121.979 214.278 122.123 213.925 122.364L206.595 127.131C206.595 130.336 207.464 133.481 209.111 136.232L210.175 138.011H219.312C225.717 130.805 221.384 121.951 221.384 121.951C220.159 119.407 218.087 120.349 218.087 120.349C217.733 119.831 217.197 119.466 216.586 119.327C215.974 119.187 215.333 119.283 214.79 119.596C213.943 117.618 211.494 118.936 211.494 118.936C212.059 103.583 208.95 107.916 208.95 107.916L207.82 121.103L206.595 127.131" fill="#77787A"/>
<path d="M214.706 134.006C214.521 132.851 214.019 131.77 213.258 130.882C212.5 130.024 211.545 129.362 210.475 128.953C210.429 128.937 210.39 128.907 210.363 128.867C210.335 128.827 210.32 128.78 210.32 128.732C210.32 128.684 210.335 128.637 210.363 128.597C210.39 128.557 210.429 128.527 210.475 128.51L210.48 128.508C211.786 128.047 213.047 127.467 214.248 126.775C214.837 126.441 215.392 126.049 215.905 125.606C216.401 125.224 216.751 124.683 216.898 124.073C216.972 123.801 216.959 123.511 216.861 123.246C216.762 122.981 216.583 122.754 216.348 122.596C216.095 122.444 215.811 122.351 215.518 122.324C215.224 122.297 214.928 122.336 214.652 122.438C214.355 122.555 214.076 122.71 213.819 122.898L212.933 123.466L211.16 124.601L207.616 126.871L207.173 127.154L206.951 127.296L206.841 127.367L206.785 127.403L206.778 127.407C206.742 127.469 207.062 126.885 206.928 127.137V127.185C206.923 127.529 206.926 127.873 206.94 128.218C206.969 128.908 207.038 129.596 207.148 130.277C207.373 131.647 207.752 132.986 208.277 134.27C208.842 135.55 209.475 136.799 210.175 138.01C209.361 136.86 208.628 135.654 207.981 134.401C207.36 133.121 206.906 131.767 206.628 130.372C206.485 129.674 206.383 128.967 206.323 128.256C206.293 127.901 206.275 127.544 206.265 127.186V127.153L206.264 127.136C206.13 127.382 206.446 126.792 206.417 126.851L206.424 126.847L206.478 126.81L206.588 126.738L206.808 126.593L207.247 126.303L210.759 123.983L212.515 122.823L213.393 122.243C213.702 122.016 214.042 121.835 214.403 121.705C214.789 121.57 215.201 121.524 215.608 121.57C216.015 121.616 216.406 121.753 216.753 121.971C217.121 122.206 217.398 122.558 217.539 122.971C217.66 123.365 217.683 123.782 217.605 124.186C217.426 124.955 216.987 125.638 216.362 126.118C215.809 126.59 215.207 126.999 214.565 127.338C213.303 127.997 211.984 128.538 210.623 128.955L210.628 128.51C211.756 128.975 212.739 129.735 213.472 130.71C213.838 131.185 214.128 131.713 214.333 132.276C214.537 132.833 214.663 133.415 214.706 134.006Z" fill="#989898"/>
<path d="M178.619 407.545L187.487 412.185C189.488 413.242 191.791 413.581 194.01 413.143C198.564 412.223 206.503 411.658 206.971 418.754H157.615C157.615 418.754 155.731 409.241 156.955 407.545H178.619Z" fill="#2F2A26"/>
<path d="M206.971 422.43H157.614V418.756H206.971V422.43Z" fill="#1B1B1E"/>
<path d="M115.819 407.545L106.951 412.185C104.951 413.242 102.648 413.581 100.428 413.143C95.8738 412.223 87.9348 411.658 87.4668 418.754H136.824C136.824 418.754 138.708 409.241 137.484 407.545H115.819Z" fill="#2F2A26"/>
<path d="M87.4668 418.754H136.824V422.428H87.4668V418.754Z" fill="#1B1B1E"/>
<path d="M143.297 201.827C143.297 201.827 147.254 200.697 154.977 194.762L159.727 192.914C159.727 192.914 158.274 198.342 155.637 199.849L152.999 201.356L143.297 201.827Z" fill="#15529B"/>
<path d="M130.451 103.545C131.992 103.315 132.889 100.764 132.455 97.8474C132.02 94.9304 130.419 92.7516 128.878 92.9811C127.337 93.2105 126.44 95.7612 126.874 98.6783C127.309 101.595 128.91 103.774 130.451 103.545Z" fill="#F6C18A"/>
<path d="M139.101 133.88L144.481 127.131L152.012 138.011L145.556 145.075L139.101 133.88Z" fill="#2AEC37"/>
<path d="M164.82 134.033L159.44 127.131L151.909 138.011L158.364 145.075L164.82 134.033Z" fill="#2AEC37"/>
<path d="M156.665 143.216L152.012 147.478L147.257 143.216L152.012 138.012L156.665 143.216Z" fill="#C0E2C6"/>
<path d="M169.389 136.326L186.975 153.176L178.144 152.531L182.664 163.061L159.604 196.364C159.604 196.364 159.256 181.916 169.389 136.326Z" fill="#CECECE"/>
<path d="M159.403 126.857C167.771 128.757 173.697 133.018 177.049 139.549C184.106 153.286 178.069 173.663 175.134 181.819C174.803 182.762 174.446 183.697 174.066 184.621C173.886 185.091 173.776 185.351 173.76 185.374L175.197 186.002C175.236 185.924 175.322 185.712 175.456 185.39C175.706 184.793 176.099 183.804 176.586 182.501C179.608 174.26 185.911 153.38 178.446 138.835C174.82 131.763 168.226 127.178 159.152 125.232L159.403 126.857Z" fill="#020C17"/>
<path d="M173.283 193.803C176.67 193.803 179.415 191.058 179.415 187.671C179.415 184.284 176.67 181.539 173.283 181.539C169.897 181.539 167.151 184.284 167.151 187.671C167.151 191.058 169.897 193.803 173.283 193.803Z" fill="#9CEFAA"/>
<path d="M173.284 190.826C175.026 190.826 176.439 189.413 176.439 187.671C176.439 185.928 175.026 184.516 173.284 184.516C171.541 184.516 170.129 185.928 170.129 187.671C170.129 189.413 171.541 190.826 173.284 190.826Z" fill="#167FFC"/>
<path d="M146.217 230.086H183.33L199.908 166.788L162.23 164.096L146.217 230.086Z" fill="#EFBB84"/>
<path d="M142.307 201.827L163.05 200.882C163.64 200.848 164.229 200.954 164.77 201.19C165.311 201.426 165.79 201.785 166.166 202.24C166.543 202.695 166.807 203.231 166.938 203.807C167.069 204.383 167.063 204.981 166.92 205.554C165.738 209.898 159.63 214.837 141.027 212.364L142.307 201.827Z" fill="#77787A"/>
<path d="M116.337 193.042L137.951 197.162L138.325 210.295C129.688 209.931 122.605 209.387 116.789 208.735C116.905 203.499 116.754 198.261 116.337 193.041V193.042Z" fill="#CECECE"/>
<path d="M116.541 196.262L138.086 201.908L138.459 215.011C129.706 214.644 122.586 212.921 116.719 212.26C116.942 206.18 116.829 201.626 116.541 196.262Z" fill="#CECECE"/>
<path d="M128.885 136.008L121.165 137.468C116.553 138.29 112.186 140.143 108.39 142.89C104.595 145.637 101.469 149.206 99.2474 153.331C98.7921 154.203 98.3767 155.099 98.0014 156.019C92.8654 168.632 85.3314 185.578 87.3294 199.577C87.4657 200.555 87.8217 201.49 88.3706 202.311C88.9196 203.133 89.6474 203.819 90.4994 204.319C95.1664 207.019 107.659 211.156 140.942 212.754L142.449 200.697L107.22 191.467L113.249 174.7L122.469 163.02L128.885 136.008Z" fill="#F4F4F4"/>
<path d="M128.885 136.008L114.567 152.283H123.422L118.147 162.456L137.927 196.366C137.927 196.366 140.565 181.599 128.885 136.009V136.008Z" fill="#CECECE"/>
<path d="M144.491 127.092C141.994 127.885 132.473 131.456 132.12 139.981L130.558 139.918C130.989 129.274 143.713 125.711 144.883 125.404L144.491 127.092Z" fill="#020D19"/>
<path d="M118.421 178.623C117.941 178.622 117.463 178.556 117.001 178.427C116.806 178.366 116.643 178.232 116.545 178.053C116.447 177.874 116.423 177.663 116.478 177.467C116.532 177.27 116.661 177.103 116.837 177C117.013 176.897 117.223 176.866 117.421 176.915C119.895 177.603 122.376 175.598 124.541 172.708C123.345 169.462 122.476 166.106 121.948 162.688C121.864 161.973 120.095 146.148 125.952 141.037C126.847 140.28 127.921 139.763 129.071 139.535C130.221 139.306 131.41 139.374 132.527 139.732C132.882 139.771 133.225 139.886 133.533 140.069C133.84 140.252 134.105 140.498 134.309 140.792C136.384 143.5 135.637 150.427 132.089 161.382C130.64 165.441 128.706 169.31 126.33 172.906C127.38 175.273 128.365 176.262 129.036 176.671C129.182 176.783 129.35 176.864 129.529 176.91C129.707 176.955 129.894 176.964 130.076 176.936C130.27 176.873 130.481 176.887 130.665 176.974C130.849 177.062 130.993 177.216 131.068 177.406C131.141 177.591 131.14 177.798 131.063 177.983C130.987 178.167 130.841 178.314 130.658 178.393C130.283 178.516 129.886 178.555 129.494 178.506C129.103 178.457 128.727 178.322 128.394 178.111C126.994 177.194 125.902 175.877 125.26 174.332C123.266 176.797 120.94 178.622 118.421 178.623ZM130.282 141.006C129.07 140.982 127.893 141.415 126.985 142.219C121.747 146.789 123.484 162.305 123.501 162.462C123.971 165.408 124.683 168.31 125.631 171.139C127.657 167.912 129.324 164.472 130.6 160.882C135.113 146.951 133.87 142.921 133.127 141.835C132.775 141.321 132.429 141.297 132.414 141.296C132.347 141.298 132.28 141.29 132.216 141.272C131.585 141.102 130.935 141.013 130.282 141.006Z" fill="#011304"/>
<path d="M131.634 179.131C132.59 179.131 133.365 178.356 133.365 177.4C133.365 176.444 132.59 175.669 131.634 175.669C130.678 175.669 129.903 176.444 129.903 177.4C129.903 178.356 130.678 179.131 131.634 179.131Z" fill="#15529B"/>
<path d="M116.871 178.933C117.827 178.933 118.602 178.158 118.602 177.202C118.602 176.246 117.827 175.471 116.871 175.471C115.915 175.471 115.14 176.246 115.14 177.202C115.14 178.158 115.915 178.933 116.871 178.933Z" fill="#15529B"/>
<path d="M162.693 105.561C161.281 106.359 159.771 106.971 158.203 107.383C156.628 107.814 155.008 108.058 153.377 108.11C151.738 108.168 150.101 107.984 148.517 107.564C146.94 107.152 145.446 106.475 144.098 105.561C144.872 105.812 145.566 106.216 146.352 106.389L147.488 106.739L148.651 106.975C150.201 107.262 151.778 107.38 153.355 107.326C154.936 107.274 156.511 107.098 158.065 106.798C158.845 106.649 159.623 106.472 160.391 106.255C161.17 106.07 161.928 105.817 162.693 105.561ZM161.351 111.742C160.127 112.741 158.736 113.517 157.243 114.032C155.737 114.572 154.144 114.828 152.545 114.788C151.743 114.762 150.946 114.665 150.163 114.497C149.386 114.305 148.631 114.033 147.911 113.686C147.192 113.35 146.506 112.949 145.862 112.486C145.243 112.002 144.654 111.483 144.098 110.93C145.352 111.825 146.712 112.564 148.146 113.13C149.554 113.684 151.052 113.98 152.566 114.004C154.084 114.041 155.599 113.857 157.065 113.458C157.806 113.259 158.533 113.013 159.243 112.72C159.967 112.443 160.671 112.116 161.351 111.742ZM160.126 117.806C157.747 119.524 154.913 120.498 151.981 120.606C150.5 120.647 149.027 120.376 147.658 119.812C146.304 119.255 145.089 118.41 144.098 117.335C144.687 117.735 145.299 118.101 145.931 118.433L146.871 118.906L147.864 119.246C149.189 119.664 150.576 119.858 151.966 119.821C153.364 119.779 154.754 119.579 156.109 119.227C156.796 119.057 157.473 118.848 158.136 118.6C158.812 118.37 159.477 118.105 160.126 117.806ZM187.097 297.527L185.926 297.665C185.915 297.667 185.905 297.667 185.894 297.665C185.884 297.663 185.874 297.659 185.865 297.653C185.857 297.647 185.85 297.639 185.844 297.63C185.839 297.621 185.835 297.611 185.834 297.601C185.833 297.59 185.834 297.58 185.837 297.569C185.84 297.559 185.845 297.55 185.852 297.542C185.859 297.534 185.867 297.528 185.877 297.523C185.887 297.519 185.897 297.517 185.908 297.517H185.918L187.097 297.527ZM183.594 297.907L181.26 298.107C181.189 298.113 181.12 298.09 181.066 298.045C181.012 298 180.979 297.935 180.973 297.865C180.967 297.794 180.989 297.725 181.034 297.671C181.079 297.617 181.144 297.584 181.215 297.578H181.231L183.573 297.525C183.621 297.526 183.666 297.546 183.701 297.579C183.735 297.613 183.756 297.658 183.758 297.706C183.761 297.754 183.745 297.801 183.715 297.838C183.684 297.875 183.641 297.9 183.594 297.907ZM178.926 298.3L176.589 298.449C176.496 298.451 176.407 298.418 176.338 298.355C176.27 298.293 176.229 298.207 176.223 298.115C176.217 298.023 176.247 297.932 176.306 297.861C176.366 297.791 176.451 297.746 176.543 297.737H176.551L178.89 297.635C178.977 297.631 179.063 297.661 179.128 297.72C179.193 297.779 179.232 297.862 179.237 297.949C179.242 298.037 179.212 298.123 179.153 298.189C179.095 298.254 179.013 298.294 178.926 298.3ZM174.252 298.598C173.473 298.652 172.694 298.696 171.914 298.724C171.816 298.724 171.721 298.687 171.65 298.62C171.579 298.553 171.536 298.461 171.531 298.363C171.526 298.265 171.558 298.169 171.622 298.095C171.685 298.021 171.775 297.974 171.873 297.964C172.651 297.909 173.431 297.867 174.211 297.839C174.311 297.833 174.41 297.868 174.485 297.936C174.56 298.003 174.605 298.097 174.61 298.198C174.615 298.299 174.58 298.397 174.513 298.472C174.446 298.547 174.351 298.592 174.251 298.598H174.252ZM169.575 298.826L167.235 298.928C167.191 298.93 167.147 298.924 167.106 298.909C167.064 298.894 167.026 298.872 166.994 298.842C166.961 298.813 166.935 298.778 166.916 298.738C166.897 298.699 166.886 298.656 166.884 298.612C166.882 298.568 166.888 298.525 166.903 298.483C166.917 298.442 166.94 298.404 166.969 298.371C166.998 298.339 167.034 298.312 167.073 298.294C167.113 298.275 167.156 298.264 167.2 298.262L169.536 298.112C169.582 298.109 169.629 298.115 169.674 298.13C169.718 298.145 169.759 298.169 169.795 298.2C169.83 298.231 169.859 298.269 169.88 298.311C169.9 298.353 169.913 298.399 169.916 298.446C169.919 298.492 169.912 298.539 169.897 298.584C169.882 298.628 169.858 298.669 169.827 298.705C169.796 298.74 169.759 298.769 169.716 298.79C169.674 298.81 169.628 298.823 169.582 298.826H169.575ZM164.894 298.986L162.552 299.038C162.503 299.036 162.457 299.016 162.423 298.982C162.389 298.948 162.368 298.903 162.366 298.855C162.363 298.807 162.379 298.759 162.41 298.722C162.44 298.685 162.484 298.66 162.532 298.654L164.865 298.454C164.899 298.451 164.935 298.455 164.968 298.465C165.001 298.476 165.032 298.493 165.059 298.515C165.086 298.538 165.108 298.566 165.124 298.597C165.14 298.628 165.15 298.662 165.153 298.697C165.155 298.731 165.152 298.767 165.141 298.8C165.13 298.833 165.113 298.864 165.091 298.891C165.068 298.918 165.041 298.94 165.009 298.956C164.978 298.972 164.944 298.982 164.91 298.985L164.894 298.986ZM160.207 299.046L159.027 299.035L160.199 298.897C160.218 298.894 160.238 298.9 160.254 298.912C160.27 298.924 160.28 298.942 160.282 298.962C160.284 298.982 160.279 299.002 160.267 299.017C160.254 299.033 160.236 299.043 160.217 299.046H160.207ZM138.396 299.252L137.216 299.244C137.205 299.245 137.194 299.243 137.184 299.24C137.174 299.237 137.165 299.231 137.157 299.224C137.15 299.217 137.143 299.208 137.139 299.199C137.135 299.189 137.133 299.179 137.133 299.168C137.133 299.157 137.135 299.147 137.14 299.137C137.144 299.128 137.151 299.119 137.159 299.112C137.167 299.105 137.176 299.1 137.186 299.097C137.196 299.094 137.207 299.093 137.218 299.095H137.226L138.396 299.252ZM134.873 299.199L132.533 299.111C132.498 299.109 132.464 299.101 132.432 299.087C132.4 299.072 132.372 299.051 132.348 299.026C132.324 299 132.306 298.97 132.294 298.938C132.282 298.905 132.276 298.87 132.278 298.836C132.279 298.801 132.287 298.767 132.302 298.735C132.316 298.703 132.337 298.675 132.362 298.651C132.388 298.627 132.418 298.609 132.45 298.597C132.483 298.585 132.518 298.579 132.553 298.581L132.569 298.582L134.899 298.817C134.946 298.824 134.99 298.848 135.02 298.886C135.051 298.924 135.066 298.971 135.062 299.02C135.059 299.068 135.038 299.113 135.003 299.146C134.967 299.179 134.921 299.198 134.873 299.199ZM130.192 299.017L127.854 298.879C127.805 298.878 127.758 298.868 127.714 298.848C127.669 298.828 127.63 298.8 127.597 298.765C127.564 298.729 127.538 298.688 127.522 298.642C127.506 298.597 127.499 298.549 127.502 298.501C127.505 298.452 127.517 298.405 127.539 298.362C127.56 298.319 127.59 298.281 127.627 298.249C127.664 298.218 127.707 298.195 127.753 298.18C127.799 298.166 127.848 298.161 127.896 298.167H127.903L130.238 298.353C130.323 298.362 130.402 298.403 130.458 298.47C130.513 298.536 130.541 298.621 130.535 298.707C130.529 298.793 130.49 298.873 130.426 298.931C130.362 298.989 130.278 299.019 130.192 299.017ZM125.516 298.742C124.736 298.7 123.958 298.646 123.181 298.58C123.082 298.57 122.99 298.523 122.926 298.447C122.861 298.371 122.829 298.273 122.836 298.174C122.842 298.075 122.888 297.982 122.962 297.916C123.036 297.85 123.133 297.815 123.233 297.82C124.012 297.861 124.791 297.915 125.569 297.982C125.669 297.988 125.763 298.035 125.829 298.111C125.896 298.187 125.929 298.286 125.922 298.387C125.915 298.488 125.869 298.581 125.793 298.648C125.716 298.714 125.617 298.747 125.517 298.741L125.516 298.742ZM120.846 298.395L118.512 298.209C118.423 298.202 118.341 298.161 118.283 298.095C118.225 298.028 118.196 297.941 118.203 297.853C118.209 297.764 118.25 297.682 118.317 297.624C118.383 297.566 118.47 297.537 118.559 297.544L120.896 297.682C120.99 297.687 121.079 297.73 121.141 297.801C121.204 297.872 121.237 297.965 121.231 298.059C121.225 298.154 121.183 298.242 121.112 298.305C121.041 298.368 120.948 298.4 120.854 298.395H120.846ZM116.181 297.981L113.851 297.746C113.8 297.741 113.754 297.717 113.721 297.678C113.689 297.64 113.672 297.591 113.676 297.54C113.679 297.49 113.702 297.443 113.74 297.41C113.777 297.376 113.826 297.358 113.877 297.361L116.218 297.45C116.252 297.451 116.287 297.459 116.319 297.474C116.35 297.488 116.379 297.509 116.403 297.535C116.426 297.56 116.445 297.59 116.457 297.623C116.469 297.656 116.475 297.691 116.474 297.726C116.472 297.76 116.464 297.795 116.449 297.827C116.435 297.858 116.414 297.887 116.389 297.911C116.363 297.934 116.333 297.953 116.3 297.965C116.267 297.977 116.232 297.983 116.198 297.982L116.181 297.981ZM111.523 297.467L110.353 297.311L111.533 297.317C111.552 297.317 111.572 297.324 111.586 297.339C111.6 297.353 111.608 297.372 111.608 297.392C111.608 297.411 111.6 297.431 111.586 297.445C111.572 297.459 111.552 297.467 111.533 297.467H111.523ZM140.236 201.668C140.292 202.196 140.32 202.726 140.319 203.258C140.318 203.294 140.31 203.331 140.294 203.364C140.279 203.398 140.256 203.427 140.229 203.452C140.201 203.476 140.169 203.494 140.133 203.505C140.098 203.516 140.061 203.52 140.024 203.516C139.988 203.511 139.952 203.5 139.921 203.481C139.889 203.462 139.861 203.437 139.84 203.407C139.818 203.377 139.804 203.343 139.796 203.307C139.789 203.271 139.789 203.234 139.797 203.198C139.916 202.68 140.061 202.169 140.236 201.668ZM140.253 204.83C140.209 205.351 140.151 205.871 140.08 206.39C140.068 206.49 140.017 206.581 139.938 206.644C139.859 206.707 139.759 206.736 139.659 206.725C139.558 206.713 139.467 206.662 139.404 206.583C139.341 206.504 139.312 206.404 139.324 206.304C139.366 205.782 139.436 205.264 139.507 204.745C139.523 204.65 139.575 204.565 139.651 204.507C139.728 204.45 139.824 204.423 139.92 204.434C140.015 204.445 140.103 204.492 140.165 204.566C140.227 204.639 140.258 204.734 140.253 204.83ZM139.81 207.94C139.701 208.458 139.565 208.97 139.404 209.474C139.399 209.486 139.39 209.497 139.379 209.504C139.367 209.511 139.353 209.514 139.34 209.513C139.327 209.511 139.314 209.505 139.305 209.495C139.295 209.486 139.289 209.473 139.288 209.46C139.244 208.932 139.227 208.403 139.238 207.875C139.237 207.835 139.244 207.796 139.259 207.76C139.274 207.724 139.296 207.691 139.323 207.664C139.351 207.636 139.384 207.614 139.421 207.6C139.457 207.586 139.496 207.579 139.535 207.58C139.575 207.581 139.613 207.591 139.649 207.607C139.684 207.624 139.716 207.647 139.742 207.677C139.768 207.706 139.788 207.74 139.8 207.777C139.813 207.814 139.818 207.854 139.815 207.893C139.814 207.908 139.812 207.924 139.81 207.94ZM219.5 141.172C218.977 141.277 218.453 141.359 217.93 141.414C217.865 141.42 217.801 141.401 217.751 141.36C217.701 141.32 217.669 141.261 217.663 141.197C217.656 141.132 217.675 141.068 217.716 141.018C217.756 140.968 217.815 140.936 217.88 140.93C217.896 140.928 217.913 140.928 217.93 140.93C218.453 140.984 218.977 141.066 219.5 141.172ZM216.36 141.53C215.837 141.559 215.314 141.559 214.79 141.561C214.738 141.561 214.688 141.551 214.64 141.531C214.593 141.512 214.55 141.483 214.513 141.447C214.477 141.411 214.448 141.368 214.428 141.321C214.409 141.274 214.398 141.223 214.398 141.172C214.398 141.121 214.408 141.07 214.427 141.023C214.447 140.975 214.475 140.932 214.511 140.896C214.547 140.859 214.59 140.831 214.637 140.811C214.685 140.791 214.735 140.781 214.787 140.781H214.79C215.314 140.784 215.837 140.784 216.36 140.813C216.451 140.817 216.538 140.857 216.601 140.924C216.664 140.991 216.7 141.079 216.7 141.171C216.7 141.263 216.664 141.351 216.601 141.418C216.538 141.485 216.451 141.525 216.36 141.53ZM213.22 141.512C212.696 141.482 212.173 141.436 211.65 141.372C211.601 141.366 211.556 141.342 211.523 141.305C211.49 141.268 211.472 141.22 211.472 141.171C211.472 141.122 211.49 141.074 211.523 141.037C211.556 141 211.601 140.977 211.65 140.971C212.173 140.907 212.696 140.861 213.22 140.831C213.264 140.828 213.309 140.834 213.351 140.849C213.394 140.864 213.433 140.887 213.466 140.916C213.499 140.946 213.527 140.982 213.546 141.023C213.566 141.063 213.577 141.107 213.58 141.152C213.582 141.196 213.576 141.241 213.561 141.283C213.546 141.326 213.523 141.365 213.494 141.398C213.464 141.431 213.428 141.459 213.387 141.478C213.347 141.498 213.303 141.509 213.259 141.512C213.246 141.512 213.233 141.512 213.22 141.512Z" fill="#3D3D3D"/>
<path d="M172.462 96.4719C172.671 96.6422 172.839 96.8576 172.952 97.102C173.066 97.3464 173.122 97.6134 173.118 97.8829C173.11 98.1546 173.049 98.4222 172.94 98.6709C172.831 98.9136 172.667 99.1278 172.462 99.2969C172.601 98.8375 172.678 98.3617 172.691 97.8819C172.691 97.4026 172.614 96.9265 172.462 96.4719ZM129.665 95.8359C129.462 96.5634 129.357 97.3147 129.353 98.0699C129.347 98.4364 129.395 98.8018 129.493 99.1549C129.593 99.5213 129.731 99.8764 129.903 100.215C129.59 99.9604 129.344 99.6346 129.183 99.2649C129.023 98.8882 128.936 98.4849 128.926 98.0759C128.919 97.2684 129.179 96.4812 129.665 95.8359Z" fill="#E8B37C"/>
<path d="M140.942 261.438C142.549 260.931 144.111 260.293 145.613 259.53C147.093 258.781 148.49 257.877 149.779 256.834C151.072 255.806 152.212 254.6 153.164 253.252C154.13 251.878 154.934 250.397 155.558 248.838C155.293 250.548 154.702 252.191 153.818 253.678L153.494 254.247L153.103 254.769C152.834 255.112 152.59 255.478 152.299 255.802C151.715 256.451 151.084 257.055 150.409 257.609C149.055 258.7 147.547 259.585 145.935 260.237C144.344 260.896 142.659 261.301 140.942 261.438Z" fill="#0A0B3F"/>
<path d="M429.22 121.451H515.62V179.531H429.22V121.451Z" fill="#9CEFAA"/>
<path d="M418.403 250.749H527.5V426.182H418.403V250.749ZM424.214 116.286V181.95H520.627V116.286H424.214ZM513.044 176.785H431.797V121.45H513.043L513.044 176.785Z" fill="#606F7F"/>
<path d="M465.572 181.95H480.332V270.29H465.572V181.95Z" fill="#606F7F"/>
<path d="M480.332 181.95H465.572V184.95L480.332 181.95ZM432.614 260.313H518.054V306.182H432.614V260.313ZM432.614 315.746H518.054V361.615H432.614V315.746ZM432.614 371.18H518.054V417.049H432.614V371.18Z" fill="#A8B4C1"/>
<path d="M475.334 288.867C478.437 288.867 480.953 286.351 480.953 283.248C480.953 280.145 478.437 277.629 475.334 277.629C472.231 277.629 469.715 280.145 469.715 283.248C469.715 286.351 472.231 288.867 475.334 288.867Z" fill="#1C1C1D"/>
<path d="M475.334 399.734C478.437 399.734 480.953 397.218 480.953 394.115C480.953 391.012 478.437 388.496 475.334 388.496C472.231 388.496 469.715 391.012 469.715 394.115C469.715 397.218 472.231 399.734 475.334 399.734Z" fill="#1C1C1D"/>
<path d="M475.334 344.3C478.437 344.3 480.953 341.785 480.953 338.681C480.953 335.578 478.437 333.062 475.334 333.062C472.231 333.062 469.715 335.578 469.715 338.681C469.715 341.785 472.231 344.3 475.334 344.3Z" fill="#1C1C1D"/>
<path d="M439.574 154.603L443.557 142.091L443.649 141.803L443.749 142.09L449.394 158.127L448.945 158.157L453.671 134.382L454.056 132.446L454.281 134.408L457.721 164.399L456.957 164.346L462.419 142.732L462.887 140.877L463.292 142.749L466.044 155.461L465.109 155.422C467.206 148.372 469.393 141.347 471.536 134.31L472.108 132.433L472.425 134.367L476.911 161.739L476.159 161.724L480.006 143.494L480.231 142.427L480.641 143.437L485.211 154.729L484.641 154.779L489.521 132.477L489.769 131.343L489.949 132.487L494.294 160.123L489.519 132.558L489.947 132.568L485.227 154.906L485.027 155.857L484.656 154.956L480.024 143.688L480.658 143.631L476.908 161.881L476.498 163.881L476.156 161.865L471.523 134.518L472.411 134.575C470.287 141.618 468.205 148.674 466.034 155.703L465.484 157.487L465.099 155.664L462.415 142.937L463.289 142.954L457.711 164.539L457.178 166.602L456.947 164.486L453.667 134.477L454.277 134.504L449.402 158.249L449.228 159.099L448.953 158.279L443.558 142.156L443.75 142.154L439.574 154.603ZM437.414 149.118L440.479 149.023C440.504 149.022 440.529 149.031 440.547 149.048C440.565 149.066 440.576 149.09 440.577 149.115C440.578 149.14 440.569 149.164 440.551 149.183C440.534 149.201 440.51 149.212 440.485 149.213H440.479L437.414 149.118Z" fill="#232527"/>
<path d="M443.544 148.948L446.609 148.873C446.674 148.871 446.737 148.895 446.784 148.94C446.831 148.985 446.858 149.047 446.86 149.112C446.862 149.177 446.837 149.24 446.793 149.287C446.748 149.334 446.686 149.361 446.621 149.363H446.609L443.544 149.287C443.499 149.287 443.456 149.269 443.424 149.237C443.392 149.205 443.374 149.162 443.374 149.117C443.374 149.071 443.392 149.028 443.424 148.996C443.456 148.964 443.499 148.948 443.544 148.948ZM449.674 148.825L452.739 148.779C452.829 148.777 452.915 148.812 452.98 148.874C453.044 148.937 453.081 149.022 453.083 149.112C453.084 149.202 453.049 149.288 452.987 149.353C452.924 149.417 452.839 149.454 452.749 149.456H452.739L449.674 149.41C449.599 149.405 449.529 149.372 449.478 149.318C449.427 149.264 449.398 149.192 449.398 149.117C449.398 149.042 449.427 148.97 449.478 148.916C449.529 148.862 449.599 148.829 449.674 148.825ZM455.804 148.733L458.869 148.693C458.982 148.691 459.09 148.735 459.171 148.814C459.252 148.892 459.298 149 459.299 149.113C459.3 149.225 459.257 149.334 459.178 149.415C459.099 149.495 458.992 149.541 458.879 149.543H458.869L455.804 149.502C455.702 149.502 455.604 149.461 455.532 149.389C455.46 149.317 455.42 149.219 455.42 149.117C455.42 149.015 455.46 148.917 455.532 148.845C455.604 148.773 455.702 148.733 455.804 148.733ZM461.934 148.678L464.999 148.663C465.12 148.662 465.236 148.709 465.321 148.794C465.407 148.879 465.455 148.995 465.456 149.116C465.457 149.236 465.409 149.352 465.324 149.438C465.239 149.524 465.124 149.572 465.003 149.573H465L461.935 149.557C461.822 149.551 461.716 149.503 461.638 149.421C461.56 149.339 461.516 149.23 461.516 149.117C461.516 149.004 461.56 148.895 461.638 148.813C461.716 148.732 461.822 148.683 461.935 148.678H461.934ZM468.064 148.648L471.129 148.633C471.193 148.632 471.256 148.644 471.315 148.669C471.374 148.693 471.427 148.728 471.473 148.773C471.518 148.818 471.554 148.871 471.579 148.93C471.603 148.988 471.616 149.051 471.617 149.115C471.617 149.179 471.605 149.242 471.581 149.301C471.556 149.36 471.521 149.413 471.476 149.459C471.431 149.504 471.378 149.54 471.319 149.565C471.261 149.589 471.198 149.602 471.134 149.603H471.129L468.064 149.588C467.939 149.588 467.82 149.538 467.732 149.45C467.644 149.362 467.594 149.242 467.594 149.118C467.594 148.993 467.644 148.873 467.732 148.785C467.82 148.697 467.939 148.648 468.064 148.648ZM474.194 148.618L477.259 148.633C477.388 148.633 477.511 148.684 477.602 148.775C477.693 148.866 477.744 148.989 477.744 149.118C477.744 149.246 477.693 149.37 477.602 149.461C477.511 149.551 477.388 149.603 477.259 149.603L474.194 149.617C474.127 149.62 474.059 149.61 473.996 149.586C473.932 149.563 473.875 149.527 473.826 149.48C473.776 149.434 473.737 149.378 473.711 149.316C473.684 149.254 473.67 149.187 473.669 149.12C473.669 149.052 473.682 148.985 473.709 148.923C473.735 148.861 473.773 148.805 473.822 148.758C473.87 148.711 473.928 148.674 473.991 148.65C474.054 148.626 474.122 148.615 474.189 148.618H474.194ZM480.324 148.648L483.389 148.664C483.509 148.664 483.625 148.711 483.71 148.797C483.795 148.882 483.843 148.997 483.843 149.118C483.843 149.238 483.795 149.353 483.71 149.439C483.625 149.524 483.509 149.572 483.389 149.572L480.324 149.587C480.261 149.59 480.197 149.58 480.138 149.558C480.078 149.536 480.023 149.502 479.977 149.459C479.931 149.415 479.894 149.363 479.869 149.304C479.844 149.246 479.83 149.183 479.83 149.12C479.83 149.056 479.842 148.993 479.867 148.935C479.892 148.876 479.928 148.823 479.974 148.779C480.019 148.735 480.073 148.701 480.133 148.678C480.192 148.655 480.256 148.645 480.319 148.648H480.324ZM486.454 148.679L489.519 148.694C489.631 148.694 489.739 148.738 489.818 148.818C489.898 148.897 489.943 149.005 489.943 149.117C489.943 149.229 489.898 149.337 489.818 149.417C489.739 149.496 489.631 149.541 489.519 149.541L486.454 149.556C486.395 149.559 486.335 149.55 486.28 149.529C486.224 149.509 486.173 149.477 486.13 149.437C486.086 149.396 486.052 149.347 486.028 149.292C486.004 149.238 485.992 149.179 485.992 149.12C485.991 149.06 486.003 149.001 486.026 148.947C486.049 148.892 486.083 148.842 486.126 148.801C486.169 148.76 486.219 148.728 486.275 148.707C486.33 148.686 486.39 148.676 486.449 148.679H486.454ZM492.584 148.737L495.649 148.783C495.738 148.783 495.823 148.818 495.886 148.881C495.949 148.944 495.984 149.029 495.984 149.118C495.984 149.206 495.949 149.292 495.886 149.354C495.823 149.417 495.738 149.453 495.649 149.453L492.584 149.498C492.483 149.499 492.386 149.461 492.314 149.391C492.241 149.32 492.2 149.224 492.198 149.124C492.196 149.023 492.235 148.926 492.305 148.853C492.375 148.781 492.471 148.739 492.572 148.738L492.584 148.737ZM498.714 148.83L501.779 148.88C501.842 148.88 501.902 148.905 501.947 148.949C501.992 148.994 502.017 149.054 502.017 149.117C502.017 149.18 501.992 149.24 501.947 149.285C501.902 149.33 501.842 149.355 501.779 149.355L498.714 149.406C498.676 149.406 498.638 149.399 498.603 149.386C498.568 149.372 498.536 149.351 498.509 149.325C498.481 149.298 498.46 149.267 498.444 149.232C498.429 149.197 498.421 149.16 498.421 149.122C498.42 149.084 498.427 149.047 498.441 149.011C498.454 148.976 498.475 148.944 498.501 148.917C498.528 148.889 498.559 148.868 498.594 148.852C498.629 148.837 498.666 148.829 498.704 148.829L498.714 148.83ZM504.844 148.956L507.909 149.031C507.932 149.031 507.954 149.04 507.97 149.056C507.986 149.072 507.996 149.094 507.996 149.117C507.996 149.14 507.986 149.162 507.97 149.178C507.954 149.194 507.932 149.204 507.909 149.204L504.844 149.28C504.801 149.281 504.759 149.265 504.728 149.235C504.697 149.205 504.679 149.165 504.678 149.122C504.677 149.079 504.693 149.037 504.723 149.006C504.752 148.975 504.793 148.957 504.836 148.956H504.844ZM487.814 168.283C488.858 167.933 489.953 167.764 491.054 167.783C492.155 167.761 493.251 167.931 494.294 168.283C493.251 168.635 492.155 168.804 491.054 168.783C489.953 168.802 488.858 168.632 487.814 168.283ZM496.454 168.283C497.498 167.933 498.593 167.764 499.694 167.783C500.795 167.761 501.891 167.931 502.934 168.283C501.891 168.635 500.795 168.804 499.694 168.783C498.593 168.802 497.498 168.632 496.454 168.283ZM505.064 168.283C506.108 167.933 507.203 167.764 508.304 167.783C509.405 167.761 510.501 167.931 511.544 168.283C510.501 168.635 509.405 168.804 508.304 168.783C507.203 168.802 506.108 168.632 505.064 168.283Z" fill="#292A2B"/>
<path d="M193.4 241.004H130.422V234.411H193.4V241.004Z" fill="#1B1B1E"/>
<path d="M153.717 257.946C155.323 257.439 156.886 256.801 158.388 256.038C159.868 255.289 161.264 254.385 162.554 253.342C163.846 252.314 164.986 251.108 165.939 249.76C166.905 248.386 167.708 246.905 168.333 245.346C168.067 247.055 167.477 248.698 166.593 250.186L166.269 250.755L165.878 251.277C165.609 251.62 165.365 251.986 165.074 252.31C164.49 252.958 163.858 253.562 163.184 254.117C161.829 255.207 160.322 256.093 158.71 256.745C157.119 257.404 155.434 257.809 153.717 257.946Z" fill="#0A0B3F"/>
<path d="M58.2168 40.416H175.647V45.913H58.2168V40.416Z" fill="#7DBC88"/>
<path d="M117.932 11.5547H126.697C126.962 11.5547 127.216 11.66 127.404 11.8476C127.591 12.0351 127.697 12.2895 127.697 12.5547V40.4147H116.932V12.5547C116.932 12.2895 117.037 12.0351 117.225 11.8476C117.412 11.66 117.666 11.5547 117.932 11.5547Z" fill="#C0F2C9"/>
<path d="M121.533 6.50879H123.096C123.361 6.50879 123.615 6.61415 123.803 6.80168C123.99 6.98922 124.096 7.24357 124.096 7.50879V11.6498H120.533V7.50979C120.533 7.24457 120.638 6.99022 120.826 6.80268C121.013 6.61515 121.267 6.50979 121.533 6.50979V6.50879ZM81.4277 45.9128H84.4817V56.7038H81.4277V45.9128ZM154.421 45.9128H157.475V56.7038H154.421V45.9128ZM76.4717 21.6328H93.2547C93.5199 21.6328 93.7743 21.7381 93.9618 21.9257C94.1493 22.1132 94.2547 22.3676 94.2547 22.6328V40.4158H75.4717V22.6328C75.4717 22.3676 75.577 22.1132 75.7646 21.9257C75.9521 21.7381 76.2065 21.6328 76.4717 21.6328Z" fill="#C0F2C9"/>
<path d="M75.4717 26.3592H94.2537V26.7832H75.4717V26.3592ZM84.8637 33.8072C84.3135 33.8072 83.7757 33.6441 83.3182 33.3384C82.8607 33.0328 82.5041 32.5983 82.2935 32.0901C82.0829 31.5818 82.0278 31.0225 82.1351 30.4828C82.2423 29.9432 82.5072 29.4475 82.8962 29.0584C83.2851 28.6693 83.7807 28.4042 84.3203 28.2968C84.8599 28.1893 85.4193 28.2443 85.9276 28.4547C86.436 28.6651 86.8705 29.0215 87.1763 29.4789C87.4822 29.9362 87.6455 30.474 87.6457 31.0242C87.6452 31.762 87.3519 32.4694 86.8303 32.9911C86.3087 33.5129 85.6014 33.8064 84.8637 33.8072ZM84.8637 28.6662C84.397 28.666 83.9408 28.8042 83.5527 29.0633C83.1646 29.3225 82.8621 29.6909 82.6834 30.122C82.5048 30.5531 82.458 31.0275 82.549 31.4852C82.6399 31.9429 82.8646 32.3633 83.1946 32.6933C83.5246 33.0232 83.945 33.2479 84.4027 33.3389C84.8604 33.4299 85.3348 33.3831 85.7659 33.2044C86.197 33.0258 86.5654 32.7233 86.8245 32.3352C87.0837 31.9471 87.2219 31.4909 87.2217 31.0242C87.2212 30.399 86.9725 29.7995 86.5305 29.3574C86.0884 28.9153 85.4889 28.6667 84.8637 28.6662ZM116.931 20.6582H127.697V21.0822H116.931V20.6582Z" fill="#7DBC88"/>
<path d="M145.08 11.5547H153.845C154.11 11.5547 154.365 11.66 154.552 11.8476C154.74 12.0351 154.845 12.2895 154.845 12.5547V40.4147H144.079V12.5547C144.079 12.2895 144.184 12.0351 144.372 11.8476C144.56 11.66 144.815 11.5547 145.08 11.5547Z" fill="#C0F2C9"/>
<path d="M148.68 6.50879H150.244C150.509 6.50879 150.763 6.61415 150.951 6.80168C151.138 6.98922 151.244 7.24357 151.244 7.50879V11.6498H147.68V7.50979C147.68 7.24457 147.785 6.99022 147.973 6.80268C148.16 6.61515 148.414 6.50979 148.68 6.50979V6.50879Z" fill="#C0F2C9"/>
<path d="M144.079 20.6582H154.845V21.0822H144.079V20.6582Z" fill="#7DBC88"/>
<path d="M130.657 6.01367H141.489C141.754 6.01367 142.009 6.11903 142.196 6.30657C142.384 6.4941 142.489 6.74846 142.489 7.01367V40.4157H129.657V7.01367C129.657 6.74846 129.763 6.4941 129.95 6.30657C130.138 6.11903 130.392 6.01367 130.657 6.01367Z" fill="#C0F2C9"/>
<path d="M134.95 0H137.197C137.462 0 137.717 0.105357 137.904 0.292893C138.092 0.48043 138.197 0.734784 138.197 1V6.128H133.95V1C133.95 0.734784 134.056 0.48043 134.243 0.292893C134.431 0.105357 134.685 0 134.95 0Z" fill="#C0F2C9"/>
<path d="M409.118 58.8438H417.884C418.149 58.8438 418.404 58.9491 418.591 59.1366C418.779 59.3242 418.884 59.5785 418.884 59.8438V87.7048H408.118V59.8438C408.118 59.5785 408.224 59.3242 408.411 59.1366C408.599 58.9491 408.853 58.8438 409.118 58.8438Z" fill="#C0F2C9"/>
<path d="M412.72 53.7979H414.283C414.548 53.7979 414.803 53.9032 414.99 54.0907C415.178 54.2783 415.283 54.5326 415.283 54.7979V58.9389H411.72V54.7999C411.72 54.5346 411.826 54.2803 412.013 54.0927C412.201 53.9052 412.455 53.7999 412.72 53.7999V53.7979ZM372.615 93.2019H375.669V103.993H372.615V93.2019ZM445.607 93.2019H448.661V103.993H445.607V93.2019ZM367.66 68.9218H384.442C384.707 68.9218 384.962 69.0272 385.149 69.2147C385.337 69.4023 385.442 69.6566 385.442 69.9218V87.7049H366.659V69.9218C366.659 69.6566 366.765 69.4023 366.952 69.2147C367.14 69.0272 367.394 68.9218 367.659 68.9218H367.66Z" fill="#C0F2C9"/>
<path d="M366.659 73.6483H385.442V74.0723H366.659V73.6483ZM376.05 81.0963C375.5 81.0961 374.962 80.9327 374.505 80.6269C374.047 80.3211 373.691 79.8866 373.481 79.3782C373.27 78.8698 373.215 78.3105 373.323 77.7709C373.43 77.2313 373.695 76.7357 374.084 76.3467C374.473 75.9578 374.969 75.6929 375.509 75.5856C376.048 75.4784 376.608 75.5335 377.116 75.7441C377.624 75.9547 378.059 76.3113 378.364 76.7688C378.67 77.2263 378.833 77.7641 378.833 78.3143C378.832 79.0519 378.539 79.759 378.017 80.2806C377.496 80.8021 376.789 81.0955 376.051 81.0963H376.05ZM376.05 75.9553C375.584 75.9553 375.128 76.0936 374.74 76.3528C374.352 76.612 374.049 76.9805 373.871 77.4115C373.692 77.8426 373.645 78.3169 373.737 78.7745C373.828 79.2321 374.052 79.6524 374.382 79.9823C374.712 80.3122 375.132 80.5369 375.59 80.6279C376.048 80.719 376.522 80.6722 376.953 80.4937C377.384 80.3152 377.752 80.0128 378.012 79.6249C378.271 79.2369 378.409 78.7808 378.409 78.3143C378.409 77.6888 378.16 77.089 377.718 76.6465C377.276 76.204 376.677 75.9551 376.051 75.9543L376.05 75.9553ZM408.118 67.9473H418.884V68.3713H408.118V67.9473Z" fill="#7DBC88"/>
<path d="M436.266 58.8438H445.032C445.297 58.8438 445.551 58.9491 445.739 59.1366C445.926 59.3242 446.032 59.5785 446.032 59.8438V87.7048H435.266V59.8438C435.266 59.5785 435.371 59.3242 435.559 59.1366C435.746 58.9491 436 58.8438 436.266 58.8438Z" fill="#C0F2C9"/>
<path d="M439.867 53.7979H441.43C441.695 53.7979 441.95 53.9032 442.137 54.0907C442.325 54.2783 442.43 54.5326 442.43 54.7979V58.9389H438.867V54.7999C438.867 54.5346 438.973 54.2803 439.16 54.0927C439.348 53.9052 439.602 53.7999 439.867 53.7999V53.7979Z" fill="#C0F2C9"/>
<path d="M435.265 67.9473H446.031V68.3713H435.265V67.9473Z" fill="#7DBC88"/>
<path d="M421.844 53.3027H432.676C432.941 53.3027 433.195 53.4081 433.383 53.5956C433.57 53.7832 433.676 54.0375 433.676 54.3027V87.7047H420.844V54.3027C420.844 54.0375 420.949 53.7832 421.137 53.5956C421.324 53.4081 421.579 53.3027 421.844 53.3027Z" fill="#C0F2C9"/>
<path d="M426.136 47.29H428.383C428.648 47.29 428.902 47.3954 429.09 47.5829C429.277 47.7705 429.383 48.0248 429.383 48.29V53.417H425.136V48.29C425.136 48.0248 425.241 47.7705 425.429 47.5829C425.616 47.3954 425.871 47.29 426.136 47.29Z" fill="#C0F2C9"/>
<path d="M420.844 64.1543H433.677V64.6603H420.844V64.1543Z" fill="#7DBC88"/>
<path d="M338.775 256.744C338.683 255.966 338.597 255.187 338.515 254.408L275.018 253.946C274.915 254.874 274.806 255.801 274.691 256.729L296.101 260.819C302.331 262.014 308.679 262.47 315.015 262.177C337.713 261.107 338.775 256.744 338.775 256.744Z" fill="#167FFC"/>
<path d="M235.714 418.839H286.639V422.574H235.714V418.839ZM317.607 418.839H368.532V422.574H317.607V418.839Z" fill="#874806"/>
<path d="M265.106 260.492L115.16 248.984L114.397 239.294C114.397 239.294 236.355 215.427 266.233 221.556L265.106 260.492Z" fill="#2C2D6C"/>
<path d="M115.54 248.453L104.415 249.329C104.415 249.329 95.2453 236.69 101.669 233.115L105.748 239.606C106.22 240.358 106.929 240.93 107.763 241.235C108.596 241.539 109.507 241.557 110.352 241.286L114.862 239.839L115.54 248.453Z" fill="#F6C18A"/>
<path d="M104.415 249.33C104.415 249.33 98.8754 254.64 94.0924 251.226L92.0844 225.734C92.0361 225.232 92.0909 224.725 92.2454 224.245C92.4 223.764 92.651 223.321 92.9832 222.941C93.3153 222.561 93.7215 222.253 94.1769 222.036C94.6323 221.819 95.1272 221.697 95.6314 221.678C97.1594 221.671 98.8814 222.63 100.231 226.006L101.669 233.115L104.415 249.33Z" fill="#2C2D6C"/>
<path d="M61.2542 279.853H426.294V304.244H61.2542V279.853ZM56.3942 239.95C57.6831 239.95 58.9193 240.462 59.8307 241.374C60.7421 242.285 61.2542 243.521 61.2542 244.81V304.245H51.5342V244.81C51.5342 243.521 52.0462 242.285 52.9576 241.374C53.8691 240.462 55.1052 239.95 56.3942 239.95Z" fill="#70707F"/>
<path d="M430.417 239.95C431.706 239.95 432.942 240.462 433.853 241.374C434.765 242.285 435.277 243.521 435.277 244.81V304.245H425.557V244.81C425.557 243.521 426.069 242.285 426.98 241.374C427.892 240.462 429.128 239.95 430.417 239.95Z" fill="#4B4C54"/>
<path d="M435.353 426.18H51.457V299.308H435.353V426.18ZM61.33 416.307H425.48V309.182H61.33V416.307Z" fill="#4B4C54"/>
<path d="M318.753 265.916C318.753 265.916 296.798 266.607 287.089 259.926C277.38 253.245 250.842 239 250.842 239L250.854 219.246C250.854 219.246 262.404 224.251 293.391 222.271C293.391 222.271 306.492 211.134 315.327 228.907L337.555 249.487L332.099 262.952C327.79 264.489 323.307 265.485 318.753 265.917V265.916Z" fill="#C69E73"/>
<path d="M350.442 239.086C350.442 239.086 334.358 245.935 328.739 241.133C323.12 236.331 315.327 228.906 315.327 228.906C315.327 228.906 314.821 239.526 319.219 239.828C323.617 240.13 333.86 243.136 333.203 254.93C332.546 266.724 319.153 265.217 318.753 265.916C318.753 265.916 332.623 264.826 333.335 264.113C333.335 264.113 337.196 262.691 343.122 256.81C343.122 256.81 345.712 253.176 349.122 254.04L355.607 252.882L354.497 248.196L350.442 239.086Z" fill="#F6C18A"/>
<path d="M354.498 248.196L350.442 239.086C350.442 239.086 346.482 240.496 345.557 240.846C345.837 241.712 354.913 249.951 354.913 249.951L354.498 248.196Z" fill="#E8B37C"/>
<path d="M214.993 233.706L257.51 258.256L320.484 261.812C321.657 261.911 322.838 261.769 323.955 261.395C325.071 261.021 326.099 260.422 326.976 259.636C327.852 258.85 328.559 257.893 329.052 256.824C329.546 255.755 329.815 254.596 329.844 253.419C329.873 252.27 329.671 251.126 329.252 250.055C328.833 248.985 328.204 248.009 327.402 247.184C326.601 246.36 325.643 245.704 324.584 245.255C323.526 244.805 322.388 244.572 321.238 244.568L263.138 244.372L218.174 224.722L214.993 233.706ZM386.02 228.35C381.963 226.491 377.408 226.015 373.053 226.993C373.053 226.993 370.653 228.49 365.333 224.213C365.333 224.213 362.543 221.701 361.267 226.57C361.221 226.745 361.126 226.903 360.994 227.027C360.861 227.15 360.697 227.233 360.519 227.267C359.837 227.413 359.138 227.47 358.441 227.436C358.273 227.413 358.102 227.428 357.941 227.48C357.779 227.532 357.631 227.62 357.508 227.736C357.385 227.853 357.289 227.995 357.229 228.154C357.168 228.312 357.143 228.482 357.157 228.651C357.166 228.717 357.061 228.701 356.842 228.514C355.891 227.696 354.732 228.527 354.929 229.864C354.933 229.878 354.939 229.892 354.946 229.904C354.946 229.904 350.961 228.853 349.811 230.551C349.811 230.551 348.734 231.731 349.703 236.376C350.067 238.081 350.606 239.743 351.312 241.336C352.376 243.766 354.268 248.24 354.549 248.521L366.039 253.801L381.436 247.78L388.843 230.926L386.02 228.35Z" fill="#F6C18A"/>
<path d="M364.405 228.936C364.175 229.16 363.889 229.32 363.578 229.399C363.25 229.493 362.902 229.489 362.578 229.386C362.24 229.279 361.956 229.047 361.783 228.739C361.616 228.458 361.537 228.134 361.557 227.809C361.828 228.282 362.247 228.654 362.751 228.866C363.292 228.999 363.854 229.022 364.405 228.936Z" fill="#E8B37C"/>
<path d="M375.748 226.574C375.992 227.209 376.192 227.859 376.347 228.52C376.54 229.189 376.641 229.88 376.646 230.576C376.624 231.289 376.457 231.99 376.154 232.636C375.838 233.245 375.467 233.824 375.047 234.366C375.193 233.702 375.425 233.036 375.621 232.432C375.798 231.822 375.898 231.192 375.916 230.556C375.912 229.906 375.868 229.256 375.786 228.61C375.728 227.933 375.715 227.253 375.748 226.574ZM372.099 233.764C371.405 232.858 371.032 231.746 371.039 230.604C371.033 229.999 371.215 229.407 371.559 228.909C371.737 228.674 371.962 228.478 372.218 228.334C372.475 228.189 372.759 228.098 373.052 228.067C372.63 228.36 372.285 228.75 372.046 229.205C371.854 229.652 371.76 230.135 371.769 230.621C371.796 231.676 371.907 232.727 372.099 233.764Z" fill="#020202"/>
<path d="M380.01 230.285C380.702 230.518 381.299 230.971 381.709 231.575C382.12 232.179 382.322 232.9 382.284 233.629C382.2 235.206 381.739 237.07 380.168 237.942C380.168 237.942 375.218 241.762 373.49 246.934C371.138 247.099 368.818 247.576 366.592 248.354C366.592 248.354 359.637 246.974 354.033 248.488C352.296 248.97 350.787 250.053 349.775 251.545C348.763 253.036 348.314 254.839 348.508 256.631C349.04 261.671 351.923 269.367 363.728 273.691C382.315 280.499 390.718 268.41 390.718 268.41C390.718 268.41 400.621 281.26 409.434 270.8C411.611 268.15 412.983 264.932 413.39 261.527C414.368 254.103 414.422 239.933 399.83 242.827C397.832 238.133 395.475 233.6 392.78 229.267C390.883 226.356 388.038 224.191 384.726 223.139C380.906 221.981 375.484 221.974 369.074 226.584L380.01 230.285Z" fill="#595857"/>
<path d="M400.416 248.159C401.559 248.036 402.713 248.051 403.852 248.206C405.005 248.344 406.134 248.634 407.212 249.066C408.319 249.484 409.32 250.141 410.145 250.99C410.953 251.85 411.454 252.953 411.572 254.127C411.197 253.081 410.57 252.144 409.746 251.398C408.913 250.687 407.962 250.127 406.937 249.742C405.906 249.326 404.84 248.999 403.753 248.766C402.649 248.519 401.536 248.317 400.416 248.159ZM395.074 264.254C395.994 264.986 396.953 265.667 397.947 266.294C398.92 266.921 399.94 267.472 400.997 267.942C402.026 268.426 403.138 268.707 404.273 268.77C405.425 268.812 406.56 268.482 407.511 267.83C407.099 268.283 406.602 268.649 406.047 268.909C405.493 269.168 404.892 269.314 404.281 269.34C403.049 269.383 401.825 269.134 400.708 268.613C399.608 268.121 398.571 267.498 397.62 266.758C396.664 266.04 395.808 265.198 395.074 264.254ZM399.491 256.269C401.139 256.668 402.746 257.22 404.291 257.918C405.865 258.565 407.343 259.421 408.687 260.465L406.323 259.557C405.541 259.249 404.765 258.925 403.996 258.586C402.443 257.919 400.937 257.145 399.491 256.269ZM399.83 242.827C399.88 245.134 399.684 247.439 399.243 249.704C398.821 251.977 398.222 254.212 397.451 256.391C396.668 258.566 395.712 260.675 394.591 262.696C394.047 263.714 393.414 264.68 392.787 265.646C392.147 266.604 391.421 267.504 390.719 268.41C391.943 266.476 393.07 264.481 394.094 262.434C395.124 260.401 396.016 258.3 396.763 256.146C397.55 254.006 398.195 251.816 398.695 249.591C399.224 247.364 399.604 245.105 399.831 242.827H399.83ZM383.5 229.58C385.013 229.95 386.453 230.572 387.76 231.42C389.091 232.253 390.284 233.29 391.294 234.492C392.32 235.684 393.138 237.04 393.713 238.503C394.006 239.226 394.245 239.969 394.427 240.727C394.582 241.486 394.696 242.252 394.771 243.022C394.384 241.546 393.858 240.109 393.199 238.732C392.546 237.374 391.719 236.108 390.737 234.965C389.766 233.81 388.661 232.775 387.445 231.882C386.835 231.429 386.2 231.012 385.541 230.634C384.884 230.239 384.203 229.887 383.501 229.58H383.5ZM353.418 258.242C355.768 260.006 358.226 261.62 360.778 263.076C363.304 264.552 365.96 265.792 368.714 266.78C371.438 267.815 374.312 268.398 377.224 268.505C380.156 268.609 383.064 267.957 385.671 266.611C384.421 267.412 383.065 268.033 381.642 268.455C380.201 268.846 378.715 269.052 377.222 269.068C375.728 269.092 374.236 268.948 372.774 268.641C371.312 268.357 369.873 267.965 368.469 267.467C365.684 266.439 363.011 265.129 360.493 263.557C357.973 262.011 355.605 260.231 353.418 258.242ZM368.754 255.233C370.541 255.698 372.322 256.148 374.114 256.54C375.906 256.923 377.701 257.28 379.509 257.522C381.306 257.791 383.125 257.887 384.94 257.808C385.842 257.772 386.736 257.616 387.597 257.344C388.474 257.093 389.275 256.63 389.931 255.996C389.359 256.745 388.596 257.327 387.722 257.68C386.848 258.031 385.93 258.262 384.994 258.367C383.135 258.564 381.259 258.524 379.411 258.246C375.743 257.706 372.161 256.693 368.754 255.233ZM382.024 243.055C383.683 242.957 385.338 243.302 386.82 244.053C387.569 244.421 388.261 244.896 388.873 245.463C389.485 246.023 389.988 246.691 390.359 247.433C389.779 246.882 389.162 246.372 388.512 245.905C387.874 245.451 387.199 245.051 386.495 244.708C385.061 244.017 383.564 243.463 382.025 243.055H382.024Z" fill="#080808"/>
<path d="M314.354 269.07C314.354 269.07 337.654 257.31 364.712 267.013C382.24 273.299 395.615 266.753 402.862 261.361C403.971 260.54 405.247 259.973 406.6 259.7C407.953 259.428 409.349 259.456 410.69 259.783C412.031 260.11 413.283 260.728 414.358 261.593C415.433 262.458 416.305 263.548 416.912 264.788C418.623 268.47 419.976 272.309 420.952 276.251C426.077 295.862 310.635 286.866 310.635 286.866C310.635 286.866 304.121 283.18 314.355 269.07H314.354Z" fill="#F4DEC6"/>
<path d="M71.8973 237.207C81.5893 219.855 102.956 216.531 118.036 214.184C133.428 211.789 135.111 215.024 166.113 215.103C185.796 215.153 184.497 213.847 211.196 213.261C253.326 212.336 251.269 215.703 264.49 212.525C284.495 207.718 292.216 199.285 307.34 203.088C310.662 203.924 321.043 206.534 325.115 214.853C330.338 225.52 319.384 233.719 321.172 247.681C323.647 267.004 347.384 272.803 345.564 280.313C343.428 289.131 309.237 287.193 257.396 285.836C189.371 284.054 155.358 283.163 148.253 283.569C104.847 286.047 84.9893 292.169 73.6013 278.932C64.2563 268.068 65.0993 249.377 71.8973 237.207Z" fill="#C3BFBB"/>
<path d="M75.884 252.167L74.889 252.061C74.945 251.527 75.008 251.023 75.073 250.558L76.063 250.698C75.9951 251.186 75.9361 251.676 75.884 252.167ZM293.85 280.253C293.226 280.253 292.61 280.249 292.002 280.242L292.013 279.242C292.618 279.248 293.23 279.252 293.85 279.252L295.027 279.249L295.035 280.249L293.85 280.253ZM298.066 280.196L298.039 279.196C299.026 279.169 300.029 279.132 301.049 279.086L301.096 280.084C300.069 280.132 299.059 280.17 298.066 280.196ZM288.971 280.178C287.938 280.147 286.928 280.107 285.941 280.058L285.99 279.059C286.97 279.105 287.973 279.145 289 279.178L288.971 280.178ZM304.125 279.913L304.058 278.915C305.045 278.848 306.046 278.771 307.062 278.685L307.148 279.681C306.127 279.769 305.119 279.847 304.125 279.913ZM282.914 279.883C281.875 279.814 280.867 279.739 279.892 279.657L279.974 278.661C280.945 278.741 281.947 278.816 282.98 278.886L282.914 279.883ZM310.167 279.39L310.061 278.396C311.046 278.29 312.043 278.174 313.054 278.048L313.179 279.04C312.163 279.168 311.159 279.284 310.167 279.39ZM276.876 279.385C275.827 279.282 274.823 279.178 273.863 279.074L273.971 278.08C274.926 278.183 275.926 278.286 276.971 278.388L276.876 279.385ZM270.856 278.737L269.032 278.529C268.653 278.486 268.262 278.444 267.857 278.402L267.961 277.408C268.368 277.45 268.762 277.492 269.144 277.535L270.97 277.743L270.856 278.737ZM316.182 278.63L316.038 277.64C316.687 277.544 317.342 277.444 318.001 277.339L319.014 277.174L319.179 278.16L318.158 278.327C317.494 278.432 316.835 278.533 316.182 278.63ZM264.858 278.128C263.916 278.048 262.914 277.972 261.852 277.899L261.922 276.901C262.989 276.975 263.995 277.052 264.942 277.131L264.858 278.128ZM258.843 277.702C257.884 277.643 256.879 277.585 255.83 277.528L255.885 276.53C256.936 276.587 257.942 276.645 258.903 276.704L258.843 277.702ZM322.166 277.632L321.982 276.649C323.031 276.453 324.016 276.259 324.939 276.069L325.14 277.047C324.215 277.238 323.22 277.435 322.166 277.632ZM252.814 277.37C251.845 277.321 250.84 277.273 249.799 277.225L249.844 276.227C250.887 276.275 251.894 276.323 252.865 276.372L252.814 277.37ZM246.783 277.09L243.763 276.964L243.804 275.964L246.824 276.091L246.783 277.09ZM240.745 276.842L237.726 276.724L237.763 275.724L240.784 275.842L240.745 276.842ZM234.708 276.612L231.688 276.501L231.723 275.501L234.745 275.611L234.708 276.612ZM228.667 276.393L225.647 276.287L225.682 275.287L228.702 275.393L228.667 276.393ZM222.627 276.183L219.608 276.078L219.643 275.078L222.663 275.182L222.627 276.183ZM216.587 275.976L213.569 275.874L213.602 274.874L216.622 274.976L216.587 275.976ZM210.547 275.772L207.527 275.671L207.56 274.671L210.58 274.772L210.547 275.772ZM204.507 275.569L201.513 275.469L201.503 274.968L201.546 274.468L204.54 274.569L204.507 275.569ZM95.757 275.392C94.7419 275.394 93.727 275.372 92.713 275.326L92.76 274.328C93.68 274.371 94.66 274.392 95.758 274.392L95.757 275.392ZM198.466 275.367L195.446 275.267L195.478 274.267L198.498 274.367L198.466 275.367ZM98.792 275.353L98.768 274.353C99.7413 274.329 100.746 274.299 101.783 274.262L101.818 275.262C100.777 275.298 99.7686 275.328 98.792 275.353ZM192.422 275.166L189.403 275.066L189.436 274.066L192.456 274.166L192.422 275.166ZM104.839 275.156L104.806 274.156C105.815 274.121 106.824 274.093 107.834 274.073L107.854 275.073C106.849 275.093 105.844 275.12 104.839 275.155V275.156ZM129.001 275.076V274.076C130.008 274.076 131.014 274.072 132.021 274.064L132.028 275.064C131.019 275.072 130.01 275.076 129.001 275.076ZM89.664 275.073C88.6429 274.949 87.6305 274.76 86.633 274.51L86.881 273.54C87.8381 273.78 88.8094 273.96 89.789 274.08L89.664 275.073ZM125.976 275.069L122.953 275.052L122.959 274.052L125.98 274.069L125.976 275.069ZM119.931 275.03L116.909 275.013L116.913 274.013L119.936 274.03L119.931 275.03ZM110.87 275.027L110.86 274.027C111.869 274.017 112.878 274.011 113.887 274.011L113.889 275.011C112.882 275.012 111.877 275.017 110.87 275.027ZM135.055 275.024L135.037 274.024C136.042 274.005 137.047 273.98 138.052 273.95L138.082 274.95C137.074 274.981 136.066 275.006 135.055 275.024ZM186.385 274.969L183.365 274.873L183.395 273.873L186.417 273.969L186.385 274.969ZM141.111 274.833L141.064 273.835C142.068 273.788 143.071 273.732 144.074 273.667L144.139 274.665C143.13 274.73 142.12 274.786 141.111 274.833ZM180.345 274.779L177.323 274.689L177.353 273.689L180.373 273.779L180.345 274.779ZM174.304 274.601L171.284 274.519L171.309 273.519L174.331 273.601L174.304 274.601ZM147.148 274.468L147.096 273.47C148.042 273.419 149.05 273.379 150.129 273.348L150.156 274.348C149.086 274.378 148.086 274.418 147.148 274.468ZM168.261 274.446C167.223 274.421 166.217 274.399 165.242 274.381L165.262 273.381C166.237 273.4 167.245 273.422 168.284 273.446L168.261 274.446ZM162.225 274.328C161.178 274.313 160.171 274.301 159.204 274.292L159.214 273.292C160.181 273.3 161.189 273.312 162.238 273.328L162.225 274.328ZM153.169 274.291L153.159 273.291C154.071 273.281 155.029 273.276 156.032 273.276H156.186V274.276H156.032C155.032 274.276 154.078 274.281 153.169 274.291ZM83.699 273.481C82.7496 273.043 81.8524 272.5 81.024 271.863L81.636 271.073C82.404 271.665 83.237 272.169 84.119 272.573L83.699 273.481ZM78.779 269.689C78.1154 268.885 77.5348 268.017 77.046 267.097L77.928 266.627C78.3842 267.488 78.927 268.3 79.548 269.051L78.779 269.689ZM75.836 264.239C75.5189 263.257 75.2703 262.255 75.092 261.239L76.076 261.063C76.2458 262.033 76.4831 262.99 76.786 263.928L75.836 264.239ZM74.732 258.183C74.689 257.499 74.668 256.815 74.669 256.131C74.669 255.787 74.6736 255.448 74.683 255.114L75.683 255.144C75.6736 255.468 75.669 255.797 75.669 256.131C75.669 256.778 75.687 257.443 75.73 258.119L74.732 258.183ZM328.172 276.39L327.951 275.415C328.471 275.297 328.954 275.184 329.401 275.077L329.634 276.05C329.185 276.156 328.697 276.27 328.172 276.39Z" fill="#F4DEC6"/>
<path d="M238.512 258.225L237.514 258.173C238.964 231.076 263.098 220.968 263.341 220.869L263.718 221.795C263.479 221.891 239.928 231.776 238.512 258.225ZM95.2045 245.369L94.5645 245.152C99.9715 229.247 118.898 227.622 119.089 227.607L119.139 228.281C118.954 228.296 100.466 229.891 95.2045 245.369ZM154.842 255.002L153.887 254.783C159.284 231.276 186.639 226.185 186.916 226.138L187.086 227.102C186.817 227.15 160.093 232.136 154.842 255.002Z" fill="#CE985F"/>
<path d="M541.669 426.396H39.6289C39.3637 426.396 39.1093 426.291 38.9218 426.104C38.7343 425.916 38.6289 425.662 38.6289 425.396C38.6289 425.131 38.7343 424.877 38.9218 424.689C39.1093 424.502 39.3637 424.396 39.6289 424.396H541.669C541.934 424.396 542.188 424.502 542.376 424.689C542.564 424.877 542.669 425.131 542.669 425.396C542.669 425.662 542.564 425.916 542.376 426.104C542.188 426.291 541.934 426.396 541.669 426.396Z" fill="#1353A0"/>
</svg>
